<svg width="32" height="32" viewBox="0 0 32 32" fill="none" xmlns="http://www.w3.org/2000/svg">
<rect width="32" height="32" rx="8" fill="white"/>
<rect width="32" height="32" rx="8" fill="white"/>
<path d="M14.455 24H16.6165C17.6972 24 17.8173 23.88 17.8173 22.8002V21.6005C17.8173 20.5208 17.8686 20.3621 19.0181 20.3945L18.2214 19.2711C17.8691 20.3262 17.6972 20.4008 16.6165 20.4008H16.0161C14.9354 20.4008 14.7853 20.2808 14.425 19.2611L11.393 10.1432C11.0327 9.12339 10.8826 9.00342 9.8019 9.00342H8.00068C6.91995 9.00342 6.82988 9.12339 7.19013 10.1432L11.2729 21.7205C11.7832 23.2201 12.894 24 14.455 24Z" fill="#1A1A31"/>
<path d="M17.8307 21.5963C17.8307 20.5169 17.9469 20.3969 19.0252 20.3969H20.5229C21.6012 20.3969 21.751 20.277 22.1404 19.2576L23.7694 14.6297L20.5701 12.0923L18.2165 19.2576C17.857 20.277 17.7072 20.3969 16.6289 20.3969L17.8307 21.5963Z" fill="#5FCF86"/>
<path d="M20.5703 12.0924L23.7696 14.6298L25.4383 10.1253C25.8323 9.11845 25.7414 9 24.6502 9H22.8316C21.7404 9 21.5889 9.11845 21.2251 10.1253L20.5703 12.0924Z" fill="#EA5C29"/>
</svg>
