<svg width="32" height="33" viewBox="0 0 32 33" fill="none" xmlns="http://www.w3.org/2000/svg">
<rect y="0.200195" width="32" height="32" rx="8" fill="white"/>
<rect y="0.200195" width="32" height="32" rx="8" fill="white"/>
<path d="M14.455 24.2006H16.6165C17.6972 24.2006 17.8173 24.0807 17.8173 23.0009V21.8012C17.8173 20.7214 17.8686 20.5628 19.0181 20.5952L18.2214 19.4718C17.8691 20.5269 17.6972 20.6015 16.6165 20.6015H16.0161C14.9354 20.6015 14.7853 20.4815 14.425 19.4617L11.393 10.3438C11.0327 9.32407 10.8826 9.2041 9.8019 9.2041H8.00068C6.91995 9.2041 6.82988 9.32407 7.19013 10.3438L11.2729 21.9212C11.7832 23.4208 12.894 24.2006 14.455 24.2006Z" fill="#1A1A31"/>
<path d="M17.8307 21.797C17.8307 20.7176 17.9469 20.5976 19.0252 20.5976H20.5229C21.6012 20.5976 21.751 20.4777 22.1404 19.4583L23.7694 14.8303L20.5701 12.293L18.2165 19.4583C17.857 20.4777 17.7072 20.5976 16.6289 20.5976L17.8307 21.797Z" fill="#5FCF86"/>
<path d="M20.5703 12.2926L23.7696 14.83L25.4383 10.3255C25.8323 9.31864 25.7414 9.2002 24.6502 9.2002H22.8316C21.7404 9.2002 21.5889 9.31864 21.2251 10.3255L20.5703 12.2926Z" fill="#EA5C29"/>
</svg>
