<svg width="32" height="32" viewBox="0 0 32 32" fill="none" xmlns="http://www.w3.org/2000/svg">
<rect width="32" height="32" rx="8" fill="white"/>
<rect width="32" height="32" rx="8" fill="white"/>
<path d="M14.455 24.0004H16.6165C17.6972 24.0004 17.8173 23.8805 17.8173 22.8007V21.601C17.8173 20.5212 17.8686 20.3626 19.0181 20.395L18.2214 19.2716C17.8691 20.3267 17.6972 20.4013 16.6165 20.4013H16.0161C14.9354 20.4013 14.7853 20.2813 14.425 19.2615L11.393 10.1436C11.0327 9.12388 10.8826 9.00391 9.8019 9.00391H8.00068C6.91995 9.00391 6.82988 9.12388 7.19013 10.1436L11.2729 21.721C11.7832 23.2206 12.894 24.0004 14.455 24.0004Z" fill="#1A1A31"/>
<path d="M17.8307 21.5968C17.8307 20.5174 17.9469 20.3974 19.0252 20.3974H20.5229C21.6012 20.3974 21.751 20.2775 22.1404 19.2581L23.7694 14.6301L20.5701 12.0928L18.2165 19.2581C17.857 20.2775 17.7072 20.3974 16.6289 20.3974L17.8307 21.5968Z" fill="#5FCF86"/>
<path d="M20.5703 12.0924L23.7696 14.6298L25.4383 10.1253C25.8323 9.11845 25.7414 9 24.6502 9H22.8316C21.7404 9 21.5889 9.11845 21.2251 10.1253L20.5703 12.0924Z" fill="#EA5C29"/>
</svg>
