<svg width="80" height="80" viewBox="0 0 80 80" fill="none" xmlns="http://www.w3.org/2000/svg">
<g filter="url(#filter0_d_44_46494)">
<path d="M5 29.8889C5 21.177 5 16.821 6.69545 13.4935C8.18682 10.5665 10.5665 8.18682 13.4935 6.69545C16.821 5 21.177 5 29.8889 5H50.1111C58.823 5 63.179 5 66.5065 6.69545C69.4335 8.18682 71.8132 10.5665 73.3045 13.4935C75 16.821 75 21.177 75 29.8889V50.1111C75 58.823 75 63.179 73.3045 66.5065C71.8132 69.4335 69.4335 71.8132 66.5065 73.3045C63.179 75 58.823 75 50.1111 75H29.8889C21.177 75 16.821 75 13.4935 73.3045C10.5665 71.8132 8.18682 69.4335 6.69545 66.5065C5 63.179 5 58.823 5 50.1111V29.8889Z" fill="white"/>
<path d="M61.2298 15H53.1016V26.7781H64.9952V18.3211C64.9985 18.3211 64.4075 15.3212 61.2298 15Z" fill="#1967D2"/>
<path d="M53.1055 64.9452V64.9741V64.9998L64.9992 53.2217H64.8926L53.1055 64.9452Z" fill="#1967D2"/>
<path d="M65.0001 53.2213V53.1157L64.8945 53.2213H65.0001Z" fill="#FBBC05"/>
<path d="M64.9992 26.7783H53.1055V53.1161H64.9992V26.7783Z" fill="#FBBC05"/>
<path d="M64.8926 53.2217H53.1055V64.9452L64.8926 53.2217Z" fill="#EA4335"/>
<path d="M53.1055 53.2213H64.8926L64.9992 53.1157H53.1055V53.2213Z" fill="#EA4335"/>
<path d="M53.0781 64.9741H53.1069V64.9453L53.0781 64.9741Z" fill="#34A853"/>
<path d="M26.625 53.1157V64.9741H53.0766L53.1057 53.1157H26.625Z" fill="#34A853"/>
<path d="M53.1069 53.2217V53.1157L53.0781 64.9741L53.1069 64.9452V53.2217Z" fill="#34A853"/>
<path d="M15 53.1157V61.3607C15.1066 64.0363 18.0001 64.9741 18.0001 64.9741H26.6257V53.1157H15Z" fill="#188038"/>
<path d="M26.6257 26.7781H53.1063V15H18.3359C18.3359 15 15.2131 15.3212 15 18.6391V53.1159H26.6257V26.7781Z" fill="#4285F4"/>
<path d="M35.2893 47.7847C34.6834 47.7847 34.0992 47.7058 33.5367 47.548C32.9886 47.3902 32.4837 47.1535 32.0221 46.8378C31.5605 46.5079 31.1494 46.099 30.7888 45.6112C30.4427 45.1234 30.1758 44.5567 29.9883 43.9111L32.6496 42.8566C32.8371 43.574 33.1544 44.1191 33.6016 44.4922C34.0488 44.8508 34.6113 45.0302 35.2893 45.0302C35.5922 45.0302 35.8807 44.9871 36.1547 44.901C36.4288 44.8006 36.6668 44.6643 36.8687 44.4922C37.0707 44.32 37.2293 44.1191 37.3447 43.8896C37.4746 43.6457 37.5395 43.3731 37.5395 43.0718C37.5395 42.4406 37.3015 41.9456 36.8255 41.587C36.3639 41.2283 35.722 41.049 34.8998 41.049H33.6232V38.4881H34.7916C35.0801 38.4881 35.3614 38.4522 35.6354 38.3805C35.9095 38.3088 36.1475 38.2012 36.3495 38.0577C36.5658 37.8999 36.7317 37.7062 36.8471 37.4767C36.9769 37.2328 37.0418 36.953 37.0418 36.6374C37.0418 36.1496 36.8687 35.7551 36.5225 35.4538C36.1764 35.1382 35.7076 34.9804 35.1162 34.9804C34.4815 34.9804 33.9911 35.1525 33.6449 35.4968C33.3131 35.8268 33.0823 36.1998 32.9525 36.6159L30.3561 35.5614C30.4859 35.2027 30.6807 34.8369 30.9403 34.4639C31.1999 34.0765 31.5245 33.7322 31.9139 33.4309C32.3178 33.1153 32.7866 32.8642 33.3203 32.6777C33.854 32.4769 34.4671 32.3765 35.1594 32.3765C35.8662 32.3765 36.5081 32.4769 37.0851 32.6777C37.6765 32.8786 38.1814 33.1584 38.5997 33.517C39.018 33.8613 39.3425 34.2774 39.5733 34.7652C39.8041 35.2386 39.9195 35.7551 39.9195 36.3146C39.9195 36.745 39.8618 37.1324 39.7464 37.4767C39.6454 37.821 39.5084 38.1294 39.3353 38.402C39.1622 38.6746 38.9603 38.9113 38.7295 39.1122C38.5131 39.2987 38.2895 39.4493 38.0587 39.5641V39.7363C38.7511 40.0088 39.3209 40.4464 39.768 41.049C40.2296 41.6515 40.4604 42.4119 40.4604 43.3301C40.4604 43.9757 40.3378 44.5711 40.0926 45.1162C39.8474 45.6471 39.494 46.1133 39.0324 46.515C38.5852 46.9167 38.0443 47.2252 37.4096 47.4404C36.775 47.6699 36.0682 47.7847 35.2893 47.7847Z" fill="#4285F4"/>
<path d="M45.6273 47.4404V36.0348L43.0093 37.1324L41.9707 34.7437L46.3197 32.7208H48.4617V47.4404H45.6273Z" fill="#4285F4"/>
</g>
<defs>
<filter id="filter0_d_44_46494" x="-2" y="-1" width="84" height="84" filterUnits="userSpaceOnUse" color-interpolation-filters="sRGB">
<feFlood flood-opacity="0" result="BackgroundImageFix"/>
<feColorMatrix in="SourceAlpha" type="matrix" values="0 0 0 0 0 0 0 0 0 0 0 0 0 0 0 0 0 0 127 0" result="hardAlpha"/>
<feOffset dy="1"/>
<feGaussianBlur stdDeviation="1"/>
<feColorMatrix type="matrix" values="0 0 0 0 0.0627451 0 0 0 0 0.0941176 0 0 0 0 0.156863 0 0 0 0.05 0"/>
<feBlend mode="normal" in2="BackgroundImageFix" result="effect1_dropShadow_44_46494"/>
<feBlend mode="normal" in="SourceGraphic" in2="effect1_dropShadow_44_46494" result="shape"/>
</filter>
</defs>
</svg>
