<svg width="80" height="80" viewBox="0 0 80 80" fill="none" xmlns="http://www.w3.org/2000/svg">
<g filter="url(#filter0_d_44_46483)">
<path d="M5 29.8889C5 21.177 5 16.821 6.69545 13.4935C8.18682 10.5665 10.5665 8.18682 13.4935 6.69545C16.821 5 21.177 5 29.8889 5H50.1111C58.823 5 63.179 5 66.5065 6.69545C69.4335 8.18682 71.8132 10.5665 73.3045 13.4935C75 16.821 75 21.177 75 29.8889V50.1111C75 58.823 75 63.179 73.3045 66.5065C71.8132 69.4335 69.4335 71.8132 66.5065 73.3045C63.179 75 58.823 75 50.1111 75H29.8889C21.177 75 16.821 75 13.4935 73.3045C10.5665 71.8132 8.18682 69.4335 6.69545 66.5065C5 63.179 5 58.823 5 50.1111V29.8889Z" fill="white"/>
<path d="M40.0067 31.1272L31.3545 15.8579C31.6418 15.5654 31.9723 15.3736 32.3028 15.2446C29.7513 16.0844 28.5806 18.9495 28.5806 18.9495L12.7743 46.8368C12.5519 47.7111 12.4901 48.5006 12.5179 49.1956H29.7699L40.0067 31.1272Z" fill="#34A853"/>
<path d="M40.0039 31.1272L50.2408 49.1956H67.4927C67.5205 48.5006 67.4587 47.7111 67.2363 46.8368L51.43 18.9495C51.43 18.9495 50.2562 16.0844 47.7078 15.2446C48.0352 15.3736 48.3688 15.5654 48.6561 15.8579L40.0039 31.1272Z" fill="#FBBC05"/>
<path d="M40.0038 31.1281L48.656 15.8588C48.3687 15.5663 48.0351 15.3744 47.7077 15.2455C47.3308 15.1228 46.9262 15.0411 46.4875 15.019H46.0304H33.9772H33.52C33.0845 15.0379 32.6767 15.1197 32.2999 15.2455C31.9724 15.3744 31.6388 15.5663 31.3516 15.8588L40.0038 31.1281Z" fill="#188038"/>
<path d="M29.7706 49.1958L21.2172 64.2921C21.2172 64.2921 20.933 64.1537 20.5469 63.8675C21.7608 64.8016 22.9408 64.9998 22.9408 64.9998H56.5334C58.3868 64.9998 58.7729 64.2921 58.7729 64.2921C58.7791 64.289 58.7822 64.2858 58.7884 64.2827L50.2412 49.1958H29.7706Z" fill="#4285F4"/>
<path d="M29.7714 49.1958H12.5195C12.606 51.2464 13.4956 52.4447 13.4956 52.4447L14.1443 53.5706C14.1907 53.6366 14.2185 53.6744 14.2185 53.6744L15.6301 56.1527L18.7994 61.6691C18.8921 61.8924 19.0002 62.0969 19.1145 62.2919C19.1577 62.3579 19.1979 62.4302 19.2442 62.4931C19.2566 62.512 19.2689 62.5309 19.2813 62.5498C19.6736 63.1033 20.1122 63.531 20.5509 63.8675C20.937 64.1569 21.2212 64.2921 21.2212 64.2921L29.7714 49.1958Z" fill="#1967D2"/>
<path d="M50.2422 49.1958H67.4941C67.4076 51.2464 66.518 52.4447 66.518 52.4447L65.8693 53.5706C65.823 53.6366 65.7952 53.6744 65.7952 53.6744L64.3835 56.1527L61.2142 61.6691C61.1215 61.8924 61.0134 62.0969 60.8991 62.2919C60.8559 62.3579 60.8157 62.4302 60.7694 62.4931C60.757 62.512 60.7447 62.5309 60.7323 62.5498C60.34 63.1033 59.9014 63.531 59.4628 63.8675C59.0766 64.1569 58.7925 64.2921 58.7925 64.2921L50.2422 49.1958Z" fill="#EA4335"/>
</g>
<defs>
<filter id="filter0_d_44_46483" x="-2" y="-1" width="84" height="84" filterUnits="userSpaceOnUse" color-interpolation-filters="sRGB">
<feFlood flood-opacity="0" result="BackgroundImageFix"/>
<feColorMatrix in="SourceAlpha" type="matrix" values="0 0 0 0 0 0 0 0 0 0 0 0 0 0 0 0 0 0 127 0" result="hardAlpha"/>
<feOffset dy="1"/>
<feGaussianBlur stdDeviation="1"/>
<feColorMatrix type="matrix" values="0 0 0 0 0.0627451 0 0 0 0 0.0941176 0 0 0 0 0.156863 0 0 0 0.05 0"/>
<feBlend mode="normal" in2="BackgroundImageFix" result="effect1_dropShadow_44_46483"/>
<feBlend mode="normal" in="SourceGraphic" in2="effect1_dropShadow_44_46483" result="shape"/>
</filter>
</defs>
</svg>
