<svg width="649" height="127" viewBox="0 0 649 127" fill="none" xmlns="http://www.w3.org/2000/svg">
<path d="M21.3986 0.370117C27.9147 0.370117 32.9828 1.33012 36.6029 3.25012C40.1425 5.17012 41.9928 7.93012 41.9928 11.4101C41.9928 14.0501 41.0274 16.1501 39.0967 17.7101C37.166 19.3301 34.4309 20.3501 30.8912 20.8301C35.0744 21.2501 38.2923 22.2701 40.5448 23.8301C42.7972 25.4501 44.0039 27.6701 44.0039 30.5501C44.0039 34.2701 42.0732 37.1501 38.3727 39.2501C34.5918 41.3501 29.2823 42.3701 22.4444 42.3701H0V0.370117H21.3986ZM12.0669 17.6501H21.7204C24.2947 17.6501 26.3058 17.2301 27.7538 16.2701C29.2019 15.3701 29.9259 14.1101 29.9259 12.5501C29.9259 10.9901 29.2019 9.79012 27.7538 8.83012C26.3058 7.93012 24.2947 7.45012 21.7204 7.45012H12.0669V17.6501ZM12.0669 35.2301H22.5249C25.4209 35.2301 27.593 34.8101 29.2019 33.8501C30.8108 32.9501 31.6152 31.6901 31.6152 30.0101C31.6152 28.3301 30.8108 27.0101 29.2019 26.0501C27.593 25.0901 25.3405 24.6101 22.5249 24.6101H12.0669V35.2301Z" fill="black"/>
<path d="M88.449 11.5301V42.3701H78.3933L77.3475 38.6501C75.8995 39.9701 74.2101 40.9301 72.2794 41.6501C70.3487 42.3701 67.9353 42.7301 65.2002 42.7301C60.3734 42.7301 56.4316 41.6501 53.3746 39.4301C50.3177 37.2101 48.7892 33.4901 48.7892 28.2701V11.5301H60.1321V27.2501C60.1321 30.0701 60.7756 32.1701 62.0628 33.6101C63.3499 35.0501 65.4415 35.7101 68.1767 35.7101C70.9923 35.7101 73.1643 34.9301 74.7732 33.3701C76.3017 31.8101 77.1062 29.5901 77.1062 26.7101V11.5301H88.449Z" fill="black"/>
<path d="M102.771 11.5301L112.827 33.6701L122.641 11.5301H134.788L116.447 46.7501C115.481 48.6701 114.516 50.1101 113.712 51.1901C112.827 52.2701 111.7 53.0501 110.413 53.5901C109.126 54.1301 107.437 54.3701 105.345 54.3701H94.3241V47.2301H100.599C102.047 47.2301 103.093 47.0501 103.736 46.6901C104.38 46.3301 104.943 45.6701 105.587 44.5901L106.632 42.5501L90.704 11.5301H102.771Z" fill="black"/>
<path d="M151.436 11.5301H163.423L171.709 33.2501L179.512 11.5301H189.729L197.29 33.3101L205.737 11.5301H217.322L203.726 42.3701H191.659L184.419 23.7701L177.018 42.3701H164.951L151.436 11.5301Z" fill="black"/>
<path d="M255.239 14.5301C258.376 16.8101 259.985 20.4701 259.985 25.6301V42.3701H248.642V25.9901C248.642 23.4701 247.918 21.4901 246.55 20.1701C245.102 18.8501 243.011 18.1301 240.276 18.1301C237.38 18.1301 235.047 18.9101 233.438 20.3501C231.829 21.8501 231.024 23.8901 231.024 26.5301V42.3701H219.681V0.370117H231.024V15.3101C234.081 12.5501 238.104 11.1701 243.252 11.1701C248.079 11.1701 252.101 12.3101 255.239 14.5301Z" fill="black"/>
<path d="M306.229 35.2301V42.3701H300.437C295.208 42.3701 292.633 40.6901 292.794 37.3301C291.266 39.1301 289.416 40.4501 287.243 41.3501C284.991 42.3101 282.336 42.7301 279.279 42.7301C274.613 42.7301 270.913 41.9501 268.097 40.3901C265.282 38.8301 263.914 36.5501 263.914 33.6701C263.914 30.4301 265.523 27.9101 268.741 26.1101C271.959 24.3101 276.705 23.4101 282.899 23.4101H291.105V21.9101C291.105 20.5301 290.381 19.4501 289.013 18.6101C287.565 17.7701 285.715 17.3501 283.382 17.3501C281.291 17.3501 279.521 17.7101 278.234 18.3701C276.866 19.0901 276.061 19.9901 275.82 21.1301H264.88C265.201 18.0101 267.132 15.5501 270.511 13.8101C273.889 12.0701 278.314 11.1701 283.945 11.1701C289.737 11.1701 294.242 12.1301 297.46 14.0501C300.678 15.9701 302.287 18.7901 302.287 22.3901V33.2501C302.287 34.0301 302.448 34.5701 302.93 34.8101C303.333 35.1101 303.976 35.2301 304.942 35.2301H306.229ZM291.105 29.0501H282.819C280.406 29.0501 278.555 29.4101 277.268 30.1301C275.981 30.8501 275.337 31.8101 275.337 33.0701C275.337 34.1501 275.82 35.0501 276.946 35.6501C278.073 36.3101 279.521 36.6101 281.451 36.6101C284.347 36.6101 286.68 36.0101 288.45 34.7501C290.14 33.4901 291.024 31.8101 291.105 29.6501V29.0501Z" fill="black"/>
<path d="M311.663 18.6701H304.825V11.5301H311.663V2.89012H323.005V11.5301H332.418V18.6701H323.005V32.1701C323.005 33.2501 323.247 34.0301 323.89 34.5101C324.534 34.9901 325.58 35.2301 327.028 35.2301H332.9V42.3701H323.488C315.604 42.3701 311.663 39.4301 311.663 33.5501V18.6701Z" fill="black"/>
<path d="M362.464 11.5301L372.519 33.6701L382.334 11.5301H394.481L376.139 46.7501C375.174 48.6701 374.209 50.1101 373.404 51.1901C372.519 52.2701 371.393 53.0501 370.106 53.5901C368.819 54.1301 367.129 54.3701 365.038 54.3701H354.017V47.2301H360.292C361.74 47.2301 362.785 47.0501 363.429 46.6901C364.073 46.3301 364.636 45.6701 365.279 44.5901L366.325 42.5501L350.397 11.5301H362.464Z" fill="black"/>
<path d="M403.842 40.8101C400.544 39.4901 397.97 37.6301 396.2 35.2301C394.43 32.8301 393.545 30.0701 393.545 26.9501C393.545 23.8301 394.43 21.0701 396.2 18.6701C397.97 16.2701 400.544 14.4701 403.842 13.1501C407.141 11.8301 411.002 11.1701 415.346 11.1701C419.69 11.1701 423.471 11.8301 426.769 13.1501C430.068 14.4701 432.642 16.2701 434.412 18.6701C436.182 21.0701 437.147 23.8301 437.147 26.9501C437.147 30.1301 436.182 32.8901 434.412 35.2901C432.642 37.6901 430.068 39.4901 426.769 40.8101C423.471 42.1301 419.69 42.7301 415.346 42.7301C411.002 42.7301 407.141 42.1301 403.842 40.8101ZM422.828 33.3701C424.678 31.7501 425.643 29.5901 425.643 26.9501C425.643 24.3101 424.678 22.2101 422.828 20.5301C420.977 18.9101 418.483 18.0701 415.346 18.0701C412.209 18.0701 409.715 18.9101 407.865 20.5301C406.014 22.2101 405.129 24.3101 405.129 26.9501C405.129 29.5901 406.014 31.7501 407.865 33.3701C409.715 35.0501 412.209 35.8301 415.346 35.8301C418.483 35.8301 420.977 35.0501 422.828 33.3701Z" fill="black"/>
<path d="M480.717 11.5301V42.3701H470.661L469.616 38.6501C468.168 39.9701 466.478 40.9301 464.548 41.6501C462.617 42.3701 460.203 42.7301 457.468 42.7301C452.642 42.7301 448.7 41.6501 445.643 39.4301C442.586 37.2101 441.057 33.4901 441.057 28.2701V11.5301H452.4V27.2501C452.4 30.0701 453.044 32.1701 454.331 33.6101C455.618 35.0501 457.71 35.7101 460.445 35.7101C463.26 35.7101 465.432 34.9301 467.041 33.3701C468.57 31.8101 469.374 29.5901 469.374 26.7101V11.5301H480.717Z" fill="black"/>
<path d="M505.34 0.370117H516.683V42.3701H505.34V0.370117Z" fill="black"/>
<path d="M531.667 40.8101C528.368 39.4901 525.794 37.6301 524.024 35.2301C522.254 32.8301 521.369 30.0701 521.369 26.9501C521.369 23.8301 522.254 21.0701 524.024 18.6701C525.794 16.2701 528.368 14.4701 531.667 13.1501C534.965 11.8301 538.826 11.1701 543.17 11.1701C547.514 11.1701 551.295 11.8301 554.594 13.1501C557.892 14.4701 560.466 16.2701 562.236 18.6701C564.006 21.0701 564.971 23.8301 564.971 26.9501C564.971 30.1301 564.006 32.8901 562.236 35.2901C560.466 37.6901 557.892 39.4901 554.594 40.8101C551.295 42.1301 547.514 42.7301 543.17 42.7301C538.826 42.7301 534.965 42.1301 531.667 40.8101ZM550.652 33.3701C552.502 31.7501 553.467 29.5901 553.467 26.9501C553.467 24.3101 552.502 22.2101 550.652 20.5301C548.801 18.9101 546.308 18.0701 543.17 18.0701C540.033 18.0701 537.539 18.9101 535.689 20.5301C533.839 22.2101 532.954 24.3101 532.954 26.9501C532.954 29.5901 533.839 31.7501 535.689 33.3701C537.539 35.0501 540.033 35.8301 543.17 35.8301C546.308 35.8301 548.801 35.0501 550.652 33.3701Z" fill="black"/>
<path d="M564.012 11.5301H576.159L586.135 33.7301L595.949 11.5301H607.855L592.973 42.3701H578.895L564.012 11.5301Z" fill="black"/>
<path d="M609.421 18.6701C611.19 16.2701 613.604 14.4701 616.741 13.1501C619.879 11.8301 623.499 11.1701 627.682 11.1701C631.865 11.1701 635.485 11.8301 638.703 13.0301C641.921 14.2301 644.415 15.9701 646.184 18.1901C647.954 20.4101 648.92 22.9901 649 25.9901C649 27.0701 648.839 28.0301 648.678 28.8701H618.672V29.1101C618.913 31.3901 619.879 33.1301 621.568 34.3901C623.177 35.7101 625.51 36.3101 628.406 36.3101C630.658 36.3101 632.589 35.9501 634.118 35.2301C635.646 34.5101 636.692 33.3701 637.174 31.9301H648.356C647.874 33.9701 646.828 35.8301 645.219 37.4501C643.53 39.1301 641.358 40.3901 638.622 41.3501C635.887 42.3101 632.75 42.7301 629.21 42.7301C624.544 42.7301 620.603 42.1301 617.224 40.8101C613.845 39.5501 611.271 37.7501 609.501 35.3501C607.731 32.9501 606.846 30.1901 606.846 27.0101C606.846 23.8301 607.651 21.0701 609.421 18.6701ZM637.657 23.3501C637.255 21.4901 636.209 20.0501 634.52 19.0301C632.83 18.0101 630.739 17.4701 628.165 17.4701C625.671 17.4701 623.579 18.0101 621.89 19.0901C620.2 20.1701 619.235 21.5501 618.913 23.3501H637.657Z" fill="black"/>
<path d="M111.863 86.5301C114.92 88.8101 116.529 92.4701 116.529 97.6301V114.37H105.186V98.1101C105.186 92.8301 102.37 90.1301 96.8195 90.1301C93.843 90.1301 91.5905 90.9101 89.9816 92.3501C88.3727 93.8501 87.5682 95.9501 87.5682 98.5901V114.37H76.2253V83.5301H86.1202L87.166 87.3701C88.614 86.0501 90.3034 85.0301 92.395 84.3101C94.4061 83.5901 96.8999 83.1701 99.9569 83.1701C104.784 83.1701 108.726 84.3101 111.863 86.5301Z" fill="black"/>
<path d="M130.755 112.81C127.457 111.49 124.883 109.63 123.113 107.23C121.343 104.83 120.458 102.07 120.458 98.9501C120.458 95.8301 121.343 93.0701 123.113 90.6701C124.883 88.2701 127.457 86.4701 130.755 85.1501C134.053 83.8301 137.915 83.1701 142.259 83.1701C146.603 83.1701 150.384 83.8301 153.682 85.1501C156.98 86.4701 159.555 88.2701 161.325 90.6701C163.094 93.0701 164.06 95.8301 164.06 98.9501C164.06 102.13 163.094 104.89 161.325 107.29C159.555 109.69 156.98 111.49 153.682 112.81C150.384 114.13 146.603 114.73 142.259 114.73C137.915 114.73 134.053 114.13 130.755 112.81ZM149.74 105.37C151.591 103.75 152.556 101.59 152.556 98.9501C152.556 96.3101 151.591 94.2101 149.74 92.5301C147.89 90.9101 145.396 90.0701 142.259 90.0701C139.121 90.0701 136.628 90.9101 134.777 92.5301C132.927 94.2101 132.042 96.3101 132.042 98.9501C132.042 101.59 132.927 103.75 134.777 105.37C136.628 107.05 139.121 107.83 142.259 107.83C145.396 107.83 147.89 107.05 149.74 105.37Z" fill="black"/>
<path d="M163.574 83.5301H175.56L183.846 105.25L191.65 83.5301H201.866L209.428 105.31L217.875 83.5301H229.459L215.864 114.37H203.797L196.557 95.7701L189.156 114.37H177.089L163.574 83.5301Z" fill="black"/>
<path d="M229.253 106.15C230.54 105.19 232.149 104.71 234.16 104.71C236.091 104.71 237.7 105.19 238.987 106.15C240.274 107.11 240.998 108.31 240.998 109.75C240.998 111.19 240.274 112.39 238.987 113.35C237.7 114.31 236.091 114.73 234.16 114.73C232.149 114.73 230.54 114.31 229.253 113.35C227.966 112.39 227.322 111.19 227.322 109.75C227.322 108.31 227.966 107.11 229.253 106.15Z" fill="black"/>
<path d="M288.63 72.3701C292.652 72.3701 296.192 72.9701 299.249 74.1101C302.305 75.2501 304.719 76.8701 306.408 78.9701C308.098 81.1301 308.982 83.5901 308.982 86.3501C308.982 89.1701 308.098 91.6301 306.408 93.7301C304.719 95.8301 302.305 97.4501 299.249 98.5901C296.192 99.7301 292.652 100.27 288.63 100.27H277.769V114.37H265.703V72.3701H288.63ZM277.769 92.7701H287.503C290.319 92.7701 292.571 92.2301 294.261 91.0301C295.87 89.8901 296.755 88.3301 296.755 86.3501C296.755 84.3701 295.87 82.8101 294.261 81.6101C292.571 80.4701 290.319 79.8701 287.503 79.8701H277.769V92.7701Z" fill="black"/>
<path d="M351.522 107.23V114.37H345.73C340.501 114.37 337.927 112.69 338.088 109.33C336.559 111.13 334.709 112.45 332.537 113.35C330.284 114.31 327.63 114.73 324.573 114.73C319.907 114.73 316.206 113.95 313.391 112.39C310.575 110.83 309.207 108.55 309.207 105.67C309.207 102.43 310.816 99.9101 314.034 98.1101C317.252 96.3101 321.998 95.4101 328.193 95.4101H336.398V93.9101C336.398 92.5301 335.674 91.4501 334.307 90.6101C332.859 89.7701 331.008 89.3501 328.675 89.3501C326.584 89.3501 324.814 89.7101 323.527 90.3701C322.159 91.0901 321.355 91.9901 321.113 93.1301H310.173C310.495 90.0101 312.425 87.5501 315.804 85.8101C319.183 84.0701 323.607 83.1701 329.238 83.1701C335.031 83.1701 339.536 84.1301 342.753 86.0501C345.971 87.9701 347.58 90.7901 347.58 94.3901V105.25C347.58 106.03 347.741 106.57 348.224 106.81C348.626 107.11 349.27 107.23 350.235 107.23H351.522ZM336.398 101.05H328.112C325.699 101.05 323.849 101.41 322.561 102.13C321.274 102.85 320.631 103.81 320.631 105.07C320.631 106.15 321.113 107.05 322.24 107.65C323.366 108.31 324.814 108.61 326.745 108.61C329.641 108.61 331.974 108.01 333.743 106.75C335.433 105.49 336.318 103.81 336.398 101.65V101.05Z" fill="black"/>
<path d="M360.932 83.5301L370.987 105.67L380.802 83.5301H392.949L374.608 118.75C373.642 120.67 372.677 122.11 371.872 123.19C370.987 124.27 369.861 125.05 368.574 125.59C367.287 126.13 365.598 126.37 363.506 126.37H352.485V119.23H358.76C360.208 119.23 361.253 119.05 361.897 118.69C362.541 118.33 363.104 117.67 363.747 116.59L364.793 114.55L348.865 83.5301H360.932Z" fill="black"/>
<path d="M413.539 72.3701H424.882V114.37H413.539V72.3701Z" fill="black"/>
<path d="M471.883 107.23V114.37H466.091C460.862 114.37 458.288 112.69 458.448 109.33C456.92 111.13 455.07 112.45 452.898 113.35C450.645 114.31 447.99 114.73 444.934 114.73C440.268 114.73 436.567 113.95 433.751 112.39C430.936 110.83 429.568 108.55 429.568 105.67C429.568 102.43 431.177 99.9101 434.395 98.1101C437.613 96.3101 442.359 95.4101 448.554 95.4101H456.759V93.9101C456.759 92.5301 456.035 91.4501 454.667 90.6101C453.219 89.7701 451.369 89.3501 449.036 89.3501C446.945 89.3501 445.175 89.7101 443.888 90.3701C442.52 91.0901 441.716 91.9901 441.474 93.1301H430.534C430.855 90.0101 432.786 87.5501 436.165 85.8101C439.544 84.0701 443.968 83.1701 449.599 83.1701C455.391 83.1701 459.896 84.1301 463.114 86.0501C466.332 87.9701 467.941 90.7901 467.941 94.3901V105.25C467.941 106.03 468.102 106.57 468.585 106.81C468.987 107.11 469.63 107.23 470.596 107.23H471.883ZM456.759 101.05H448.473C446.06 101.05 444.21 101.41 442.922 102.13C441.635 102.85 440.992 103.81 440.992 105.07C440.992 106.15 441.474 107.05 442.601 107.65C443.727 108.31 445.175 108.61 447.106 108.61C450.002 108.61 452.335 108.01 454.104 106.75C455.794 105.49 456.679 103.81 456.759 101.65V101.05Z" fill="black"/>
<path d="M477.317 90.6701H470.479V83.5301H477.317V74.8901H488.66V83.5301H498.072V90.6701H488.66V104.17C488.66 105.25 488.901 106.03 489.545 106.51C490.188 106.99 491.234 107.23 492.682 107.23H498.554V114.37H489.142C481.259 114.37 477.317 111.43 477.317 105.55V90.6701Z" fill="black"/>
<path d="M502.065 90.6701C503.834 88.2701 506.248 86.4701 509.385 85.1501C512.523 83.8301 516.143 83.1701 520.326 83.1701C524.509 83.1701 528.129 83.8301 531.347 85.0301C534.565 86.2301 537.059 87.9701 538.828 90.1901C540.598 92.4101 541.564 94.9901 541.644 97.9901C541.644 99.0701 541.483 100.03 541.322 100.87H511.316V101.11C511.557 103.39 512.523 105.13 514.212 106.39C515.821 107.71 518.154 108.31 521.05 108.31C523.302 108.31 525.233 107.95 526.762 107.23C528.29 106.51 529.336 105.37 529.818 103.93H541C540.518 105.97 539.472 107.83 537.863 109.45C536.174 111.13 534.002 112.39 531.266 113.35C528.531 114.31 525.394 114.73 521.854 114.73C517.188 114.73 513.247 114.13 509.868 112.81C506.489 111.55 503.915 109.75 502.145 107.35C500.375 104.95 499.49 102.19 499.49 99.0101C499.49 95.8301 500.295 93.0701 502.065 90.6701ZM530.301 95.3501C529.899 93.4901 528.853 92.0501 527.164 91.0301C525.474 90.0101 523.383 89.4701 520.809 89.4701C518.315 89.4701 516.223 90.0101 514.534 91.0901C512.844 92.1701 511.879 93.5501 511.557 95.3501H530.301Z" fill="black"/>
<path d="M571.413 83.5301V91.2101H566.908C563.691 91.2101 561.277 91.9301 559.829 93.3701C558.301 94.8101 557.577 96.7901 557.577 99.2501V114.37H546.234V83.5301H556.531L557.577 88.1501C558.783 86.6501 560.312 85.5101 562.162 84.7301C563.932 83.9501 566.426 83.5301 569.483 83.5301H571.413Z" fill="black"/>
</svg>
