<svg width="16" height="17" viewBox="0 0 16 17" fill="none" xmlns="http://www.w3.org/2000/svg">
<g clip-path="url(#clip0_321_131341)">
<path d="M6.0587 6.19987C6.21543 5.75432 6.5248 5.37861 6.932 5.13929C7.3392 4.89998 7.81796 4.8125 8.28348 4.89234C8.749 4.97219 9.17124 5.21422 9.47542 5.57556C9.77959 5.93689 9.94607 6.39422 9.94536 6.86654C9.94536 8.19987 7.94536 8.86654 7.94536 8.86654M7.9987 11.5332H8.00536M14.6654 8.19987C14.6654 11.8818 11.6806 14.8665 7.9987 14.8665C4.3168 14.8665 1.33203 11.8818 1.33203 8.19987C1.33203 4.51797 4.3168 1.5332 7.9987 1.5332C11.6806 1.5332 14.6654 4.51797 14.6654 8.19987Z" stroke="#98A2B3" stroke-width="1.33333" stroke-linecap="round" stroke-linejoin="round"/>
</g>
<defs>
<clipPath id="clip0_321_131341">
<rect width="16" height="16" fill="white" transform="translate(0 0.200195)"/>
</clipPath>
</defs>
</svg>
