<svg width="100" height="33" viewBox="0 0 100 33" fill="none" xmlns="http://www.w3.org/2000/svg">
<path d="M0 10.3608H2.0901L5.74778 19.9287L9.3817 10.3608H11.4243L6.88783 22.0625H4.53647L0 10.3608Z" fill="#1A1A31"/>
<path d="M12.8781 10.3608H14.8257V22.0625H12.8781V10.3608Z" fill="#1A1A31"/>
<path d="M19.0139 18.2078C19.0456 18.9115 19.3623 19.4851 19.964 19.9287C20.5815 20.3723 21.3732 20.5941 22.3391 20.5941C23.1941 20.5941 23.8829 20.4335 24.4054 20.1122C24.9438 19.7757 25.213 19.3398 25.213 18.8044C25.213 18.3455 25.0863 17.9937 24.8329 17.749C24.5796 17.5042 24.2471 17.336 23.8354 17.2442C23.4395 17.1524 22.8695 17.0606 22.1253 16.9688C21.0803 16.8465 20.2252 16.6859 19.5602 16.487C18.8952 16.2881 18.3568 15.9746 17.9451 15.5463C17.5334 15.1027 17.3276 14.4985 17.3276 13.7337C17.3276 13.0453 17.5255 12.4335 17.9214 11.8981C18.333 11.3627 18.8872 10.9497 19.5839 10.6591C20.2806 10.3532 21.0644 10.2002 21.9353 10.2002C23.3604 10.2002 24.5163 10.5214 25.403 11.1639C26.3055 11.8063 26.8043 12.7241 26.8993 13.9172H24.9517C24.8725 13.3054 24.5638 12.8006 24.0254 12.4029C23.487 12.0052 22.8141 11.8063 22.0066 11.8063C21.1832 11.8063 20.5181 11.9746 20.0115 12.3111C19.5048 12.6323 19.2514 13.0606 19.2514 13.596C19.2514 13.9937 19.3702 14.2996 19.6077 14.5138C19.8452 14.7279 20.146 14.8732 20.5102 14.9497C20.8903 15.0262 21.4603 15.1103 22.2203 15.2021C23.2812 15.3245 24.1521 15.4927 24.8329 15.7069C25.5296 15.921 26.0838 16.2652 26.4955 16.7394C26.923 17.2136 27.1368 17.856 27.1368 18.6667C27.1368 19.3704 26.923 19.9899 26.4955 20.5252C26.068 21.0606 25.4901 21.4736 24.7617 21.7642C24.0333 22.0549 23.2258 22.2002 22.3391 22.2002C20.7557 22.2002 19.481 21.8484 18.5151 21.1447C17.5651 20.4411 17.0821 19.4621 17.0663 18.2078H19.0139Z" fill="#1A1A31"/>
<path d="M40.6755 20.3417V22.0625H39.6067C38.8308 22.0625 38.2766 21.9096 37.9441 21.6036C37.6116 21.2977 37.4374 20.8465 37.4216 20.2499C36.4874 21.5501 35.1336 22.2002 33.3602 22.2002C32.0143 22.2002 30.9296 21.8943 30.1063 21.2824C29.2987 20.6706 28.8949 19.8369 28.8949 18.7815C28.8949 17.6036 29.3066 16.7012 30.13 16.074C30.9692 15.4468 32.1805 15.1333 33.7639 15.1333H37.3266V14.3302C37.3266 13.5654 37.0574 12.9688 36.5191 12.5405C35.9965 12.1122 35.2603 11.8981 34.3102 11.8981C33.471 11.8981 32.7743 12.0816 32.2201 12.4488C31.6817 12.8006 31.3492 13.2748 31.2226 13.8713H29.275C29.4175 12.7241 29.94 11.8293 30.8425 11.1868C31.7609 10.5444 32.9485 10.2231 34.4052 10.2231C35.957 10.2231 37.1524 10.5903 37.9916 11.3245C38.8467 12.0434 39.2742 13.0836 39.2742 14.4449V19.4927C39.2742 20.0587 39.5434 20.3417 40.0817 20.3417H40.6755ZM37.3266 16.7164H33.5739C31.7688 16.7164 30.8663 17.3665 30.8663 18.6667C30.8663 19.248 31.1038 19.7145 31.5788 20.0664C32.0538 20.4182 32.6951 20.5941 33.5027 20.5941C34.6902 20.5941 35.6244 20.2958 36.3053 19.6992C36.9862 19.0874 37.3266 18.2843 37.3266 17.2901V16.7164Z" fill="#1A1A31"/>
<path d="M48.3243 10.3608V12.1964H47.3505C46.1946 12.1964 45.3633 12.5711 44.8566 13.3207C44.3658 14.0702 44.1204 14.9956 44.1204 16.0969V22.0625H42.1728V10.3608H43.8591L44.1204 12.1275C44.4687 11.5922 44.92 11.1639 45.4742 10.8426C46.0284 10.5214 46.7963 10.3608 47.778 10.3608H48.3243Z" fill="#1A1A31"/>
<path d="M54.991 22.2002C53.8192 22.2002 52.7742 21.9478 51.8558 21.443C50.9533 20.9382 50.2486 20.2346 49.742 19.3321C49.2353 18.4296 48.9819 17.3895 48.9819 16.2117C48.9819 15.0338 49.2353 13.9937 49.742 13.0912C50.2486 12.1887 50.9533 11.4851 51.8558 10.9803C52.7742 10.4755 53.8192 10.2231 54.991 10.2231C56.1627 10.2231 57.1998 10.4755 58.1024 10.9803C59.0207 11.4851 59.7333 12.1887 60.24 13.0912C60.7467 13.9937 61 15.0338 61 16.2117C61 17.3895 60.7467 18.4296 60.24 19.3321C59.7333 20.2346 59.0207 20.9382 58.1024 21.443C57.1998 21.9478 56.1627 22.2002 54.991 22.2002ZM54.991 20.5252C55.7827 20.5252 56.4794 20.3417 57.0811 19.9746C57.6986 19.6075 58.1736 19.095 58.5061 18.4373C58.8386 17.7795 59.0049 17.0377 59.0049 16.2117C59.0049 15.3857 58.8386 14.6438 58.5061 13.986C58.1736 13.3283 57.6986 12.8159 57.0811 12.4488C56.4794 12.0816 55.7827 11.8981 54.991 11.8981C54.1993 11.8981 53.4946 12.0816 52.8771 12.4488C52.2754 12.8159 51.8083 13.3283 51.4758 13.986C51.1433 14.6438 50.977 15.3857 50.977 16.2117C50.977 17.0377 51.1433 17.7795 51.4758 18.4373C51.8083 19.095 52.2754 19.6075 52.8771 19.9746C53.4946 20.3417 54.1993 20.5252 54.991 20.5252Z" fill="#1A1A31"/>
</svg>
