<svg width="100" height="32" viewBox="0 0 100 32" fill="none" xmlns="http://www.w3.org/2000/svg">
<path d="M0 10.1606H2.0901L5.74778 19.7285L9.3817 10.1606H11.4243L6.88783 21.8623H4.53647L0 10.1606Z" fill="#1A1A31"/>
<path d="M12.8781 10.1606H14.8257V21.8623H12.8781V10.1606Z" fill="#1A1A31"/>
<path d="M19.0139 18.0076C19.0456 18.7113 19.3623 19.2849 19.964 19.7285C20.5815 20.1721 21.3732 20.3939 22.3391 20.3939C23.1941 20.3939 23.8829 20.2333 24.4054 19.912C24.9438 19.5755 25.213 19.1396 25.213 18.6042C25.213 18.1453 25.0863 17.7935 24.8329 17.5488C24.5796 17.304 24.2471 17.1358 23.8354 17.044C23.4395 16.9522 22.8695 16.8604 22.1253 16.7686C21.0803 16.6463 20.2252 16.4857 19.5602 16.2868C18.8952 16.088 18.3568 15.7744 17.9451 15.3461C17.5334 14.9025 17.3276 14.2983 17.3276 13.5335C17.3276 12.8451 17.5255 12.2333 17.9214 11.6979C18.333 11.1625 18.8872 10.7495 19.5839 10.4589C20.2806 10.153 21.0644 10 21.9353 10C23.3604 10 24.5163 10.3212 25.403 10.9637C26.3055 11.6061 26.8043 12.5239 26.8993 13.717H24.9517C24.8725 13.1052 24.5638 12.6004 24.0254 12.2027C23.487 11.805 22.8141 11.6061 22.0066 11.6061C21.1832 11.6061 20.5181 11.7744 20.0115 12.1109C19.5048 12.4321 19.2514 12.8604 19.2514 13.3958C19.2514 13.7935 19.3702 14.0994 19.6077 14.3136C19.8452 14.5277 20.146 14.673 20.5102 14.7495C20.8903 14.826 21.4603 14.9101 22.2203 15.0019C23.2812 15.1243 24.1521 15.2925 24.8329 15.5067C25.5296 15.7208 26.0838 16.065 26.4955 16.5392C26.923 17.0134 27.1368 17.6558 27.1368 18.4665C27.1368 19.1702 26.923 19.7897 26.4955 20.325C26.068 20.8604 25.4901 21.2734 24.7617 21.5641C24.0333 21.8547 23.2258 22 22.3391 22C20.7557 22 19.481 21.6482 18.5151 20.9446C17.5651 20.2409 17.0821 19.262 17.0663 18.0076H19.0139Z" fill="#1A1A31"/>
<path d="M40.6755 20.1415V21.8623H39.6067C38.8308 21.8623 38.2766 21.7094 37.9441 21.4034C37.6116 21.0975 37.4374 20.6463 37.4216 20.0497C36.4874 21.3499 35.1336 22 33.3602 22C32.0143 22 30.9296 21.6941 30.1063 21.0822C29.2987 20.4704 28.8949 19.6367 28.8949 18.5813C28.8949 17.4034 29.3066 16.501 30.13 15.8738C30.9692 15.2467 32.1805 14.9331 33.7639 14.9331H37.3266V14.13C37.3266 13.3652 37.0574 12.7686 36.5191 12.3403C35.9965 11.912 35.2603 11.6979 34.3102 11.6979C33.471 11.6979 32.7743 11.8815 32.2201 12.2486C31.6817 12.6004 31.3492 13.0746 31.2226 13.6711H29.275C29.4175 12.5239 29.94 11.6291 30.8425 10.9866C31.7609 10.3442 32.9485 10.0229 34.4052 10.0229C35.957 10.0229 37.1524 10.3901 37.9916 11.1243C38.8467 11.8432 39.2742 12.8834 39.2742 14.2447V19.2925C39.2742 19.8585 39.5434 20.1415 40.0817 20.1415H40.6755ZM37.3266 16.5163H33.5739C31.7688 16.5163 30.8663 17.1663 30.8663 18.4665C30.8663 19.0478 31.1038 19.5143 31.5788 19.8662C32.0538 20.218 32.6951 20.3939 33.5027 20.3939C34.6902 20.3939 35.6244 20.0956 36.3053 19.499C36.9862 18.8872 37.3266 18.0841 37.3266 17.0899V16.5163Z" fill="#1A1A31"/>
<path d="M48.3243 10.1606V11.9962H47.3505C46.1946 11.9962 45.3633 12.3709 44.8566 13.1205C44.3658 13.87 44.1204 14.7954 44.1204 15.8967V21.8623H42.1728V10.1606H43.8591L44.1204 11.9273C44.4687 11.392 44.92 10.9637 45.4742 10.6424C46.0284 10.3212 46.7963 10.1606 47.778 10.1606H48.3243Z" fill="#1A1A31"/>
<path d="M54.991 22C53.8192 22 52.7742 21.7476 51.8558 21.2428C50.9533 20.7381 50.2486 20.0344 49.742 19.1319C49.2353 18.2294 48.9819 17.1893 48.9819 16.0115C48.9819 14.8337 49.2353 13.7935 49.742 12.891C50.2486 11.9885 50.9533 11.2849 51.8558 10.7801C52.7742 10.2753 53.8192 10.0229 54.991 10.0229C56.1627 10.0229 57.1998 10.2753 58.1024 10.7801C59.0207 11.2849 59.7333 11.9885 60.24 12.891C60.7467 13.7935 61 14.8337 61 16.0115C61 17.1893 60.7467 18.2294 60.24 19.1319C59.7333 20.0344 59.0207 20.7381 58.1024 21.2428C57.1998 21.7476 56.1627 22 54.991 22ZM54.991 20.325C55.7827 20.325 56.4794 20.1415 57.0811 19.7744C57.6986 19.4073 58.1736 18.8948 58.5061 18.2371C58.8386 17.5794 59.0049 16.8375 59.0049 16.0115C59.0049 15.1855 58.8386 14.4436 58.5061 13.7859C58.1736 13.1281 57.6986 12.6157 57.0811 12.2486C56.4794 11.8815 55.7827 11.6979 54.991 11.6979C54.1993 11.6979 53.4946 11.8815 52.8771 12.2486C52.2754 12.6157 51.8083 13.1281 51.4758 13.7859C51.1433 14.4436 50.977 15.1855 50.977 16.0115C50.977 16.8375 51.1433 17.5794 51.4758 18.2371C51.8083 18.8948 52.2754 19.4073 52.8771 19.7744C53.4946 20.1415 54.1993 20.325 54.991 20.325Z" fill="#1A1A31"/>
</svg>
