<svg width="65" height="64" viewBox="0 0 65 64" fill="none" xmlns="http://www.w3.org/2000/svg">
<path fill-rule="evenodd" clip-rule="evenodd" d="M32.5 6C29.0856 6 25.7047 6.67251 22.5502 7.97913C19.3958 9.28575 16.5296 11.2009 14.1152 13.6152C11.7009 16.0295 9.78576 18.8958 8.47914 22.0502C7.17251 25.2047 6.5 28.5856 6.5 32C6.5 35.4144 7.17251 38.7953 8.47913 41.9498C9.78575 45.1042 11.7009 47.9704 14.1152 50.3848C16.5295 52.7991 19.3958 54.7142 22.5502 56.0209C25.7047 57.3275 29.0856 58 32.5 58C35.9144 58 39.2953 57.3275 42.4498 56.0209C45.6042 54.7142 48.4704 52.7991 50.8848 50.3848C53.2991 47.9705 55.2142 45.1042 56.5209 41.9498C57.8275 38.7953 58.5 35.4144 58.5 32C58.5 28.5856 57.8275 25.2047 56.5209 22.0502C55.2142 18.8958 53.2991 16.0295 50.8848 13.6152C48.4705 11.2009 45.6042 9.28576 42.4498 7.97913C39.2953 6.67251 35.9144 6 32.5 6ZM20.2541 2.43585C24.1366 0.827699 28.2977 -2.86102e-06 32.5 0C36.7023 0 40.8635 0.827705 44.7459 2.43586C48.6283 4.04401 52.1559 6.40111 55.1274 9.37259C58.0989 12.3441 60.456 15.8717 62.0641 19.7541C63.6723 23.6366 64.5 27.7977 64.5 32C64.5 36.2023 63.6723 40.3635 62.0641 44.2459C60.456 48.1283 58.0989 51.6559 55.1274 54.6274C52.1559 57.5989 48.6283 59.956 44.7459 61.5641C40.8634 63.1723 36.7023 64 32.5 64C28.2977 64 24.1365 63.1723 20.2541 61.5641C16.3717 59.956 12.844 57.5989 9.87257 54.6274C6.9011 51.6559 4.544 48.1283 2.93585 44.2459C1.3277 40.3634 0.499998 36.2023 0.5 32C0.500002 27.7977 1.32771 23.6365 2.93586 19.7541C4.54401 15.8717 6.90112 12.344 9.8726 9.37257C12.8441 6.4011 16.3717 4.044 20.2541 2.43585Z" fill="#EEDAD8"/>
<path fill-rule="evenodd" clip-rule="evenodd" d="M29.5 3C29.5 1.34315 30.8431 0 32.5 0C39.2577 0 45.842 2.13936 51.3091 6.11146C56.7763 10.0836 60.8456 15.6845 62.9338 22.1115C65.0221 28.5384 65.0221 35.4616 62.9338 41.8885C60.8456 48.3155 56.7762 53.9164 51.3091 57.8885C49.9687 58.8624 48.0926 58.5653 47.1187 57.2248C46.1448 55.8844 46.442 54.0083 47.7824 53.0344C52.2245 49.8071 55.5308 45.2564 57.2275 40.0344C58.9242 34.8125 58.9242 29.1875 57.2275 23.9656C55.5308 18.7436 52.2245 14.1929 47.7824 10.9656C43.3404 7.73823 37.9907 6 32.5 6C30.8431 6 29.5 4.65685 29.5 3Z" fill="#EA5C29"/>
<path d="M35.6542 31.6698C36.8942 31.9098 37.9442 32.4698 38.8042 33.3498C39.6642 34.2098 40.0942 35.3198 40.0942 36.6798C40.0942 37.8598 39.7742 38.9098 39.1342 39.8298C38.5142 40.7298 37.6242 41.4298 36.4642 41.9298C35.3042 42.4298 33.9642 42.6798 32.4442 42.6798C30.1242 42.6798 28.2742 42.0898 26.8942 40.9098C25.5142 39.7098 24.8242 38.0798 24.8242 36.0198H27.4042C27.4242 37.3798 27.9042 38.4598 28.8442 39.2598C29.8042 40.0398 31.0542 40.4298 32.5942 40.4298C34.0142 40.4298 35.1842 40.0698 36.1042 39.3498C37.0442 38.6298 37.5142 37.6798 37.5142 36.4998C37.5142 35.3798 37.0642 34.4998 36.1642 33.8598C35.2642 33.2198 33.9942 32.8998 32.3542 32.8998H30.5542V30.7098H32.2042C33.7442 30.7098 34.9242 30.3698 35.7442 29.6898C36.5642 29.0098 36.9742 28.1198 36.9742 27.0198C36.9742 25.9598 36.5542 25.1198 35.7142 24.4998C34.8942 23.8798 33.8342 23.5698 32.5342 23.5698C31.1742 23.5698 30.0642 23.9198 29.2042 24.6198C28.3642 25.2998 27.9342 26.2298 27.9142 27.4098H25.3942C25.4142 25.5098 26.0642 24.0198 27.3442 22.9398C28.6242 21.8598 30.3242 21.3198 32.4442 21.3198C33.8842 21.3198 35.1442 21.5498 36.2242 22.0098C37.3042 22.4698 38.1242 23.1198 38.6842 23.9598C39.2642 24.7998 39.5542 25.7698 39.5542 26.8698C39.5542 28.1498 39.2042 29.2098 38.5042 30.0498C37.8042 30.8898 36.8542 31.4298 35.6542 31.6698Z" fill="#344054"/>
</svg>
