<svg width="24" height="25" viewBox="0 0 24 25" fill="none" xmlns="http://www.w3.org/2000/svg">
<path fill-rule="evenodd" clip-rule="evenodd" d="M12 0.200195C5.37527 0.200195 0 5.57547 0 12.2002C0 18.8249 5.37527 24.2002 12 24.2002C18.6117 24.2002 24 18.8249 24 12.2002C24 5.57547 18.6117 0.200195 12 0.200195ZM19.9262 5.73165C21.3579 7.47568 22.217 9.70127 22.243 12.1091C21.9046 12.044 18.5206 11.3542 15.1106 11.7837C15.0325 11.6145 14.9675 11.4323 14.8894 11.2501C14.6811 10.7555 14.4469 10.2479 14.2126 9.76637C17.9869 8.2306 19.705 6.01798 19.9262 5.73165ZM12 1.97026C14.603 1.97026 16.9848 2.9464 18.7939 4.54727C18.6117 4.80757 17.0629 6.87699 13.4186 8.24357C11.7397 5.15898 9.87855 2.63404 9.5922 2.24358C10.3601 2.06137 11.1671 1.97026 12 1.97026ZM7.63995 2.93338C7.91325 3.29781 9.73538 5.83577 11.4404 8.85527C6.65076 10.1308 2.42083 10.1048 1.96529 10.1048C2.62907 6.92905 4.77657 4.28696 7.63995 2.93338ZM1.74404 12.2132C1.74404 12.1091 1.74404 12.005 1.74404 11.9009C2.18655 11.9138 7.15835 11.9789 12.2733 10.4432C12.5727 11.0158 12.846 11.6015 13.1063 12.1871C12.9761 12.2262 12.8329 12.2653 12.7028 12.3043C7.41865 14.0093 4.60738 18.6687 4.3731 19.0592C2.7462 17.2501 1.74404 14.8423 1.74404 12.2132ZM12 22.4561C9.6312 22.4561 7.44469 21.6492 5.71367 20.2956C5.89588 19.9182 7.97827 15.9095 13.757 13.8922C13.783 13.8791 13.7961 13.8791 13.8221 13.8662C15.2668 17.6015 15.8525 20.7381 16.0087 21.6362C14.7722 22.1698 13.4186 22.4561 12 22.4561ZM17.7136 20.6991C17.6096 20.0744 17.0629 17.0809 15.7223 13.3976C18.9371 12.89 21.7484 13.723 22.0998 13.8401C21.6573 16.6904 20.0173 19.1503 17.7136 20.6991Z" fill="#98A2B3"/>
</svg>
