<svg width="24" height="25" viewBox="0 0 24 25" fill="none" xmlns="http://www.w3.org/2000/svg">
<g clip-path="url(#clip0_391_76447)">
<path fill-rule="evenodd" clip-rule="evenodd" d="M12 0.200195C5.3724 0.200195 0 5.581 0 12.2206C0 17.5306 3.438 22.0366 8.2068 23.6254C8.8068 23.7358 9.0252 23.365 9.0252 23.0458C9.0252 22.7614 9.0156 22.0042 9.0096 21.0022C5.6712 21.7282 4.9668 19.3906 4.9668 19.3906C4.422 18.001 3.6348 17.6314 3.6348 17.6314C2.5452 16.8874 3.7176 16.9018 3.7176 16.9018C4.9212 16.9858 5.5548 18.1402 5.5548 18.1402C6.6252 19.9762 8.364 19.4458 9.0468 19.1386C9.1572 18.3622 9.4668 17.833 9.81 17.533C7.146 17.2294 4.344 16.1974 4.344 11.5918C4.344 10.2802 4.812 9.20619 5.5788 8.36619C5.4552 8.0626 5.0436 6.8398 5.6964 5.1862C5.6964 5.1862 6.7044 4.8622 8.9964 6.4174C9.97532 6.15041 10.9853 6.01443 12 6.01299C13.02 6.01779 14.046 6.151 15.0048 6.4174C17.2956 4.8622 18.3012 5.18499 18.3012 5.18499C18.9564 6.83979 18.5436 8.0626 18.4212 8.36619C19.1892 9.20619 19.6548 10.2802 19.6548 11.5918C19.6548 16.2094 16.848 17.2258 14.1756 17.5234C14.6064 17.8942 14.9892 18.6274 14.9892 19.7494C14.9892 21.355 14.9748 22.6522 14.9748 23.0458C14.9748 23.3674 15.1908 23.7418 15.8004 23.6242C18.19 22.8227 20.2672 21.2906 21.7386 19.2443C23.2099 17.1979 24.001 14.741 24 12.2206C24 5.581 18.6264 0.200195 12 0.200195Z" fill="#98A2B3"/>
</g>
<defs>
<clipPath id="clip0_391_76447">
<rect width="24" height="24" fill="white" transform="translate(0 0.200195)"/>
</clipPath>
</defs>
</svg>
