<svg width="24" height="25" viewBox="0 0 24 25" fill="none" xmlns="http://www.w3.org/2000/svg">
<g clip-path="url(#clip0_391_76442)">
<path d="M22.2234 0.200195H1.77187C0.792187 0.200195 0 0.973633 0 1.92988V22.4658C0 23.4221 0.792187 24.2002 1.77187 24.2002H22.2234C23.2031 24.2002 24 23.4221 24 22.4705V1.92988C24 0.973633 23.2031 0.200195 22.2234 0.200195ZM7.12031 20.6518H3.55781V9.19551H7.12031V20.6518ZM5.33906 7.63457C4.19531 7.63457 3.27188 6.71113 3.27188 5.57207C3.27188 4.43301 4.19531 3.50957 5.33906 3.50957C6.47813 3.50957 7.40156 4.43301 7.40156 5.57207C7.40156 6.70645 6.47813 7.63457 5.33906 7.63457ZM20.4516 20.6518H16.8937V15.083C16.8937 13.7564 16.8703 12.0455 15.0422 12.0455C13.1906 12.0455 12.9094 13.4939 12.9094 14.9893V20.6518H9.35625V9.19551H12.7687V10.7611H12.8156C13.2891 9.86113 14.4516 8.90957 16.1813 8.90957C19.7859 8.90957 20.4516 11.2814 20.4516 14.3658V20.6518Z" fill="#98A2B3"/>
</g>
<defs>
<clipPath id="clip0_391_76442">
<rect width="24" height="24" fill="white" transform="translate(0 0.200195)"/>
</clipPath>
</defs>
</svg>
