<svg width="24" height="25" viewBox="0 0 24 25" fill="none" xmlns="http://www.w3.org/2000/svg">
<path d="M7.55016 21.9499C16.6045 21.9499 21.5583 14.4467 21.5583 7.94181C21.5583 7.73087 21.5536 7.51525 21.5442 7.30431C22.5079 6.60741 23.3395 5.74421 24 4.75525C23.1025 5.15455 22.1496 5.41533 21.1739 5.52869C22.2013 4.91286 22.9705 3.94542 23.3391 2.80572C22.3726 3.37851 21.3156 3.78256 20.2134 4.00056C19.4708 3.21151 18.489 2.68907 17.4197 2.514C16.3504 2.33894 15.2532 2.521 14.2977 3.03205C13.3423 3.54309 12.5818 4.35466 12.1338 5.34126C11.6859 6.32787 11.5754 7.43457 11.8195 8.49025C9.86249 8.39204 7.94794 7.88366 6.19998 6.99805C4.45203 6.11244 2.90969 4.86939 1.67297 3.34947C1.0444 4.43319 0.852057 5.7156 1.13503 6.93604C1.418 8.15649 2.15506 9.2234 3.19641 9.91994C2.41463 9.89512 1.64998 9.68463 0.965625 9.30587V9.36681C0.964925 10.5041 1.3581 11.6065 2.07831 12.4867C2.79852 13.3669 3.80132 13.9705 4.91625 14.1949C4.19206 14.3931 3.43198 14.4219 2.69484 14.2793C3.00945 15.2574 3.62157 16.1128 4.44577 16.7263C5.26997 17.3397 6.26512 17.6805 7.29234 17.7012C5.54842 19.0711 3.39417 19.8141 1.17656 19.8106C0.783287 19.81 0.390399 19.7859 0 19.7384C2.25286 21.1837 4.87353 21.9513 7.55016 21.9499Z" fill="#98A2B3"/>
</svg>
