<svg width="158" height="24" viewBox="0 0 158 24" fill="none" xmlns="http://www.w3.org/2000/svg">
<g clip-path="url(#clip0_400_111269)">
<path d="M158 12C158 5.37258 122.631 0 79 0C35.3695 0 0 5.37258 0 12C0 17.9895 28.889 22.954 66.6563 23.8542V15.4688H46.5977V12H66.6563V9.35625C66.6563 6.34875 78.4507 4.6875 96.4957 4.6875C105.136 4.6875 114.18 4.92188 114.18 4.92188V7.875H104.218C94.405 7.875 91.3438 8.80008 91.3438 9.75V12H113.254L109.751 15.4688H91.3438V23.8542C129.111 22.954 158 17.9895 158 12Z" fill="#1877F2"/>
<path d="M109.751 15.4688L113.254 12H91.3438V9.75C91.3438 8.80102 94.405 7.875 104.218 7.875H114.18V4.92188C114.18 4.92188 105.139 4.6875 96.4957 4.6875C78.4507 4.6875 66.6563 6.34875 66.6563 9.35625V12H46.5977V15.4688H66.6563V23.8542C74.8357 24.0486 83.1643 24.0486 91.3438 23.8542V15.4688H109.751Z" fill="white"/>
</g>
<defs>
<clipPath id="clip0_400_111269">
<rect width="158" height="24" fill="white"/>
</clipPath>
</defs>
</svg>
