<svg width="24" height="25" viewBox="0 0 24 25" fill="none" xmlns="http://www.w3.org/2000/svg">
<g clip-path="url(#clip0_321_131372)">
<path d="M24 12.2002C24 5.57277 18.6274 0.200195 12 0.200195C5.37258 0.200195 0 5.57277 0 12.2002C0 18.1896 4.3882 23.1542 10.125 24.0544V15.6689H7.07812V12.2002H10.125V9.55645C10.125 6.54895 11.9166 4.8877 14.6576 4.8877C15.9701 4.8877 17.3438 5.12207 17.3438 5.12207V8.0752H15.8306C14.34 8.0752 13.875 9.00027 13.875 9.9502V12.2002H17.2031L16.6711 15.6689H13.875V24.0544C19.6118 23.1542 24 18.1896 24 12.2002Z" fill="#98A2B3"/>
</g>
<defs>
<clipPath id="clip0_321_131372">
<rect width="24" height="24" fill="white" transform="translate(0 0.200195)"/>
</clipPath>
</defs>
</svg>
