<svg width="24" height="25" viewBox="0 0 24 25" fill="none" xmlns="http://www.w3.org/2000/svg">
<g clip-path="url(#clip0_391_76449)">
<path d="M17.7695 10.2971C18.318 8.76894 19.8977 4.34863 19.8977 2.93301C19.8977 1.68613 19.1617 0.64082 17.8492 0.64082C15.7586 0.64082 13.8836 6.81426 13.2977 8.28613C12.843 6.9502 10.7148 0.200195 8.83985 0.200195C7.38204 0.200195 6.69766 1.27363 6.69766 2.62363C6.69766 4.27832 8.30079 8.56738 8.88204 10.2174C8.58672 10.1096 8.26797 10.0158 7.94454 10.0158C6.84766 10.0158 5.68047 11.3799 5.68047 12.4814C5.68047 12.8986 5.91016 13.4846 6.05547 13.8736C4.32579 14.3424 3.66016 15.4955 3.66016 17.2346C3.65547 20.6189 6.86172 24.2002 11.3711 24.2002C16.9024 24.2002 20.343 20.0471 20.343 14.6893C20.343 12.6689 20.0195 10.8455 17.7695 10.2971ZM16.1102 5.2627C16.2977 4.68613 17.0992 2.24863 17.8492 2.24863C18.2523 2.24863 18.3602 2.66582 18.3602 2.99863C18.3602 3.89395 16.5508 8.83926 16.1524 9.93613L14.5586 9.65488L16.1102 5.2627ZM8.16954 2.46426C8.16954 1.90645 8.84923 0.32207 10.3398 4.67207L11.9617 9.37363C11.2305 9.3127 10.6633 9.23301 10.3024 9.43926C9.79141 8.08926 8.16954 3.82832 8.16954 2.46426ZM8.06172 11.6377C9.43516 11.6377 11.207 16.0721 11.207 16.6721C11.207 16.9111 10.9773 17.2064 10.7102 17.2064C9.73047 17.2064 7.10547 13.6018 7.10547 12.6268C7.11016 12.2658 7.70079 11.6377 8.06172 11.6377ZM16.7008 20.3705C15.3367 21.8705 13.593 22.6486 11.5586 22.6486C8.77422 22.6486 6.57579 21.1205 5.51641 18.5096C4.71485 16.4752 5.69454 15.308 6.48204 15.308C7.01641 15.308 9.02735 18.1346 9.02735 18.7346C9.02735 18.9643 8.66641 19.1236 8.47891 19.1236C7.72422 19.1236 7.42891 18.3971 6.0836 16.7143C4.69141 18.1064 7.04454 20.7877 8.81641 20.7877C10.0398 20.7877 10.8367 19.6533 10.5977 18.8189C10.7711 18.8189 10.9867 18.833 11.1461 18.7908C11.1977 20.0611 11.5727 21.5752 13.1008 21.683C13.1008 21.6408 13.1945 21.3502 13.1945 21.3361C13.1945 20.5205 12.6977 19.808 12.6977 18.9783C12.6977 17.6518 13.7149 16.3674 14.7461 15.6174C15.1211 15.3361 15.5758 15.1627 16.0164 15.0033C16.4711 14.8299 16.9539 14.6283 17.3008 14.2814C17.2492 13.7564 17.0336 13.2924 16.5086 13.2924C15.2102 13.2924 10.8555 13.4799 10.8555 11.4314C10.8555 11.1174 10.8602 10.8174 11.6711 10.8174C13.1852 10.8174 17.0289 11.1924 18.1539 12.1814C19.0023 12.9361 19.293 17.4877 16.7008 20.3705ZM12.0789 14.4643C12.5336 14.6096 13.0023 14.6518 13.4711 14.7455C13.1242 14.9986 12.8148 15.308 12.5195 15.6408C12.3883 15.2424 12.2289 14.8533 12.0789 14.4643Z" fill="#98A2B3"/>
</g>
<defs>
<clipPath id="clip0_391_76449">
<rect width="24" height="24" fill="white" transform="translate(0 0.200195)"/>
</clipPath>
</defs>
</svg>
