<svg width="158" height="24" viewBox="0 0 158 24" fill="none" xmlns="http://www.w3.org/2000/svg">
<path d="M137.212 17.1449C135.022 17.9135 132.429 18.6211 129.426 19.2715C125.331 20.1583 121.979 20.7721 119.395 21.113C115.39 21.6724 111.099 21.959 106.503 21.9753C103.204 21.9753 99.2262 21.8327 94.5952 21.5434C89.9491 21.2555 85.6793 21.113 81.7752 21.113C77.6807 21.113 73.2893 21.2555 68.5922 21.5434C63.888 21.8327 60.0983 21.9834 57.2008 21.9984C52.7943 22.0269 48.402 21.7322 44.0178 21.113C41.2196 20.7422 37.7196 20.1067 33.5267 19.2063C29.0281 18.2449 25.3296 17.13 22.4321 15.8589C19.329 14.486 17.7734 13.1565 17.7734 11.8694C17.7734 10.3951 19.8708 9.12345 24.0717 8.05784C27.3733 7.20191 31.7655 6.52672 37.2627 6.03105C42.76 5.53539 48.6997 5.2828 55.0963 5.26664C58.5964 5.26664 63.1862 5.43109 68.8899 5.75429C74.5776 6.07858 78.2296 6.24303 79.8307 6.24303C81.0278 6.24303 85.0848 6.05074 91.9624 5.66738C98.4663 5.31186 103.955 5.16466 108.452 5.22264C120.638 5.37202 129.792 6.10167 135.88 7.41619C124.982 8.4192 119.592 9.82403 119.699 11.6262C119.797 13.03 123.15 14.1981 129.739 15.1256C132.724 15.5561 136.059 15.8888 139.769 16.1251C138.965 16.4795 138.115 16.819 137.212 17.1449V17.1449ZM109.266 0.440369C109.266 1.54062 106.62 2.56792 101.345 3.51878C94.9796 4.64917 87.2805 5.30236 78.9314 5.19929C78.825 5.06729 78.7633 4.92837 78.7633 4.78239C78.7633 3.72615 81.7904 2.59576 87.166 1.67152C89.8498 1.20356 93.2631 0.814453 97.4024 0.504058C101.533 0.198295 105.439 0.0292007 109.114 0.000244141C109.221 0.147331 109.266 0.294426 109.266 0.440355V0.440369Z" fill="black"/>
</svg>
