<svg width="158" height="24" viewBox="0 0 158 24" fill="none" xmlns="http://www.w3.org/2000/svg">
<path d="M49.6878 21.7508C109.311 21.7508 141.922 14.2474 141.922 7.74052C141.922 7.5274 141.922 7.31524 141.827 7.10404C148.171 6.407 153.648 5.54392 158 4.55524C152.084 4.95364 145.808 5.2148 139.381 5.32996C146.149 4.71465 151.214 3.74674 153.633 2.60644C147.27 3.18005 140.308 3.58427 133.049 3.80164C128.161 3.01222 121.697 2.48948 114.657 2.31432C107.616 2.13917 100.392 2.32135 94.102 2.83269C87.8119 3.34403 82.8066 4.15601 79.8607 5.14299C76.9148 6.12996 76.1925 7.2369 77.8055 8.29252C64.9176 8.19432 52.3096 7.68555 40.7999 6.79924C29.2903 5.91294 19.1362 4.6689 10.9968 3.14788C6.85146 4.23188 5.58183 5.51511 7.44641 6.7363C9.31098 7.9575 14.1696 9.02483 21.033 9.721C15.8739 9.69804 10.8273 9.48663 6.32 9.10468V9.16708C6.32205 10.3039 8.91285 11.4057 13.653 12.2854C18.3931 13.1652 24.9907 13.7689 32.3268 13.994C27.5544 14.1917 22.5471 14.2206 17.6897 14.0784C19.7619 15.0568 23.795 15.9123 29.225 16.5254C34.655 17.1385 41.2105 17.4785 47.9751 17.498C41.2541 18.3004 33.5573 18.8938 25.3253 19.244C17.0932 19.5942 8.48733 19.6944 0 19.5389C14.8246 20.9839 32.0735 21.7504 49.6878 21.7469" fill="#1DA1F2"/>
</svg>
