<svg width="80" height="80" viewBox="0 0 80 80" fill="none" xmlns="http://www.w3.org/2000/svg">
<path d="M7.17987 15.9202C5 20.1984 5 25.799 5 37V43C5 54.201 5 59.8016 7.17987 64.0798C9.09734 67.8431 12.1569 70.9027 15.9202 72.8201C20.1984 75 25.799 75 37 75H43C54.201 75 59.8016 75 64.0798 72.8201C67.8431 70.9027 70.9027 67.8431 72.8201 64.0798C75 59.8016 75 54.201 75 43V37C75 25.799 75 20.1984 72.8201 15.9202C70.9027 12.1569 67.8431 9.09734 64.0798 7.17987C59.8016 5 54.201 5 43 5H37C25.799 5 20.1984 5 15.9202 7.17987C12.1569 9.09734 9.09734 12.1569 7.17987 15.9202Z" fill="url(#paint0_linear_44_46487)"/>
<path d="M5.66306 20.6986C5 24.4668 5 29.4667 5 36.9996V42.9996C5 54.2007 5 59.8012 7.17987 64.0795C9.09734 67.8427 12.1569 70.9023 15.9202 72.8198C20.1984 74.9996 25.799 74.9996 37 74.9996H43C54.201 74.9996 59.8016 74.9996 64.0798 72.8198C67.8431 70.9023 70.9027 67.8427 72.8201 64.0795C75 59.8012 75 54.2007 75 42.9996V36.9996C75 25.7986 75 20.1981 72.8201 15.9198C70.9694 12.2875 68.0546 9.31074 64.47 7.38379L5.66306 20.6986Z" fill="url(#paint1_linear_44_46487)"/>
<path d="M74.2778 59.6348C73.9563 61.3241 73.4922 62.7643 72.8221 64.0794C70.9047 67.8427 67.845 70.9023 64.0818 72.8197C59.9316 74.9344 54.537 74.9977 43.9926 74.9995H40.1484V67.0916L74.2778 59.6348Z" fill="url(#paint2_linear_44_46487)"/>
<path d="M42.9995 5H36.9995C34.8203 5 32.8531 5 31.0664 5.01605V14.9263L64.463 7.38063C64.3359 7.31239 64.208 7.24546 64.0793 7.17987C61.7042 5.96971 58.9216 5.43137 54.9995 5.19189C51.8567 5 47.9822 5 42.9995 5Z" fill="url(#paint3_linear_44_46487)"/>
<path d="M75.0004 43.4335C75.0001 50.9475 74.9868 55.9004 74.2762 59.6352L62.4062 62.2286V44.5397L75.0004 41.6108V43.4335Z" fill="url(#paint4_linear_44_46487)"/>
<path fill-rule="evenodd" clip-rule="evenodd" d="M37.3506 33.4447C37.3506 31.838 38.6642 31.2201 40.8398 31.2201C43.9597 31.2201 47.9005 32.1676 51.0203 33.8567V24.1753C47.6131 22.8158 44.247 22.2803 40.8398 22.2803C32.5066 22.2803 26.9648 26.6472 26.9648 33.9391C26.9648 45.3096 42.564 43.4969 42.564 48.3994C42.564 50.2944 40.9219 50.9124 38.6231 50.9124C35.216 50.9124 30.8646 49.5117 27.4164 47.6166V57.4216C31.2341 59.0695 35.0928 59.7698 38.6231 59.7698C47.1616 59.7698 53.0318 55.5265 53.0318 48.1522C52.9907 35.8754 37.3506 38.0588 37.3506 33.4447Z" fill="white"/>
<defs>
<linearGradient id="paint0_linear_44_46487" x1="5" y1="5" x2="27.9916" y2="21.2552" gradientUnits="userSpaceOnUse">
<stop stop-color="#392993"/>
<stop offset="1" stop-color="#4B47B9"/>
</linearGradient>
<linearGradient id="paint1_linear_44_46487" x1="7.63599" y1="21.4358" x2="58.3916" y2="63.3021" gradientUnits="userSpaceOnUse">
<stop stop-color="#594BB9"/>
<stop offset="1" stop-color="#60A8F2"/>
</linearGradient>
<linearGradient id="paint2_linear_44_46487" x1="40.1484" y1="67.3846" x2="75.002" y2="74.9997" gradientUnits="userSpaceOnUse">
<stop stop-color="#61A2EF"/>
<stop offset="1" stop-color="#58E6FD"/>
</linearGradient>
<linearGradient id="paint3_linear_44_46487" x1="31.0664" y1="9.97908" x2="74.9995" y2="5" gradientUnits="userSpaceOnUse">
<stop stop-color="#534EBE"/>
<stop offset="1" stop-color="#6875E2"/>
</linearGradient>
<linearGradient id="paint4_linear_44_46487" x1="62.4063" y1="44.6862" x2="75.0004" y2="59.7698" gradientUnits="userSpaceOnUse">
<stop stop-color="#71A5F3"/>
<stop offset="1" stop-color="#6CC3FA"/>
</linearGradient>
</defs>
</svg>
