<svg width="649" height="49" viewBox="0 0 649 49" fill="none" xmlns="http://www.w3.org/2000/svg">
<path d="M40.1343 0.510117H42.3159L47.3906 12.4501L52.4416 0.510117H54.5758L48.6 14.5101H46.1101L40.1343 0.510117Z" fill="black"/>
<path d="M57.9894 0.670117C58.2266 0.870117 58.3451 1.13012 58.3451 1.43012C58.3451 1.75012 58.2266 1.99012 57.9894 2.19012C57.7523 2.39012 57.444 2.49012 57.0883 2.49012C56.7089 2.49012 56.4243 2.39012 56.1872 2.19012C55.9501 1.99012 55.8315 1.75012 55.8315 1.43012C55.8315 1.13012 55.9501 0.870117 56.1872 0.670117C56.4243 0.470118 56.7089 0.370117 57.0883 0.370117C57.444 0.370117 57.7523 0.470118 57.9894 0.670117ZM56.1161 4.31012H58.0606V14.5101H56.1161V4.31012Z" fill="black"/>
<path d="M62.2421 11.1501C62.2658 11.7701 62.5741 12.2701 63.1907 12.6501C63.8072 13.0501 64.5898 13.2301 65.562 13.2301C66.4157 13.2301 67.1034 13.0901 67.6251 12.8101C68.1468 12.5301 68.4314 12.1501 68.4314 11.6701C68.4314 11.2701 68.2891 10.9701 68.0519 10.7501C67.7911 10.5501 67.4591 10.3901 67.056 10.3101C66.6528 10.2301 66.0837 10.1501 65.3486 10.0701C64.3052 9.97012 63.4515 9.83012 62.7875 9.65012C62.1236 9.49012 61.5781 9.21012 61.175 8.83012C60.7482 8.45012 60.5585 7.93012 60.5585 7.25012C60.5585 6.65012 60.7482 6.13012 61.1513 5.65012C61.5544 5.19012 62.0998 4.83012 62.8112 4.57012C63.4989 4.31012 64.2815 4.17012 65.1589 4.17012C66.5817 4.17012 67.7199 4.45012 68.6211 5.01012C69.5222 5.57012 70.0201 6.37012 70.115 7.41012H68.1705C68.0756 6.89012 67.7674 6.45012 67.2457 6.09012C66.7003 5.75012 66.0363 5.57012 65.23 5.57012C64.4 5.57012 63.7361 5.73012 63.2381 6.01012C62.7164 6.29012 62.4793 6.67012 62.4793 7.13012C62.4793 7.49012 62.5978 7.75012 62.835 7.93012C63.0721 8.13012 63.3567 8.25012 63.7361 8.31012C64.1155 8.39012 64.6846 8.45012 65.4434 8.53012C66.4868 8.65012 67.3642 8.79012 68.0519 8.97012C68.7396 9.17012 69.285 9.47012 69.7119 9.87012C70.1387 10.2901 70.3521 10.8501 70.3521 11.5501C70.3521 12.1701 70.1387 12.7101 69.7119 13.1701C69.285 13.6501 68.6922 14.0101 67.9808 14.2501C67.2457 14.5101 66.4394 14.6301 65.562 14.6301C63.9732 14.6301 62.6927 14.3301 61.7441 13.7101C60.7956 13.1101 60.2976 12.2501 60.2976 11.1501H62.2421Z" fill="black"/>
<path d="M83.8694 13.0101V14.5101H82.8023C82.0197 14.5101 81.4743 14.3901 81.1423 14.1101C80.8104 13.8501 80.6206 13.4501 80.6206 12.9301C79.6721 14.0701 78.3204 14.6301 76.5656 14.6301C75.214 14.6301 74.1231 14.3701 73.3169 13.8301C72.5106 13.3101 72.1075 12.5701 72.1075 11.6501C72.1075 10.6301 72.5106 9.85012 73.3406 9.29012C74.1706 8.75012 75.38 8.47012 76.9688 8.47012H80.5258V7.77012C80.5258 7.11012 80.2412 6.59012 79.7195 6.21012C79.1978 5.85012 78.4627 5.65012 77.5142 5.65012C76.6605 5.65012 75.9728 5.81012 75.4274 6.13012C74.882 6.45012 74.55 6.85012 74.4314 7.37012H72.4869C72.6292 6.37012 73.1509 5.59012 74.052 5.03012C74.9531 4.47012 76.1388 4.19012 77.609 4.19012C79.1504 4.19012 80.3361 4.51012 81.1898 5.15012C82.0435 5.79012 82.4703 6.69012 82.4703 7.87012V12.2701C82.4703 12.7701 82.7312 13.0101 83.2766 13.0101H83.8694ZM80.5258 9.85012H76.7791C74.9768 9.85012 74.0757 10.4301 74.0757 11.5501C74.0757 12.0701 74.3129 12.4701 74.7871 12.7701C75.2614 13.0901 75.9017 13.2301 76.7079 13.2301C77.8936 13.2301 78.8184 12.9701 79.5061 12.4501C80.1701 11.9301 80.5258 11.2301 80.5258 10.3501V9.85012Z" fill="black"/>
<path d="M91.5061 4.31012V5.91012H90.5338C89.3719 5.91012 88.5419 6.25012 88.0439 6.89012C87.5459 7.55012 87.3088 8.35012 87.3088 9.31012V14.5101H85.3643V4.31012H87.0479L87.3088 5.85012C87.6408 5.39012 88.0913 5.01012 88.6605 4.73012C89.2059 4.45012 89.9647 4.31012 90.9607 4.31012H91.5061Z" fill="black"/>
<path d="M95.032 13.9701C94.1309 13.5301 93.4195 12.9301 92.9215 12.1301C92.3998 11.3501 92.1626 10.4501 92.1626 9.41012C92.1626 8.39012 92.3998 7.49012 92.9215 6.69012C93.4195 5.91012 94.1309 5.29012 95.032 4.85012C95.9331 4.41012 96.9765 4.19012 98.1622 4.19012C99.3241 4.19012 100.368 4.41012 101.269 4.85012C102.17 5.29012 102.881 5.91012 103.403 6.69012C103.901 7.49012 104.162 8.39012 104.162 9.41012C104.162 10.4501 103.901 11.3501 103.403 12.1301C102.881 12.9301 102.17 13.5301 101.269 13.9701C100.368 14.4101 99.3241 14.6301 98.1622 14.6301C96.9765 14.6301 95.9331 14.4101 95.032 13.9701ZM100.249 12.6901C100.866 12.3701 101.34 11.9301 101.672 11.3501C102.004 10.7901 102.17 10.1301 102.17 9.41012C102.17 8.69012 102.004 8.05012 101.672 7.47012C101.34 6.91012 100.866 6.45012 100.249 6.13012C99.6324 5.81012 98.9447 5.65012 98.1622 5.65012C97.3559 5.65012 96.6682 5.81012 96.0517 6.13012C95.4351 6.45012 94.9846 6.91012 94.6526 7.47012C94.3206 8.05012 94.1546 8.69012 94.1546 9.41012C94.1546 10.1301 94.3206 10.7901 94.6526 11.3501C94.9846 11.9301 95.4351 12.3701 96.0517 12.6901C96.6682 13.0101 97.3559 13.1701 98.1622 13.1701C98.9447 13.1701 99.6324 13.0101 100.249 12.6901Z" fill="black"/>
<path d="M119.261 0.510117C120.352 0.510117 121.301 0.690116 122.154 1.05012C122.984 1.41012 123.625 1.91012 124.075 2.55012C124.526 3.19012 124.763 3.95012 124.763 4.81012C124.763 5.69012 124.526 6.45012 124.075 7.09012C123.601 7.75012 122.961 8.25012 122.131 8.61012C121.301 8.97012 120.352 9.13012 119.261 9.13012H114.945V14.5101H112.882V0.510117H119.261ZM114.945 7.53012H119.072C120.162 7.53012 121.016 7.29012 121.68 6.79012C122.32 6.31012 122.652 5.65012 122.652 4.81012C122.652 3.99012 122.32 3.33012 121.68 2.85012C121.04 2.37012 120.186 2.11012 119.095 2.11012H114.945V7.53012Z" fill="black"/>
<path d="M137.271 13.0101V14.5101H136.204C135.421 14.5101 134.876 14.3901 134.544 14.1101C134.212 13.8501 134.022 13.4501 134.022 12.9301C133.074 14.0701 131.722 14.6301 129.967 14.6301C128.616 14.6301 127.525 14.3701 126.719 13.8301C125.912 13.3101 125.509 12.5701 125.509 11.6501C125.509 10.6301 125.912 9.85012 126.742 9.29012C127.572 8.75012 128.782 8.47012 130.37 8.47012H133.927V7.77012C133.927 7.11012 133.643 6.59012 133.121 6.21012C132.6 5.85012 131.864 5.65012 130.916 5.65012C130.062 5.65012 129.374 5.81012 128.829 6.13012C128.284 6.45012 127.952 6.85012 127.833 7.37012H125.889C126.031 6.37012 126.553 5.59012 127.454 5.03012C128.355 4.47012 129.541 4.19012 131.011 4.19012C132.552 4.19012 133.738 4.51012 134.591 5.15012C135.445 5.79012 135.872 6.69012 135.872 7.87012V12.2701C135.872 12.7701 136.133 13.0101 136.678 13.0101H137.271ZM133.927 9.85012H130.181C128.379 9.85012 127.477 10.4301 127.477 11.5501C127.477 12.0701 127.715 12.4701 128.189 12.7701C128.663 13.0901 129.303 13.2301 130.11 13.2301C131.295 13.2301 132.22 12.9701 132.908 12.4501C133.572 11.9301 133.927 11.2301 133.927 10.3501V9.85012Z" fill="black"/>
<path d="M139.272 4.31012L142.995 12.6301L146.6 4.31012H148.663L143.09 16.2301C142.806 16.8501 142.545 17.3101 142.331 17.6101C142.094 17.9301 141.833 18.1501 141.501 18.2901C141.169 18.4501 140.719 18.5101 140.173 18.5101H137.849V17.0101H139.581C139.96 17.0101 140.245 16.9901 140.434 16.9101C140.624 16.8501 140.766 16.7501 140.885 16.5901C141.003 16.4301 141.146 16.1701 141.335 15.8101L141.952 14.5901L137.209 4.31012H139.272Z" fill="black"/>
<path d="M150.256 5.21012C150.493 5.01012 150.825 4.89012 151.228 4.89012C151.607 4.89012 151.939 5.01012 152.2 5.21012C152.437 5.41012 152.579 5.69012 152.579 6.01012C152.579 6.35012 152.437 6.63012 152.2 6.83012C151.939 7.03012 151.607 7.13012 151.228 7.13012C150.825 7.13012 150.493 7.03012 150.256 6.83012C149.995 6.63012 149.876 6.35012 149.876 6.01012C149.876 5.69012 149.995 5.41012 150.256 5.21012ZM150.256 12.7101C150.493 12.5101 150.825 12.3901 151.228 12.3901C151.607 12.3901 151.939 12.5101 152.2 12.7101C152.437 12.9101 152.579 13.1901 152.579 13.5101C152.579 13.8501 152.437 14.1301 152.2 14.3301C151.939 14.5301 151.607 14.6301 151.228 14.6301C150.825 14.6301 150.493 14.5301 150.256 14.3301C149.995 14.1301 149.876 13.8501 149.876 13.5101C149.876 13.1901 149.995 12.9101 150.256 12.7101Z" fill="black"/>
<path d="M161.49 0.510117H163.553V14.5101H161.49V0.510117Z" fill="black"/>
<path d="M175.947 5.31012C176.849 6.07012 177.299 7.23012 177.299 8.83012V14.5101H175.355V8.93012C175.355 7.89012 175.07 7.09012 174.501 6.53012C173.932 5.97012 173.126 5.69012 172.082 5.69012C170.944 5.69012 170.043 6.03012 169.403 6.69012C168.739 7.37012 168.43 8.27012 168.43 9.41012V14.5101H166.486V4.31012H168.169L168.43 5.69012C169.331 4.69012 170.659 4.19012 172.414 4.19012C173.884 4.19012 175.046 4.57012 175.947 5.31012Z" fill="black"/>
<path d="M181.296 11.1501C181.32 11.7701 181.628 12.2701 182.245 12.6501C182.861 13.0501 183.644 13.2301 184.616 13.2301C185.47 13.2301 186.157 13.0901 186.679 12.8101C187.201 12.5301 187.485 12.1501 187.485 11.6701C187.485 11.2701 187.343 10.9701 187.106 10.7501C186.845 10.5501 186.513 10.3901 186.11 10.3101C185.707 10.2301 185.138 10.1501 184.402 10.0701C183.359 9.97012 182.505 9.83012 181.841 9.65012C181.177 9.49012 180.632 9.21012 180.229 8.83012C179.802 8.45012 179.612 7.93012 179.612 7.25012C179.612 6.65012 179.802 6.13012 180.205 5.65012C180.608 5.19012 181.154 4.83012 181.865 4.57012C182.553 4.31012 183.335 4.17012 184.213 4.17012C185.636 4.17012 186.774 4.45012 187.675 5.01012C188.576 5.57012 189.074 6.37012 189.169 7.41012H187.224C187.129 6.89012 186.821 6.45012 186.3 6.09012C185.754 5.75012 185.09 5.57012 184.284 5.57012C183.454 5.57012 182.79 5.73012 182.292 6.01012C181.77 6.29012 181.533 6.67012 181.533 7.13012C181.533 7.49012 181.652 7.75012 181.889 7.93012C182.126 8.13012 182.411 8.25012 182.79 8.31012C183.169 8.39012 183.738 8.45012 184.497 8.53012C185.541 8.65012 186.418 8.79012 187.106 8.97012C187.793 9.17012 188.339 9.47012 188.766 9.87012C189.193 10.2901 189.406 10.8501 189.406 11.5501C189.406 12.1701 189.193 12.7101 188.766 13.1701C188.339 13.6501 187.746 14.0101 187.035 14.2501C186.3 14.5101 185.493 14.6301 184.616 14.6301C183.027 14.6301 181.747 14.3301 180.798 13.7101C179.849 13.1101 179.351 12.2501 179.351 11.1501H181.296Z" fill="black"/>
<path d="M192.418 5.81012H190.237V4.31012H192.418V1.45012H194.363V4.31012H197.422V5.81012H194.363V11.8301C194.363 12.2701 194.458 12.5701 194.647 12.7501C194.837 12.9301 195.193 13.0101 195.691 13.0101H197.801V14.5101H195.572C194.434 14.5101 193.604 14.3101 193.13 13.8701C192.655 13.4501 192.418 12.7701 192.418 11.8501V5.81012Z" fill="black"/>
<path d="M210.311 13.0101V14.5101H209.243C208.461 14.5101 207.915 14.3901 207.584 14.1101C207.252 13.8501 207.062 13.4501 207.062 12.9301C206.113 14.0701 204.762 14.6301 203.007 14.6301C201.655 14.6301 200.564 14.3701 199.758 13.8301C198.952 13.3101 198.549 12.5701 198.549 11.6501C198.549 10.6301 198.952 9.85012 199.782 9.29012C200.612 8.75012 201.821 8.47012 203.41 8.47012H206.967V7.77012C206.967 7.11012 206.682 6.59012 206.161 6.21012C205.639 5.85012 204.904 5.65012 203.955 5.65012C203.102 5.65012 202.414 5.81012 201.869 6.13012C201.323 6.45012 200.991 6.85012 200.873 7.37012H198.928C199.07 6.37012 199.592 5.59012 200.493 5.03012C201.394 4.47012 202.58 4.19012 204.05 4.19012C205.592 4.19012 206.777 4.51012 207.631 5.15012C208.485 5.79012 208.911 6.69012 208.911 7.87012V12.2701C208.911 12.7701 209.172 13.0101 209.718 13.0101H210.311ZM206.967 9.85012H203.22C201.418 9.85012 200.517 10.4301 200.517 11.5501C200.517 12.0701 200.754 12.4701 201.228 12.7701C201.703 13.0901 202.343 13.2301 203.149 13.2301C204.335 13.2301 205.26 12.9701 205.947 12.4501C206.611 11.9301 206.967 11.2301 206.967 10.3501V9.85012Z" fill="black"/>
<path d="M221.267 5.31012C222.168 6.07012 222.619 7.23012 222.619 8.83012V14.5101H220.674V8.93012C220.674 7.89012 220.39 7.09012 219.821 6.53012C219.251 5.97012 218.445 5.69012 217.402 5.69012C216.264 5.69012 215.362 6.03012 214.722 6.69012C214.058 7.37012 213.75 8.27012 213.75 9.41012V14.5101H211.805V4.31012H213.489L213.75 5.69012C214.651 4.69012 215.979 4.19012 217.734 4.19012C219.204 4.19012 220.366 4.57012 221.267 5.31012Z" fill="black"/>
<path d="M225.904 5.81012H223.723V4.31012H225.904V1.45012H227.849V4.31012H230.908V5.81012H227.849V11.8301C227.849 12.2701 227.944 12.5701 228.133 12.7501C228.323 12.9301 228.679 13.0101 229.177 13.0101H231.287V14.5101H229.058C227.92 14.5101 227.09 14.3101 226.616 13.8701C226.141 13.4501 225.904 12.7701 225.904 11.8501V5.81012Z" fill="black"/>
<path d="M245.54 0.510117C246.631 0.510117 247.58 0.690116 248.433 1.05012C249.263 1.41012 249.904 1.91012 250.354 2.55012C250.805 3.19012 251.042 3.95012 251.042 4.81012C251.042 5.69012 250.805 6.45012 250.354 7.09012C249.88 7.75012 249.24 8.25012 248.41 8.61012C247.58 8.97012 246.631 9.13012 245.54 9.13012H241.224V14.5101H239.161V0.510117H245.54ZM241.224 7.53012H245.351C246.441 7.53012 247.295 7.29012 247.959 6.79012C248.599 6.31012 248.931 5.65012 248.931 4.81012C248.931 3.99012 248.599 3.33012 247.959 2.85012C247.319 2.37012 246.465 2.11012 245.374 2.11012H241.224V7.53012Z" fill="black"/>
<path d="M263.55 13.0101V14.5101H262.483C261.701 14.5101 261.155 14.3901 260.823 14.1101C260.491 13.8501 260.301 13.4501 260.301 12.9301C259.353 14.0701 258.001 14.6301 256.246 14.6301C254.895 14.6301 253.804 14.3701 252.998 13.8301C252.191 13.3101 251.788 12.5701 251.788 11.6501C251.788 10.6301 252.191 9.85012 253.021 9.29012C253.851 8.75012 255.061 8.47012 256.65 8.47012H260.207V7.77012C260.207 7.11012 259.922 6.59012 259.4 6.21012C258.879 5.85012 258.143 5.65012 257.195 5.65012C256.341 5.65012 255.654 5.81012 255.108 6.13012C254.563 6.45012 254.231 6.85012 254.112 7.37012H252.168C252.31 6.37012 252.832 5.59012 253.733 5.03012C254.634 4.47012 255.82 4.19012 257.29 4.19012C258.831 4.19012 260.017 4.51012 260.871 5.15012C261.724 5.79012 262.151 6.69012 262.151 7.87012V12.2701C262.151 12.7701 262.412 13.0101 262.957 13.0101H263.55ZM260.207 9.85012H256.46C254.658 9.85012 253.756 10.4301 253.756 11.5501C253.756 12.0701 253.994 12.4701 254.468 12.7701C254.942 13.0901 255.582 13.2301 256.389 13.2301C257.574 13.2301 258.499 12.9701 259.187 12.4501C259.851 11.9301 260.207 11.2301 260.207 10.3501V9.85012Z" fill="black"/>
<path d="M265.551 4.31012L269.274 12.6301L272.879 4.31012H274.942L269.369 16.2301C269.085 16.8501 268.824 17.3101 268.61 17.6101C268.373 17.9301 268.112 18.1501 267.78 18.2901C267.448 18.4501 266.998 18.5101 266.452 18.5101H264.129V17.0101H265.86C266.239 17.0101 266.524 16.9901 266.713 16.9101C266.903 16.8501 267.045 16.7501 267.164 16.5901C267.282 16.4301 267.425 16.1701 267.614 15.8101L268.231 14.5901L263.488 4.31012H265.551Z" fill="black"/>
<path d="M293.181 5.27012C294.035 5.99012 294.462 7.11012 294.462 8.63012V14.5101H292.518V8.73012C292.518 7.75012 292.257 6.99012 291.759 6.47012C291.261 5.95012 290.549 5.69012 289.648 5.69012C288.628 5.69012 287.822 5.99012 287.253 6.59012C286.684 7.19012 286.399 8.01012 286.399 9.05012V14.5101H284.455V8.73012C284.455 7.75012 284.194 6.99012 283.696 6.47012C283.174 5.95012 282.463 5.69012 281.538 5.69012C280.542 5.69012 279.76 6.01012 279.191 6.65012C278.621 7.29012 278.337 8.11012 278.337 9.13012V14.5101H276.392V4.31012H278.076L278.337 5.71012C279.191 4.71012 280.376 4.19012 281.87 4.19012C282.724 4.19012 283.506 4.37012 284.17 4.69012C284.834 5.01012 285.356 5.49012 285.688 6.13012C286.542 4.85012 287.941 4.19012 289.885 4.19012C291.237 4.19012 292.328 4.55012 293.181 5.27012Z" fill="black"/>
<path d="M297.241 6.67012C297.715 5.89012 298.403 5.29012 299.28 4.85012C300.134 4.41012 301.13 4.19012 302.268 4.19012C303.359 4.19012 304.355 4.39012 305.209 4.77012C306.062 5.17012 306.726 5.73012 307.224 6.45012C307.699 7.19012 307.959 8.05012 308.007 9.03012C308.007 9.19012 307.983 9.41012 307.959 9.73012H298.569V9.87012C298.593 10.8701 298.948 11.6701 299.66 12.2701C300.347 12.8701 301.249 13.1701 302.387 13.1701C303.24 13.1701 303.976 12.9901 304.592 12.6301C305.209 12.2701 305.612 11.7501 305.825 11.0901H307.793C307.556 12.1301 306.964 12.9901 306.015 13.6501C305.066 14.3101 303.904 14.6301 302.529 14.6301C301.32 14.6301 300.276 14.4301 299.375 13.9901C298.474 13.5501 297.763 12.9501 297.265 12.1501C296.767 11.3501 296.53 10.4501 296.53 9.41012C296.53 8.37012 296.767 7.47012 297.241 6.67012ZM305.991 8.37012C305.896 7.51012 305.493 6.83012 304.829 6.35012C304.165 5.87012 303.312 5.63012 302.292 5.63012C301.367 5.63012 300.561 5.89012 299.873 6.39012C299.162 6.91012 298.782 7.57012 298.687 8.37012H305.991Z" fill="black"/>
<path d="M319.687 5.31012C320.589 6.07012 321.039 7.23012 321.039 8.83012V14.5101H319.095V8.93012C319.095 7.89012 318.81 7.09012 318.241 6.53012C317.672 5.97012 316.866 5.69012 315.822 5.69012C314.684 5.69012 313.783 6.03012 313.142 6.69012C312.479 7.37012 312.17 8.27012 312.17 9.41012V14.5101H310.226V4.31012H311.909L312.17 5.69012C313.071 4.69012 314.399 4.19012 316.154 4.19012C317.624 4.19012 318.786 4.57012 319.687 5.31012Z" fill="black"/>
<path d="M324.325 5.81012H322.143V4.31012H324.325V1.45012H326.269V4.31012H329.328V5.81012H326.269V11.8301C326.269 12.2701 326.364 12.5701 326.554 12.7501C326.743 12.9301 327.099 13.0101 327.597 13.0101H329.707V14.5101H327.478C326.34 14.5101 325.51 14.3101 325.036 13.8701C324.562 13.4501 324.325 12.7701 324.325 11.8501V5.81012Z" fill="black"/>
<path d="M332.608 11.1501C332.632 11.7701 332.941 12.2701 333.557 12.6501C334.174 13.0501 334.956 13.2301 335.928 13.2301C336.782 13.2301 337.47 13.0901 337.992 12.8101C338.513 12.5301 338.798 12.1501 338.798 11.6701C338.798 11.2701 338.655 10.9701 338.418 10.7501C338.158 10.5501 337.825 10.3901 337.422 10.3101C337.019 10.2301 336.45 10.1501 335.715 10.0701C334.672 9.97012 333.818 9.83012 333.154 9.65012C332.49 9.49012 331.945 9.21012 331.541 8.83012C331.115 8.45012 330.925 7.93012 330.925 7.25012C330.925 6.65012 331.115 6.13012 331.518 5.65012C331.921 5.19012 332.466 4.83012 333.178 4.57012C333.865 4.31012 334.648 4.17012 335.525 4.17012C336.948 4.17012 338.086 4.45012 338.987 5.01012C339.889 5.57012 340.387 6.37012 340.481 7.41012H338.537C338.442 6.89012 338.134 6.45012 337.612 6.09012C337.067 5.75012 336.403 5.57012 335.596 5.57012C334.766 5.57012 334.102 5.73012 333.604 6.01012C333.083 6.29012 332.846 6.67012 332.846 7.13012C332.846 7.49012 332.964 7.75012 333.201 7.93012C333.438 8.13012 333.723 8.25012 334.102 8.31012C334.482 8.39012 335.051 8.45012 335.81 8.53012C336.853 8.65012 337.731 8.79012 338.418 8.97012C339.106 9.17012 339.651 9.47012 340.078 9.87012C340.505 10.2901 340.719 10.8501 340.719 11.5501C340.719 12.1701 340.505 12.7101 340.078 13.1701C339.651 13.6501 339.059 14.0101 338.347 14.2501C337.612 14.5101 336.806 14.6301 335.928 14.6301C334.34 14.6301 333.059 14.3301 332.111 13.7101C331.162 13.1101 330.664 12.2501 330.664 11.1501H332.608Z" fill="black"/>
<path d="M350.838 9.93012C350.909 10.8901 351.36 11.6501 352.19 12.2101C352.996 12.7701 354.039 13.0501 355.32 13.0501C356.458 13.0501 357.359 12.8501 358.071 12.4301C358.782 12.0101 359.138 11.4301 359.138 10.6701C359.138 10.1301 358.924 9.69012 358.545 9.37012C358.166 9.05012 357.668 8.83012 357.051 8.67012C356.435 8.51012 355.628 8.37012 354.585 8.21012C352.925 7.97012 351.597 7.59012 350.625 7.03012C349.629 6.49012 349.154 5.61012 349.154 4.37012C349.154 3.59012 349.392 2.89012 349.866 2.29012C350.34 1.69012 351.004 1.21012 351.858 0.870116C352.711 0.550117 353.707 0.370117 354.822 0.370117C355.984 0.370117 357.027 0.550117 357.928 0.910117C358.83 1.27012 359.541 1.79012 360.063 2.43012C360.584 3.07012 360.869 3.81012 360.94 4.65012H358.901C358.758 3.85012 358.332 3.19012 357.596 2.69012C356.838 2.21012 355.913 1.95012 354.822 1.95012C353.707 1.95012 352.83 2.17012 352.19 2.57012C351.526 2.97012 351.218 3.55012 351.218 4.27012C351.218 4.81012 351.407 5.23012 351.787 5.53012C352.166 5.83012 352.64 6.05012 353.257 6.21012C353.85 6.37012 354.68 6.51012 355.723 6.65012C357.383 6.89012 358.711 7.29012 359.707 7.85012C360.703 8.41012 361.201 9.29012 361.201 10.5101C361.201 11.3101 360.94 12.0301 360.442 12.6501C359.944 13.2901 359.256 13.7701 358.355 14.1101C357.454 14.4701 356.435 14.6301 355.296 14.6301C353.992 14.6301 352.854 14.4501 351.905 14.0501C350.933 13.6501 350.174 13.1101 349.652 12.3901C349.131 11.6701 348.846 10.8501 348.799 9.93012H350.838Z" fill="black"/>
<path d="M363.819 6.67012C364.294 5.89012 364.981 5.29012 365.859 4.85012C366.712 4.41012 367.708 4.19012 368.847 4.19012C369.937 4.19012 370.933 4.39012 371.787 4.77012C372.641 5.17012 373.305 5.73012 373.803 6.45012C374.277 7.19012 374.538 8.05012 374.585 9.03012C374.585 9.19012 374.562 9.41012 374.538 9.73012H365.147V9.87012C365.171 10.8701 365.527 11.6701 366.238 12.2701C366.926 12.8701 367.827 13.1701 368.965 13.1701C369.819 13.1701 370.554 12.9901 371.171 12.6301C371.787 12.2701 372.19 11.7501 372.404 11.0901H374.372C374.135 12.1301 373.542 12.9901 372.593 13.6501C371.645 14.3101 370.483 14.6301 369.108 14.6301C367.898 14.6301 366.855 14.4301 365.954 13.9901C365.052 13.5501 364.341 12.9501 363.843 12.1501C363.345 11.3501 363.108 10.4501 363.108 9.41012C363.108 8.37012 363.345 7.47012 363.819 6.67012ZM372.57 8.37012C372.475 7.51012 372.072 6.83012 371.408 6.35012C370.744 5.87012 369.89 5.63012 368.87 5.63012C367.946 5.63012 367.139 5.89012 366.452 6.39012C365.74 6.91012 365.361 7.57012 365.266 8.37012H372.57Z" fill="black"/>
<path d="M382.946 4.31012V5.91012H381.974C380.812 5.91012 379.982 6.25012 379.484 6.89012C378.986 7.55012 378.749 8.35012 378.749 9.31012V14.5101H376.804V4.31012H378.488L378.749 5.85012C379.081 5.39012 379.531 5.01012 380.1 4.73012C380.646 4.45012 381.405 4.31012 382.401 4.31012H382.946Z" fill="black"/>
<path d="M383.631 4.31012H385.717L389.369 12.6501L392.997 4.31012H395.037L390.507 14.5101H388.16L383.631 4.31012Z" fill="black"/>
<path d="M398.362 0.670117C398.599 0.870117 398.717 1.13012 398.717 1.43012C398.717 1.75012 398.599 1.99012 398.362 2.19012C398.125 2.39012 397.816 2.49012 397.461 2.49012C397.081 2.49012 396.797 2.39012 396.559 2.19012C396.322 1.99012 396.204 1.75012 396.204 1.43012C396.204 1.13012 396.322 0.870117 396.559 0.670117C396.797 0.470118 397.081 0.370117 397.461 0.370117C397.816 0.370117 398.125 0.470118 398.362 0.670117ZM396.488 4.31012H398.433V14.5101H396.488V4.31012Z" fill="black"/>
<path d="M410.108 13.6701C409.159 14.3101 407.974 14.6301 406.551 14.6301C405.365 14.6301 404.345 14.4101 403.468 13.9701C402.567 13.5301 401.879 12.9301 401.405 12.1301C400.907 11.3301 400.67 10.4301 400.67 9.39012C400.67 8.37012 400.907 7.47012 401.405 6.67012C401.903 5.89012 402.614 5.29012 403.515 4.85012C404.417 4.41012 405.436 4.19012 406.622 4.19012C408.045 4.19012 409.207 4.51012 410.132 5.15012C411.056 5.79012 411.649 6.67012 411.886 7.79012H409.918C409.728 7.15012 409.325 6.63012 408.732 6.23012C408.116 5.85012 407.404 5.65012 406.551 5.65012C405.389 5.65012 404.44 6.01012 403.729 6.69012C403.017 7.39012 402.662 8.29012 402.662 9.39012C402.662 10.5101 403.017 11.4301 403.729 12.1301C404.44 12.8301 405.389 13.1701 406.551 13.1701C407.428 13.1701 408.163 12.9901 408.78 12.5901C409.373 12.2101 409.752 11.6701 409.942 10.9901H411.886C411.625 12.1301 411.033 13.0301 410.108 13.6701Z" fill="black"/>
<path d="M414.164 6.67012C414.639 5.89012 415.326 5.29012 416.204 4.85012C417.057 4.41012 418.053 4.19012 419.192 4.19012C420.282 4.19012 421.278 4.39012 422.132 4.77012C422.986 5.17012 423.65 5.73012 424.148 6.45012C424.622 7.19012 424.883 8.05012 424.93 9.03012C424.93 9.19012 424.906 9.41012 424.883 9.73012H415.492V9.87012C415.516 10.8701 415.872 11.6701 416.583 12.2701C417.271 12.8701 418.172 13.1701 419.31 13.1701C420.164 13.1701 420.899 12.9901 421.515 12.6301C422.132 12.2701 422.535 11.7501 422.749 11.0901H424.717C424.48 12.1301 423.887 12.9901 422.938 13.6501C421.99 14.3101 420.828 14.6301 419.452 14.6301C418.243 14.6301 417.2 14.4301 416.298 13.9901C415.397 13.5501 414.686 12.9501 414.188 12.1501C413.69 11.3501 413.453 10.4501 413.453 9.41012C413.453 8.37012 413.69 7.47012 414.164 6.67012ZM422.915 8.37012C422.82 7.51012 422.417 6.83012 421.753 6.35012C421.089 5.87012 420.235 5.63012 419.215 5.63012C418.29 5.63012 417.484 5.89012 416.796 6.39012C416.085 6.91012 415.706 7.57012 415.611 8.37012H422.915Z" fill="black"/>
<path d="M428.62 11.1501C428.644 11.7701 428.952 12.2701 429.569 12.6501C430.186 13.0501 430.968 13.2301 431.94 13.2301C432.794 13.2301 433.482 13.0901 434.003 12.8101C434.525 12.5301 434.81 12.1501 434.81 11.6701C434.81 11.2701 434.667 10.9701 434.43 10.7501C434.169 10.5501 433.837 10.3901 433.434 10.3101C433.031 10.2301 432.462 10.1501 431.727 10.0701C430.684 9.97012 429.83 9.83012 429.166 9.65012C428.502 9.49012 427.956 9.21012 427.553 8.83012C427.127 8.45012 426.937 7.93012 426.937 7.25012C426.937 6.65012 427.126 6.13012 427.53 5.65012C427.933 5.19012 428.478 4.83012 429.19 4.57012C429.877 4.31012 430.66 4.17012 431.537 4.17012C432.96 4.17012 434.098 4.45012 434.999 5.01012C435.9 5.57012 436.398 6.37012 436.493 7.41012H434.549C434.454 6.89012 434.146 6.45012 433.624 6.09012C433.079 5.75012 432.415 5.57012 431.608 5.57012C430.778 5.57012 430.114 5.73012 429.616 6.01012C429.095 6.29012 428.858 6.67012 428.858 7.13012C428.858 7.49012 428.976 7.75012 429.213 7.93012C429.45 8.13012 429.735 8.25012 430.114 8.31012C430.494 8.39012 431.063 8.45012 431.822 8.53012C432.865 8.65012 433.743 8.79012 434.43 8.97012C435.118 9.17012 435.663 9.47012 436.09 9.87012C436.517 10.2901 436.73 10.8501 436.73 11.5501C436.73 12.1701 436.517 12.7101 436.09 13.1701C435.663 13.6501 435.071 14.0101 434.359 14.2501C433.624 14.5101 432.818 14.6301 431.94 14.6301C430.352 14.6301 429.071 14.3301 428.122 13.7101C427.174 13.1101 426.676 12.2501 426.676 11.1501H428.62Z" fill="black"/>
<path d="M440.98 13.0101C441.312 13.4101 441.502 13.8901 441.502 14.4501C441.502 15.3101 441.194 15.9701 440.601 16.4501C440.008 16.9301 439.202 17.1901 438.158 17.2101V16.2701C438.846 16.2701 439.344 16.0901 439.676 15.7701C439.984 15.4501 440.15 15.0901 440.15 14.6701C440.15 14.5501 440.126 14.4701 440.126 14.4101C439.937 14.5701 439.652 14.6501 439.32 14.6501C438.941 14.6501 438.656 14.5701 438.419 14.3701C438.182 14.1901 438.063 13.9301 438.063 13.5701C438.063 13.2501 438.182 12.9701 438.467 12.7501C438.751 12.5301 439.131 12.4101 439.629 12.4101C440.198 12.4101 440.648 12.6101 440.98 13.0101Z" fill="black"/>
<path d="M456.507 0.510117C457.598 0.510117 458.547 0.690116 459.4 1.05012C460.23 1.41012 460.87 1.91012 461.321 2.55012C461.772 3.19012 462.009 3.95012 462.009 4.81012C462.009 5.69012 461.772 6.45012 461.321 7.09012C460.847 7.75012 460.206 8.25012 459.376 8.61012C458.547 8.97012 457.598 9.13012 456.507 9.13012H452.191V14.5101H450.128V0.510117H456.507ZM452.191 7.53012H456.317C457.408 7.53012 458.262 7.29012 458.926 6.79012C459.566 6.31012 459.898 5.65012 459.898 4.81012C459.898 3.99012 459.566 3.33012 458.926 2.85012C458.286 2.37012 457.432 2.11012 456.341 2.11012H452.191V7.53012Z" fill="black"/>
<path d="M474.517 13.0101V14.5101H473.45C472.667 14.5101 472.122 14.3901 471.79 14.1101C471.458 13.8501 471.268 13.4501 471.268 12.9301C470.32 14.0701 468.968 14.6301 467.213 14.6301C465.862 14.6301 464.771 14.3701 463.965 13.8301C463.158 13.3101 462.755 12.5701 462.755 11.6501C462.755 10.6301 463.158 9.85012 463.988 9.29012C464.818 8.75012 466.028 8.47012 467.616 8.47012H471.173V7.77012C471.173 7.11012 470.889 6.59012 470.367 6.21012C469.845 5.85012 469.11 5.65012 468.162 5.65012C467.308 5.65012 466.62 5.81012 466.075 6.13012C465.53 6.45012 465.198 6.85012 465.079 7.37012H463.135C463.277 6.37012 463.799 5.59012 464.7 5.03012C465.601 4.47012 466.786 4.19012 468.257 4.19012C469.798 4.19012 470.984 4.51012 471.837 5.15012C472.691 5.79012 473.118 6.69012 473.118 7.87012V12.2701C473.118 12.7701 473.379 13.0101 473.924 13.0101H474.517ZM471.173 9.85012H467.427C465.624 9.85012 464.723 10.4301 464.723 11.5501C464.723 12.0701 464.96 12.4701 465.435 12.7701C465.909 13.0901 466.549 13.2301 467.356 13.2301C468.541 13.2301 469.466 12.9701 470.154 12.4501C470.818 11.9301 471.173 11.2301 471.173 10.3501V9.85012Z" fill="black"/>
<path d="M485.094 4.81012C485.972 5.23012 486.659 5.83012 487.157 6.61012C487.655 7.41012 487.916 8.33012 487.916 9.41012C487.916 10.4501 487.655 11.3501 487.157 12.1301C486.659 12.9301 485.972 13.5301 485.094 13.9701C484.193 14.4101 483.197 14.6301 482.106 14.6301C481.11 14.6301 480.28 14.4901 479.593 14.1901C478.881 13.8901 478.336 13.4701 477.956 12.9501V18.5101H476.012V4.31012H477.696L477.956 5.95012C478.952 4.79012 480.352 4.19012 482.106 4.19012C483.221 4.19012 484.217 4.41012 485.094 4.81012ZM484.81 12.1301C485.545 11.4301 485.924 10.5301 485.924 9.41012C485.924 8.31012 485.545 7.41012 484.81 6.71012C484.074 6.01012 483.102 5.65012 481.917 5.65012C481.134 5.65012 480.446 5.81012 479.83 6.13012C479.213 6.45012 478.763 6.89012 478.431 7.45012C478.099 8.01012 477.933 8.65012 477.933 9.37012C477.933 10.1101 478.099 10.7701 478.431 11.3501C478.763 11.9301 479.213 12.3701 479.83 12.6901C480.446 13.0101 481.134 13.1701 481.917 13.1701C483.102 13.1701 484.074 12.8301 484.81 12.1301Z" fill="black"/>
<path d="M490.423 6.67012C490.897 5.89012 491.585 5.29012 492.462 4.85012C493.316 4.41012 494.312 4.19012 495.45 4.19012C496.541 4.19012 497.537 4.39012 498.39 4.77012C499.244 5.17012 499.908 5.73012 500.406 6.45012C500.88 7.19012 501.141 8.05012 501.189 9.03012C501.189 9.19012 501.165 9.41012 501.141 9.73012H491.751V9.87012C491.774 10.8701 492.13 11.6701 492.841 12.2701C493.529 12.8701 494.43 13.1701 495.569 13.1701C496.422 13.1701 497.157 12.9901 497.774 12.6301C498.39 12.2701 498.794 11.7501 499.007 11.0901H500.975C500.738 12.1301 500.145 12.9901 499.197 13.6501C498.248 14.3101 497.086 14.6301 495.711 14.6301C494.501 14.6301 493.458 14.4301 492.557 13.9901C491.656 13.5501 490.944 12.9501 490.446 12.1501C489.948 11.3501 489.711 10.4501 489.711 9.41012C489.711 8.37012 489.948 7.47012 490.423 6.67012ZM499.173 8.37012C499.078 7.51012 498.675 6.83012 498.011 6.35012C497.347 5.87012 496.493 5.63012 495.474 5.63012C494.549 5.63012 493.743 5.89012 493.055 6.39012C492.343 6.91012 491.964 7.57012 491.869 8.37012H499.173Z" fill="black"/>
<path d="M509.549 4.31012V5.91012H508.577C507.415 5.91012 506.585 6.25012 506.087 6.89012C505.589 7.55012 505.352 8.35012 505.352 9.31012V14.5101H503.408V4.31012H505.091L505.352 5.85012C505.684 5.39012 506.134 5.01012 506.704 4.73012C507.249 4.45012 508.008 4.31012 509.004 4.31012H509.549Z" fill="black"/>
<path d="M511.327 0.510117H513.272V14.5101H511.327V0.510117Z" fill="black"/>
<path d="M516.22 6.67012C516.695 5.89012 517.382 5.29012 518.26 4.85012C519.113 4.41012 520.109 4.19012 521.248 4.19012C522.338 4.19012 523.334 4.39012 524.188 4.77012C525.042 5.17012 525.706 5.73012 526.204 6.45012C526.678 7.19012 526.939 8.05012 526.986 9.03012C526.986 9.19012 526.963 9.41012 526.939 9.73012H517.548V9.87012C517.572 10.8701 517.928 11.6701 518.639 12.2701C519.327 12.8701 520.228 13.1701 521.366 13.1701C522.22 13.1701 522.955 12.9901 523.572 12.6301C524.188 12.2701 524.591 11.7501 524.805 11.0901H526.773C526.536 12.1301 525.943 12.9901 524.994 13.6501C524.046 14.3101 522.884 14.6301 521.508 14.6301C520.299 14.6301 519.256 14.4301 518.355 13.9901C517.453 13.5501 516.742 12.9501 516.244 12.1501C515.746 11.3501 515.509 10.4501 515.509 9.41012C515.509 8.37012 515.746 7.47012 516.22 6.67012ZM524.971 8.37012C524.876 7.51012 524.473 6.83012 523.809 6.35012C523.145 5.87012 522.291 5.63012 521.271 5.63012C520.347 5.63012 519.54 5.89012 518.853 6.39012C518.141 6.91012 517.762 7.57012 517.667 8.37012H524.971Z" fill="black"/>
<path d="M530.677 11.1501C530.7 11.7701 531.009 12.2701 531.625 12.6501C532.242 13.0501 533.024 13.2301 533.996 13.2301C534.85 13.2301 535.538 13.0901 536.06 12.8101C536.581 12.5301 536.866 12.1501 536.866 11.6701C536.866 11.2701 536.723 10.9701 536.486 10.7501C536.225 10.5501 535.893 10.3901 535.49 10.3101C535.087 10.2301 534.518 10.1501 533.783 10.0701C532.74 9.97012 531.886 9.83012 531.222 9.65012C530.558 9.49012 530.013 9.21012 529.609 8.83012C529.183 8.45012 528.993 7.93012 528.993 7.25012C528.993 6.65012 529.183 6.13012 529.586 5.65012C529.989 5.19012 530.534 4.83012 531.246 4.57012C531.933 4.31012 532.716 4.17012 533.593 4.17012C535.016 4.17012 536.154 4.45012 537.055 5.01012C537.957 5.57012 538.455 6.37012 538.549 7.41012H536.605C536.51 6.89012 536.202 6.45012 535.68 6.09012C535.135 5.75012 534.471 5.57012 533.664 5.57012C532.834 5.57012 532.17 5.73012 531.672 6.01012C531.151 6.29012 530.914 6.67012 530.914 7.13012C530.914 7.49012 531.032 7.75012 531.269 7.93012C531.506 8.13012 531.791 8.25012 532.17 8.31012C532.55 8.39012 533.119 8.45012 533.878 8.53012C534.921 8.65012 535.799 8.79012 536.486 8.97012C537.174 9.17012 537.719 9.47012 538.146 9.87012C538.573 10.2901 538.787 10.8501 538.787 11.5501C538.787 12.1701 538.573 12.7101 538.146 13.1701C537.719 13.6501 537.127 14.0101 536.415 14.2501C535.68 14.5101 534.874 14.6301 533.996 14.6301C532.408 14.6301 531.127 14.3301 530.179 13.7101C529.23 13.1101 528.732 12.2501 528.732 11.1501H530.677Z" fill="black"/>
<path d="M542.279 11.1501C542.302 11.7701 542.611 12.2701 543.227 12.6501C543.844 13.0501 544.626 13.2301 545.598 13.2301C546.452 13.2301 547.14 13.0901 547.662 12.8101C548.183 12.5301 548.468 12.1501 548.468 11.6701C548.468 11.2701 548.326 10.9701 548.088 10.7501C547.828 10.5501 547.495 10.3901 547.092 10.3101C546.689 10.2301 546.12 10.1501 545.385 10.0701C544.342 9.97012 543.488 9.83012 542.824 9.65012C542.16 9.49012 541.615 9.21012 541.211 8.83012C540.785 8.45012 540.595 7.93012 540.595 7.25012C540.595 6.65012 540.785 6.13012 541.188 5.65012C541.591 5.19012 542.136 4.83012 542.848 4.57012C543.535 4.31012 544.318 4.17012 545.195 4.17012C546.618 4.17012 547.756 4.45012 548.657 5.01012C549.559 5.57012 550.057 6.37012 550.151 7.41012H548.207C548.112 6.89012 547.804 6.45012 547.282 6.09012C546.737 5.75012 546.073 5.57012 545.266 5.57012C544.436 5.57012 543.773 5.73012 543.275 6.01012C542.753 6.29012 542.516 6.67012 542.516 7.13012C542.516 7.49012 542.634 7.75012 542.871 7.93012C543.109 8.13012 543.393 8.25012 543.772 8.31012C544.152 8.39012 544.721 8.45012 545.48 8.53012C546.523 8.65012 547.401 8.79012 548.088 8.97012C548.776 9.17012 549.321 9.47012 549.748 9.87012C550.175 10.2901 550.389 10.8501 550.389 11.5501C550.389 12.1701 550.175 12.7101 549.748 13.1701C549.321 13.6501 548.729 14.0101 548.017 14.2501C547.282 14.5101 546.476 14.6301 545.598 14.6301C544.01 14.6301 542.729 14.3301 541.781 13.7101C540.832 13.1101 540.334 12.2501 540.334 11.1501H542.279Z" fill="black"/>
<path d="M559.085 14.5101V0.510117H561.148V12.9101H568.713V14.5101H559.085Z" fill="black"/>
<path d="M572.428 13.9701C571.527 13.5301 570.816 12.9301 570.318 12.1301C569.796 11.3501 569.559 10.4501 569.559 9.41012C569.559 8.39012 569.796 7.49012 570.318 6.69012C570.816 5.91012 571.527 5.29012 572.428 4.85012C573.33 4.41012 574.373 4.19012 575.559 4.19012C576.721 4.19012 577.764 4.41012 578.665 4.85012C579.566 5.29012 580.278 5.91012 580.799 6.69012C581.297 7.49012 581.558 8.39012 581.558 9.41012C581.558 10.4501 581.297 11.3501 580.799 12.1301C580.278 12.9301 579.566 13.5301 578.665 13.9701C577.764 14.4101 576.721 14.6301 575.559 14.6301C574.373 14.6301 573.33 14.4101 572.428 13.9701ZM577.645 12.6901C578.262 12.3701 578.736 11.9301 579.068 11.3501C579.4 10.7901 579.566 10.1301 579.566 9.41012C579.566 8.69012 579.4 8.05012 579.068 7.47012C578.736 6.91012 578.262 6.45012 577.645 6.13012C577.029 5.81012 576.341 5.65012 575.559 5.65012C574.752 5.65012 574.065 5.81012 573.448 6.13012C572.832 6.45012 572.381 6.91012 572.049 7.47012C571.717 8.05012 571.551 8.69012 571.551 9.41012C571.551 10.1301 571.717 10.7901 572.049 11.3501C572.381 11.9301 572.832 12.3701 573.448 12.6901C574.065 13.0101 574.752 13.1701 575.559 13.1701C576.341 13.1701 577.029 13.0101 577.645 12.6901Z" fill="black"/>
<path d="M595.099 13.0101V14.5101H594.032C593.25 14.5101 592.704 14.3901 592.372 14.1101C592.04 13.8501 591.851 13.4501 591.851 12.9301C590.902 14.0701 589.55 14.6301 587.796 14.6301C586.444 14.6301 585.353 14.3701 584.547 13.8301C583.741 13.3101 583.337 12.5701 583.337 11.6501C583.337 10.6301 583.741 9.85012 584.571 9.29012C585.401 8.75012 586.61 8.47012 588.199 8.47012H591.756V7.77012C591.756 7.11012 591.471 6.59012 590.949 6.21012C590.428 5.85012 589.693 5.65012 588.744 5.65012C587.89 5.65012 587.203 5.81012 586.657 6.13012C586.112 6.45012 585.78 6.85012 585.661 7.37012H583.717C583.859 6.37012 584.381 5.59012 585.282 5.03012C586.183 4.47012 587.369 4.19012 588.839 4.19012C590.38 4.19012 591.566 4.51012 592.42 5.15012C593.273 5.79012 593.7 6.69012 593.7 7.87012V12.2701C593.7 12.7701 593.961 13.0101 594.506 13.0101H595.099ZM591.756 9.85012H588.009C586.207 9.85012 585.306 10.4301 585.306 11.5501C585.306 12.0701 585.543 12.4701 586.017 12.7701C586.491 13.0901 587.132 13.2301 587.938 13.2301C589.123 13.2301 590.048 12.9701 590.736 12.4501C591.4 11.9301 591.756 11.2301 591.756 10.3501V9.85012Z" fill="black"/>
<path d="M606.056 5.31012C606.957 6.07012 607.408 7.23012 607.408 8.83012V14.5101H605.463V8.93012C605.463 7.89012 605.178 7.09012 604.609 6.53012C604.04 5.97012 603.234 5.69012 602.191 5.69012C601.052 5.69012 600.151 6.03012 599.511 6.69012C598.847 7.37012 598.539 8.27012 598.539 9.41012V14.5101H596.594V4.31012H598.278L598.539 5.69012C599.44 4.69012 600.768 4.19012 602.523 4.19012C603.993 4.19012 605.155 4.57012 606.056 5.31012Z" fill="black"/>
<path d="M0 30.5101H2.06307V44.5101H0V30.5101Z" fill="black"/>
<path d="M14.4571 35.3101C15.3582 36.0701 15.8088 37.2301 15.8088 38.8301V44.5101H13.8642V38.9301C13.8642 37.8901 13.5797 37.0901 13.0106 36.5301C12.4414 35.9701 11.6352 35.6901 10.5918 35.6901C9.45354 35.6901 8.55242 36.0301 7.91216 36.6901C7.24818 37.3701 6.93991 38.2701 6.93991 39.4101V44.5101H4.9954V34.3101H6.67906L6.93991 35.6901C7.84102 34.6901 9.16898 34.1901 10.9238 34.1901C12.394 34.1901 13.556 34.5701 14.4571 35.3101Z" fill="black"/>
<path d="M19.0942 34.3101V33.1701C19.0942 32.2701 19.3313 31.6101 19.8293 31.1701C20.3273 30.7301 21.1336 30.5101 22.2481 30.5101H24.4772V32.0101H22.3667C21.8924 32.0101 21.5367 32.1101 21.347 32.2701C21.1336 32.4501 21.0387 32.7301 21.0387 33.1301V34.3101H24.4534V35.8101H21.0387V44.5101H19.0942V35.8101H16.9125V34.3101H19.0942Z" fill="black"/>
<path d="M31.9097 34.3101V35.9101H30.9374C29.7755 35.9101 28.9455 36.2501 28.4475 36.8901C27.9495 37.5501 27.7124 38.3501 27.7124 39.3101V44.5101H25.7679V34.3101H27.4515L27.7124 35.8501C28.0444 35.3901 28.4949 35.0101 29.0641 34.7301C29.6095 34.4501 30.3683 34.3101 31.3643 34.3101H31.9097Z" fill="black"/>
<path d="M44.4202 43.0101V44.5101H43.3531C42.5706 44.5101 42.0252 44.3901 41.6932 44.1101C41.3612 43.8501 41.1715 43.4501 41.1715 42.9301C40.2229 44.0701 38.8713 44.6301 37.1165 44.6301C35.7648 44.6301 34.674 44.3701 33.8677 43.8301C33.0614 43.3101 32.6583 42.5701 32.6583 41.6501C32.6583 40.6301 33.0614 39.8501 33.8914 39.2901C34.7214 38.7501 35.9308 38.4701 37.5196 38.4701H41.0766V37.7701C41.0766 37.1101 40.792 36.5901 40.2704 36.2101C39.7487 35.8501 39.0135 35.6501 38.065 35.6501C37.2113 35.6501 36.5236 35.8101 35.9782 36.1301C35.4328 36.4501 35.1008 36.8501 34.9822 37.3701H33.0377C33.18 36.3701 33.7017 35.5901 34.6028 35.0301C35.5039 34.4701 36.6896 34.1901 38.1599 34.1901C39.7012 34.1901 40.8869 34.5101 41.7406 35.1501C42.5943 35.7901 43.0211 36.6901 43.0211 37.8701V42.2701C43.0211 42.7701 43.282 43.0101 43.8274 43.0101H44.4202ZM41.0766 39.8501H37.3299C35.5276 39.8501 34.6265 40.4301 34.6265 41.5501C34.6265 42.0701 34.8637 42.4701 35.3379 42.7701C35.8122 43.0901 36.4525 43.2301 37.2587 43.2301C38.4444 43.2301 39.3692 42.9701 40.0569 42.4501C40.7209 41.9301 41.0766 41.2301 41.0766 40.3501V39.8501Z" fill="black"/>
<path d="M47.4328 41.1501C47.4565 41.7701 47.7647 42.2701 48.3813 42.6501C48.9978 43.0501 49.7804 43.2301 50.7527 43.2301C51.6063 43.2301 52.294 43.0901 52.8157 42.8101C53.3374 42.5301 53.622 42.1501 53.622 41.6701C53.622 41.2701 53.4797 40.9701 53.2426 40.7501C52.9817 40.5501 52.6497 40.3901 52.2466 40.3101C51.8435 40.2301 51.2743 40.1501 50.5392 40.0701C49.4958 39.9701 48.6421 39.8301 47.9782 39.6501C47.3142 39.4901 46.7688 39.2101 46.3657 38.8301C45.9388 38.4501 45.7491 37.9301 45.7491 37.2501C45.7491 36.6501 45.9388 36.1301 46.3419 35.6501C46.7451 35.1901 47.2905 34.8301 48.0019 34.5701C48.6896 34.3101 49.4721 34.1701 50.3495 34.1701C51.7723 34.1701 52.9106 34.4501 53.8117 35.0101C54.7128 35.5701 55.2108 36.3701 55.3056 37.4101H53.3611C53.2663 36.8901 52.958 36.4501 52.4363 36.0901C51.8909 35.7501 51.2269 35.5701 50.4207 35.5701C49.5907 35.5701 48.9267 35.7301 48.4287 36.0101C47.907 36.2901 47.6699 36.6701 47.6699 37.1301C47.6699 37.4901 47.7885 37.7501 48.0256 37.9301C48.2627 38.1301 48.5473 38.2501 48.9267 38.3101C49.3061 38.3901 49.8753 38.4501 50.6341 38.5301C51.6775 38.6501 52.5549 38.7901 53.2426 38.9701C53.9303 39.1701 54.4757 39.4701 54.9025 39.8701C55.3294 40.2901 55.5428 40.8501 55.5428 41.5501C55.5428 42.1701 55.3294 42.7101 54.9025 43.1701C54.4757 43.6501 53.8828 44.0101 53.1714 44.2501C52.4363 44.5101 51.6301 44.6301 50.7527 44.6301C49.1638 44.6301 47.8833 44.3301 46.9348 43.7101C45.9862 43.1101 45.4882 42.2501 45.4882 41.1501H47.4328Z" fill="black"/>
<path d="M58.555 35.8101H56.3733V34.3101H58.555V31.4501H60.4995V34.3101H63.5585V35.8101H60.4995V41.8301C60.4995 42.2701 60.5943 42.5701 60.784 42.7501C60.9737 42.9301 61.3294 43.0101 61.8274 43.0101H63.9379V44.5101H61.7088C60.5706 44.5101 59.7406 44.3101 59.2664 43.8701C58.7921 43.4501 58.555 42.7701 58.555 41.8501V35.8101Z" fill="black"/>
<path d="M71.4631 34.3101V35.9101H70.4908C69.3288 35.9101 68.4989 36.2501 68.0009 36.8901C67.5029 37.5501 67.2658 38.3501 67.2658 39.3101V44.5101H65.3213V34.3101H67.0049L67.2658 35.8501C67.5978 35.3901 68.0483 35.0101 68.6174 34.7301C69.1629 34.4501 69.9217 34.3101 70.9177 34.3101H71.4631Z" fill="black"/>
<path d="M83.6514 34.3101V44.5101H81.9678L81.7069 43.1501C80.7821 44.1501 79.5016 44.6301 77.8416 44.6301C76.3951 44.6301 75.2331 44.2701 74.3795 43.5101C73.5021 42.7701 73.0752 41.5901 73.0752 39.9901V34.3101H75.0197V39.8901C75.0197 40.9501 75.2806 41.7501 75.826 42.3101C76.3714 42.8701 77.1539 43.1301 78.1736 43.1301C79.2644 43.1301 80.1418 42.8101 80.7584 42.1301C81.3749 41.4701 81.7069 40.5701 81.7069 39.4101V34.3101H83.6514Z" fill="black"/>
<path d="M95.3133 43.6701C94.3648 44.3101 93.1791 44.6301 91.7563 44.6301C90.5706 44.6301 89.5509 44.4101 88.6735 43.9701C87.7724 43.5301 87.0847 42.9301 86.6104 42.1301C86.1124 41.3301 85.8753 40.4301 85.8753 39.3901C85.8753 38.3701 86.1124 37.4701 86.6104 36.6701C87.1084 35.8901 87.8198 35.2901 88.7209 34.8501C89.6221 34.4101 90.6417 34.1901 91.8274 34.1901C93.2502 34.1901 94.4122 34.5101 95.337 35.1501C96.2618 35.7901 96.8547 36.6701 97.0918 37.7901H95.1236C94.9339 37.1501 94.5307 36.6301 93.9379 36.2301C93.3214 35.8501 92.61 35.6501 91.7563 35.6501C90.5943 35.6501 89.6458 36.0101 88.9344 36.6901C88.223 37.3901 87.8673 38.2901 87.8673 39.3901C87.8673 40.5101 88.223 41.4301 88.9344 42.1301C89.6458 42.8301 90.5943 43.1701 91.7563 43.1701C92.6337 43.1701 93.3688 42.9901 93.9853 42.5901C94.5782 42.2101 94.9576 41.6701 95.1473 40.9901H97.0918C96.831 42.1301 96.2381 43.0301 95.3133 43.6701Z" fill="black"/>
<path d="M100.146 35.8101H97.9646V34.3101H100.146V31.4501H102.091V34.3101H105.15V35.8101H102.091V41.8301C102.091 42.2701 102.186 42.5701 102.375 42.7501C102.565 42.9301 102.921 43.0101 103.419 43.0101H105.529V44.5101H103.3C102.162 44.5101 101.332 44.3101 100.858 43.8701C100.383 43.4501 100.146 42.7701 100.146 41.8501V35.8101Z" fill="black"/>
<path d="M117.323 34.3101V44.5101H115.639L115.378 43.1501C114.453 44.1501 113.173 44.6301 111.513 44.6301C110.066 44.6301 108.904 44.2701 108.051 43.5101C107.173 42.7701 106.747 41.5901 106.747 39.9901V34.3101H108.691V39.8901C108.691 40.9501 108.952 41.7501 109.497 42.3101C110.043 42.8701 110.825 43.1301 111.845 43.1301C112.936 43.1301 113.813 42.8101 114.43 42.1301C115.046 41.4701 115.378 40.5701 115.378 39.4101V34.3101H117.323Z" fill="black"/>
<path d="M126.115 34.3101V35.9101H125.143C123.981 35.9101 123.151 36.2501 122.653 36.8901C122.155 37.5501 121.918 38.3501 121.918 39.3101V44.5101H119.973V34.3101H121.657L121.918 35.8501C122.25 35.3901 122.701 35.0101 123.27 34.7301C123.815 34.4501 124.574 34.3101 125.57 34.3101H126.115Z" fill="black"/>
<path d="M127.483 36.6701C127.958 35.8901 128.645 35.2901 129.523 34.8501C130.376 34.4101 131.372 34.1901 132.511 34.1901C133.601 34.1901 134.597 34.3901 135.451 34.7701C136.305 35.1701 136.969 35.7301 137.467 36.4501C137.941 37.1901 138.202 38.0501 138.249 39.0301C138.249 39.1901 138.225 39.4101 138.202 39.7301H128.811V39.8701C128.835 40.8701 129.191 41.6701 129.902 42.2701C130.59 42.8701 131.491 43.1701 132.629 43.1701C133.483 43.1701 134.218 42.9901 134.834 42.6301C135.451 42.2701 135.854 41.7501 136.068 41.0901H138.036C137.799 42.1301 137.206 42.9901 136.257 43.6501C135.309 44.3101 134.147 44.6301 132.771 44.6301C131.562 44.6301 130.519 44.4301 129.617 43.9901C128.716 43.5501 128.005 42.9501 127.507 42.1501C127.009 41.3501 126.772 40.4501 126.772 39.4101C126.772 38.3701 127.009 37.4701 127.483 36.6701ZM136.234 38.3701C136.139 37.5101 135.736 36.8301 135.072 36.3501C134.408 35.8701 133.554 35.6301 132.534 35.6301C131.609 35.6301 130.803 35.8901 130.115 36.3901C129.404 36.9101 129.025 37.5701 128.93 38.3701H136.234Z" fill="black"/>
<path d="M148.382 39.9301C148.453 40.8901 148.903 41.6501 149.733 42.2101C150.54 42.7701 151.583 43.0501 152.864 43.0501C154.002 43.0501 154.903 42.8501 155.614 42.4301C156.326 42.0101 156.681 41.4301 156.681 40.6701C156.681 40.1301 156.468 39.6901 156.089 39.3701C155.709 39.0501 155.211 38.8301 154.595 38.6701C153.978 38.5101 153.172 38.3701 152.128 38.2101C150.469 37.9701 149.141 37.5901 148.168 37.0301C147.172 36.4901 146.698 35.6101 146.698 34.3701C146.698 33.5901 146.935 32.8901 147.409 32.2901C147.884 31.6901 148.548 31.2101 149.401 30.8701C150.255 30.5501 151.251 30.3701 152.366 30.3701C153.528 30.3701 154.571 30.5501 155.472 30.9101C156.373 31.2701 157.085 31.7901 157.606 32.4301C158.128 33.0701 158.413 33.8101 158.484 34.6501H156.444C156.302 33.8501 155.875 33.1901 155.14 32.6901C154.381 32.2101 153.456 31.9501 152.366 31.9501C151.251 31.9501 150.374 32.1701 149.733 32.5701C149.069 32.9701 148.761 33.5501 148.761 34.2701C148.761 34.8101 148.951 35.2301 149.33 35.5301C149.71 35.8301 150.184 36.0501 150.801 36.2101C151.393 36.3701 152.223 36.5101 153.267 36.6501C154.927 36.8901 156.255 37.2901 157.251 37.8501C158.247 38.4101 158.745 39.2901 158.745 40.5101C158.745 41.3101 158.484 42.0301 157.986 42.6501C157.488 43.2901 156.8 43.7701 155.899 44.1101C154.998 44.4701 153.978 44.6301 152.84 44.6301C151.536 44.6301 150.397 44.4501 149.449 44.0501C148.477 43.6501 147.718 43.1101 147.196 42.3901C146.674 41.6701 146.39 40.8501 146.342 39.9301H148.382Z" fill="black"/>
<path d="M161.363 36.6701C161.837 35.8901 162.525 35.2901 163.402 34.8501C164.256 34.4101 165.252 34.1901 166.39 34.1901C167.481 34.1901 168.477 34.3901 169.331 34.7701C170.184 35.1701 170.848 35.7301 171.346 36.4501C171.821 37.1901 172.082 38.0501 172.129 39.0301C172.129 39.1901 172.105 39.4101 172.082 39.7301H162.691V39.8701C162.715 40.8701 163.07 41.6701 163.782 42.2701C164.469 42.8701 165.371 43.1701 166.509 43.1701C167.363 43.1701 168.098 42.9901 168.714 42.6301C169.331 42.2701 169.734 41.7501 169.947 41.0901H171.916C171.678 42.1301 171.086 42.9901 170.137 43.6501C169.188 44.3101 168.027 44.6301 166.651 44.6301C165.442 44.6301 164.398 44.4301 163.497 43.9901C162.596 43.5501 161.885 42.9501 161.387 42.1501C160.889 41.3501 160.652 40.4501 160.652 39.4101C160.652 38.3701 160.889 37.4701 161.363 36.6701ZM170.113 38.3701C170.018 37.5101 169.615 36.8301 168.951 36.3501C168.287 35.8701 167.434 35.6301 166.414 35.6301C165.489 35.6301 164.683 35.8901 163.995 36.3901C163.284 36.9101 162.904 37.5701 162.81 38.3701H170.113Z" fill="black"/>
<path d="M180.49 34.3101V35.9101H179.517C178.355 35.9101 177.525 36.2501 177.027 36.8901C176.529 37.5501 176.292 38.3501 176.292 39.3101V44.5101H174.348V34.3101H176.031L176.292 35.8501C176.624 35.3901 177.075 35.0101 177.644 34.7301C178.189 34.4501 178.948 34.3101 179.944 34.3101H180.49Z" fill="black"/>
<path d="M181.174 34.3101H183.261L186.913 42.6501L190.541 34.3101H192.58L188.051 44.5101H185.703L181.174 34.3101Z" fill="black"/>
<path d="M195.905 30.6701C196.142 30.8701 196.261 31.1301 196.261 31.4301C196.261 31.7501 196.142 31.9901 195.905 32.1901C195.668 32.3901 195.36 32.4901 195.004 32.4901C194.625 32.4901 194.34 32.3901 194.103 32.1901C193.866 31.9901 193.747 31.7501 193.747 31.4301C193.747 31.1301 193.866 30.8701 194.103 30.6701C194.34 30.4701 194.625 30.3701 195.004 30.3701C195.36 30.3701 195.668 30.4701 195.905 30.6701ZM194.032 34.3101H195.976V44.5101H194.032V34.3101Z" fill="black"/>
<path d="M207.651 43.6701C206.703 44.3101 205.517 44.6301 204.094 44.6301C202.909 44.6301 201.889 44.4101 201.012 43.9701C200.111 43.5301 199.423 42.9301 198.949 42.1301C198.451 41.3301 198.213 40.4301 198.213 39.3901C198.213 38.3701 198.451 37.4701 198.949 36.6701C199.447 35.8901 200.158 35.2901 201.059 34.8501C201.96 34.4101 202.98 34.1901 204.166 34.1901C205.588 34.1901 206.75 34.5101 207.675 35.1501C208.6 35.7901 209.193 36.6701 209.43 37.7901H207.462C207.272 37.1501 206.869 36.6301 206.276 36.2301C205.659 35.8501 204.948 35.6501 204.094 35.6501C202.932 35.6501 201.984 36.0101 201.272 36.6901C200.561 37.3901 200.205 38.2901 200.205 39.3901C200.205 40.5101 200.561 41.4301 201.272 42.1301C201.984 42.8301 202.932 43.1701 204.094 43.1701C204.972 43.1701 205.707 42.9901 206.323 42.5901C206.916 42.2101 207.296 41.6701 207.485 40.9901H209.43C209.169 42.1301 208.576 43.0301 207.651 43.6701Z" fill="black"/>
<path d="M211.708 36.6701C212.182 35.8901 212.87 35.2901 213.747 34.8501C214.601 34.4101 215.597 34.1901 216.735 34.1901C217.826 34.1901 218.822 34.3901 219.676 34.7701C220.529 35.1701 221.193 35.7301 221.691 36.4501C222.166 37.1901 222.426 38.0501 222.474 39.0301C222.474 39.1901 222.45 39.4101 222.426 39.7301H213.036V39.8701C213.06 40.8701 213.415 41.6701 214.127 42.2701C214.814 42.8701 215.715 43.1701 216.854 43.1701C217.707 43.1701 218.443 42.9901 219.059 42.6301C219.676 42.2701 220.079 41.7501 220.292 41.0901H222.26C222.023 42.1301 221.43 42.9901 220.482 43.6501C219.533 44.3101 218.371 44.6301 216.996 44.6301C215.787 44.6301 214.743 44.4301 213.842 43.9901C212.941 43.5501 212.23 42.9501 211.732 42.1501C211.234 41.3501 210.996 40.4501 210.996 39.4101C210.996 38.3701 211.234 37.4701 211.708 36.6701ZM220.458 38.3701C220.363 37.5101 219.96 36.8301 219.296 36.3501C218.632 35.8701 217.779 35.6301 216.759 35.6301C215.834 35.6301 215.028 35.8901 214.34 36.3901C213.629 36.9101 213.249 37.5701 213.154 38.3701H220.458Z" fill="black"/>
<path d="M226.134 43.0101C226.466 43.4101 226.656 43.8901 226.656 44.4501C226.656 45.3101 226.348 45.9701 225.755 46.4501C225.162 46.9301 224.356 47.1901 223.312 47.2101V46.2701C224 46.2701 224.498 46.0901 224.83 45.7701C225.138 45.4501 225.304 45.0901 225.304 44.6701C225.304 44.5501 225.281 44.4701 225.281 44.4101C225.091 44.5701 224.806 44.6501 224.474 44.6501C224.095 44.6501 223.81 44.5701 223.573 44.3701C223.336 44.1901 223.218 43.9301 223.218 43.5701C223.218 43.2501 223.336 42.9701 223.621 42.7501C223.905 42.5301 224.285 42.4101 224.783 42.4101C225.352 42.4101 225.802 42.6101 226.134 43.0101Z" fill="black"/>
<path d="M249.487 41.1701C248.823 42.2501 247.874 43.1101 246.689 43.7101C245.479 44.3301 244.104 44.6301 242.586 44.6301C241.045 44.6301 239.669 44.3301 238.484 43.7101C237.274 43.1101 236.326 42.2501 235.662 41.1701C234.998 40.0901 234.666 38.8701 234.666 37.5101C234.666 36.1501 234.998 34.9301 235.662 33.8501C236.326 32.7701 237.274 31.9301 238.484 31.3101C239.669 30.7101 241.045 30.3901 242.586 30.3901C244.104 30.3901 245.479 30.7101 246.689 31.3101C247.874 31.9301 248.823 32.7701 249.487 33.8501C250.151 34.9301 250.507 36.1501 250.507 37.5101C250.507 38.8701 250.151 40.0901 249.487 41.1701ZM237.512 40.3701C237.986 41.2101 238.673 41.8501 239.551 42.3301C240.428 42.8101 241.448 43.0301 242.586 43.0301C243.724 43.0301 244.72 42.8101 245.598 42.3301C246.475 41.8501 247.163 41.2101 247.661 40.3701C248.135 39.5301 248.396 38.5901 248.396 37.5101C248.396 36.4501 248.135 35.5101 247.661 34.6701C247.163 33.8301 246.475 33.1901 245.598 32.7101C244.72 32.2301 243.724 31.9901 242.586 31.9901C241.448 31.9901 240.428 32.2301 239.551 32.7101C238.673 33.1901 237.986 33.8301 237.512 34.6701C237.014 35.5101 236.776 36.4501 236.776 37.5101C236.776 38.5901 237.014 39.5301 237.512 40.3701Z" fill="black"/>
<path d="M261.912 34.8101C262.789 35.2301 263.477 35.8301 263.975 36.6101C264.473 37.4101 264.734 38.3301 264.734 39.4101C264.734 40.4501 264.473 41.3501 263.975 42.1301C263.477 42.9301 262.789 43.5301 261.912 43.9701C261.01 44.4101 260.015 44.6301 258.924 44.6301C257.928 44.6301 257.098 44.4901 256.41 44.1901C255.699 43.8901 255.153 43.4701 254.774 42.9501V48.5101H252.829V34.3101H254.513L254.774 35.9501C255.77 34.7901 257.169 34.1901 258.924 34.1901C260.038 34.1901 261.034 34.4101 261.912 34.8101ZM261.627 42.1301C262.362 41.4301 262.742 40.5301 262.742 39.4101C262.742 38.3101 262.362 37.4101 261.627 36.7101C260.892 36.0101 259.92 35.6501 258.734 35.6501C257.951 35.6501 257.264 35.8101 256.647 36.1301C256.031 36.4501 255.58 36.8901 255.248 37.4501C254.916 38.0101 254.75 38.6501 254.75 39.3701C254.75 40.1101 254.916 40.7701 255.248 41.3501C255.58 41.9301 256.031 42.3701 256.647 42.6901C257.264 43.0101 257.951 43.1701 258.734 43.1701C259.92 43.1701 260.892 42.8301 261.627 42.1301Z" fill="black"/>
<path d="M267.24 36.6701C267.714 35.8901 268.402 35.2901 269.279 34.8501C270.133 34.4101 271.129 34.1901 272.267 34.1901C273.358 34.1901 274.354 34.3901 275.208 34.7701C276.062 35.1701 276.726 35.7301 277.224 36.4501C277.698 37.1901 277.959 38.0501 278.006 39.0301C278.006 39.1901 277.982 39.4101 277.959 39.7301H268.568V39.8701C268.592 40.8701 268.947 41.6701 269.659 42.2701C270.347 42.8701 271.248 43.1701 272.386 43.1701C273.24 43.1701 273.975 42.9901 274.591 42.6301C275.208 42.2701 275.611 41.7501 275.824 41.0901H277.793C277.555 42.1301 276.963 42.9901 276.014 43.6501C275.066 44.3101 273.904 44.6301 272.528 44.6301C271.319 44.6301 270.275 44.4301 269.374 43.9901C268.473 43.5501 267.762 42.9501 267.264 42.1501C266.766 41.3501 266.529 40.4501 266.529 39.4101C266.529 38.3701 266.766 37.4701 267.24 36.6701ZM275.99 38.3701C275.896 37.5101 275.492 36.8301 274.828 36.3501C274.164 35.8701 273.311 35.6301 272.291 35.6301C271.366 35.6301 270.56 35.8901 269.872 36.3901C269.161 36.9101 268.781 37.5701 268.687 38.3701H275.99Z" fill="black"/>
<path d="M289.687 35.3101C290.588 36.0701 291.038 37.2301 291.038 38.8301V44.5101H289.094V38.9301C289.094 37.8901 288.809 37.0901 288.24 36.5301C287.671 35.9701 286.865 35.6901 285.821 35.6901C284.683 35.6901 283.782 36.0301 283.142 36.6901C282.478 37.3701 282.169 38.2701 282.169 39.4101V44.5101H280.225V34.3101H281.909L282.169 35.6901C283.071 34.6901 284.398 34.1901 286.153 34.1901C287.624 34.1901 288.786 34.5701 289.687 35.3101Z" fill="black"/>
<path d="M305.889 30.5101C307.644 30.5101 308.996 30.8301 309.944 31.4701C310.893 32.1101 311.391 33.0101 311.391 34.1301C311.391 34.9701 311.13 35.6501 310.632 36.1901C310.11 36.7301 309.375 37.1101 308.427 37.3101C310.845 37.7101 312.078 38.8101 312.078 40.6501C312.078 41.8501 311.557 42.8101 310.513 43.4901C309.47 44.1701 308 44.5101 306.055 44.5101H300.008V30.5101H305.889ZM302.071 36.5901H305.984C307.027 36.5901 307.857 36.3901 308.45 35.9901C309.019 35.5901 309.328 35.0501 309.328 34.3301C309.328 33.6301 309.019 33.0901 308.45 32.6901C307.881 32.2901 307.051 32.0901 305.984 32.0901H302.071V36.5901ZM302.071 42.9301H306.055C307.312 42.9301 308.284 42.7301 308.948 42.3101C309.612 41.9101 309.968 41.3301 309.968 40.5901C309.968 39.8101 309.612 39.2101 308.948 38.7901C308.261 38.3701 307.288 38.1501 306.055 38.1501H302.071V42.9301Z" fill="black"/>
<path d="M325.81 43.0101V44.5101H324.743C323.96 44.5101 323.415 44.3901 323.083 44.1101C322.751 43.8501 322.561 43.4501 322.561 42.9301C321.612 44.0701 320.261 44.6301 318.506 44.6301C317.154 44.6301 316.063 44.3701 315.257 43.8301C314.451 43.3101 314.048 42.5701 314.048 41.6501C314.048 40.6301 314.451 39.8501 315.281 39.2901C316.111 38.7501 317.32 38.4701 318.909 38.4701H322.466V37.7701C322.466 37.1101 322.182 36.5901 321.66 36.2101C321.138 35.8501 320.403 35.6501 319.454 35.6501C318.601 35.6501 317.913 35.8101 317.368 36.1301C316.822 36.4501 316.49 36.8501 316.372 37.3701H314.427C314.57 36.3701 315.091 35.5901 315.992 35.0301C316.893 34.4701 318.079 34.1901 319.549 34.1901C321.091 34.1901 322.276 34.5101 323.13 35.1501C323.984 35.7901 324.411 36.6901 324.411 37.8701V42.2701C324.411 42.7701 324.671 43.0101 325.217 43.0101H325.81ZM322.466 39.8501H318.719C316.917 39.8501 316.016 40.4301 316.016 41.5501C316.016 42.0701 316.253 42.4701 316.727 42.7701C317.202 43.0901 317.842 43.2301 318.648 43.2301C319.834 43.2301 320.759 42.9701 321.446 42.4501C322.11 41.9301 322.466 41.2301 322.466 40.3501V39.8501Z" fill="black"/>
<path d="M336.766 35.3101C337.667 36.0701 338.118 37.2301 338.118 38.8301V44.5101H336.173V38.9301C336.173 37.8901 335.889 37.0901 335.32 36.5301C334.751 35.9701 333.944 35.6901 332.901 35.6901C331.763 35.6901 330.862 36.0301 330.221 36.6901C329.557 37.3701 329.249 38.2701 329.249 39.4101V44.5101H327.305V34.3101H328.988L329.249 35.6901C330.15 34.6901 331.478 34.1901 333.233 34.1901C334.703 34.1901 335.865 34.5701 336.766 35.3101Z" fill="black"/>
<path d="M340.597 30.5101H342.542V39.7901L348.683 34.3101H351.007L346.359 38.4901L351.339 44.5101H348.992L344.96 39.6701L342.542 41.8101V44.5101H340.597V30.5101Z" fill="black"/>
<path d="M354.721 30.6701C354.958 30.8701 355.077 31.1301 355.077 31.4301C355.077 31.7501 354.958 31.9901 354.721 32.1901C354.484 32.3901 354.176 32.4901 353.82 32.4901C353.44 32.4901 353.156 32.3901 352.919 32.1901C352.682 31.9901 352.563 31.7501 352.563 31.4301C352.563 31.1301 352.682 30.8701 352.919 30.6701C353.156 30.4701 353.44 30.3701 353.82 30.3701C354.176 30.3701 354.484 30.4701 354.721 30.6701ZM352.848 34.3101H354.792V44.5101H352.848V34.3101Z" fill="black"/>
<path d="M366.918 35.3101C367.819 36.0701 368.269 37.2301 368.269 38.8301V44.5101H366.325V38.9301C366.325 37.8901 366.04 37.0901 365.471 36.5301C364.902 35.9701 364.096 35.6901 363.052 35.6901C361.914 35.6901 361.013 36.0301 360.373 36.6901C359.709 37.3701 359.4 38.2701 359.4 39.4101V44.5101H357.456V34.3101H359.14L359.4 35.6901C360.302 34.6901 361.63 34.1901 363.384 34.1901C364.855 34.1901 366.017 34.5701 366.918 35.3101Z" fill="black"/>
<path d="M382.226 34.3101V44.0101C382.226 47.0901 380.21 48.6301 376.226 48.6301C374.661 48.6301 373.381 48.3301 372.385 47.7301C371.389 47.1301 370.82 46.2901 370.677 45.1701H372.669C372.812 45.8101 373.215 46.3101 373.879 46.6501C374.519 47.0101 375.349 47.1701 376.369 47.1701C378.977 47.1701 380.281 46.1101 380.281 43.9501V42.7501C379.404 44.0101 378.029 44.6301 376.131 44.6301C374.993 44.6301 373.997 44.4301 373.12 44.0101C372.242 43.6101 371.555 43.0101 371.057 42.2101C370.559 41.4301 370.322 40.4901 370.322 39.4101C370.322 38.3901 370.559 37.4901 371.057 36.6901C371.555 35.9101 372.242 35.2901 373.144 34.8501C374.021 34.4101 375.017 34.1901 376.131 34.1901C377.104 34.1901 377.934 34.3701 378.645 34.6901C379.333 35.0101 379.878 35.4701 380.281 36.0701L380.542 34.3101H382.226ZM378.384 42.7101C379.001 42.3901 379.475 41.9501 379.807 41.3901C380.139 40.8301 380.305 40.1701 380.305 39.4501C380.305 38.7301 380.139 38.0701 379.807 37.4901C379.475 36.9101 379.001 36.4501 378.384 36.1301C377.768 35.8101 377.08 35.6501 376.321 35.6501C375.112 35.6501 374.139 36.0101 373.404 36.7101C372.669 37.4101 372.314 38.3101 372.314 39.4101C372.314 40.5301 372.669 41.4301 373.404 42.1301C374.139 42.8301 375.112 43.1701 376.321 43.1701C377.08 43.1701 377.768 43.0301 378.384 42.7101Z" fill="black"/>
<path d="M387.104 43.0101C387.436 43.4101 387.625 43.8901 387.625 44.4501C387.625 45.3101 387.317 45.9701 386.724 46.4501C386.132 46.9301 385.325 47.1901 384.282 47.2101V46.2701C384.97 46.2701 385.467 46.0901 385.799 45.7701C386.108 45.4501 386.274 45.0901 386.274 44.6701C386.274 44.5501 386.25 44.4701 386.25 44.4101C386.06 44.5701 385.776 44.6501 385.444 44.6501C385.064 44.6501 384.78 44.5701 384.543 44.3701C384.306 44.1901 384.187 43.9301 384.187 43.5701C384.187 43.2501 384.306 42.9701 384.59 42.7501C384.875 42.5301 385.254 42.4101 385.752 42.4101C386.321 42.4101 386.772 42.6101 387.104 43.0101Z" fill="black"/>
<path d="M402.631 30.5101C403.722 30.5101 404.67 30.6901 405.524 31.0501C406.354 31.4101 406.994 31.9101 407.445 32.5501C407.895 33.1901 408.132 33.9501 408.132 34.8101C408.132 35.6901 407.895 36.4501 407.445 37.0901C406.97 37.7501 406.33 38.2501 405.5 38.6101C404.67 38.9701 403.722 39.1301 402.631 39.1301H398.315V44.5101H396.252V30.5101H402.631ZM398.315 37.5301H402.441C403.532 37.5301 404.385 37.2901 405.049 36.7901C405.69 36.3101 406.022 35.6501 406.022 34.8101C406.022 33.9901 405.69 33.3301 405.049 32.8501C404.409 32.3701 403.556 32.1101 402.465 32.1101H398.315V37.5301Z" fill="black"/>
<path d="M411.755 39.9301C411.826 40.8901 412.276 41.6501 413.106 42.2101C413.912 42.7701 414.956 43.0501 416.236 43.0501C417.375 43.0501 418.276 42.8501 418.987 42.4301C419.699 42.0101 420.054 41.4301 420.054 40.6701C420.054 40.1301 419.841 39.6901 419.461 39.3701C419.082 39.0501 418.584 38.8301 417.967 38.6701C417.351 38.5101 416.545 38.3701 415.501 38.2101C413.841 37.9701 412.513 37.5901 411.541 37.0301C410.545 36.4901 410.071 35.6101 410.071 34.3701C410.071 33.5901 410.308 32.8901 410.782 32.2901C411.257 31.6901 411.92 31.2101 412.774 30.8701C413.628 30.5501 414.624 30.3701 415.738 30.3701C416.9 30.3701 417.944 30.5501 418.845 30.9101C419.746 31.2701 420.457 31.7901 420.979 32.4301C421.501 33.0701 421.785 33.8101 421.856 34.6501H419.817C419.675 33.8501 419.248 33.1901 418.513 32.6901C417.754 32.2101 416.829 31.9501 415.738 31.9501C414.624 31.9501 413.746 32.1701 413.106 32.5701C412.442 32.9701 412.134 33.5501 412.134 34.2701C412.134 34.8101 412.324 35.2301 412.703 35.5301C413.082 35.8301 413.557 36.0501 414.173 36.2101C414.766 36.3701 415.596 36.5101 416.639 36.6501C418.299 36.8901 419.627 37.2901 420.623 37.8501C421.619 38.4101 422.117 39.2901 422.117 40.5101C422.117 41.3101 421.856 42.0301 421.358 42.6501C420.86 43.2901 420.173 43.7701 419.272 44.1101C418.371 44.4701 417.351 44.6301 416.213 44.6301C414.908 44.6301 413.77 44.4501 412.822 44.0501C411.849 43.6501 411.091 43.1101 410.569 42.3901C410.047 41.6701 409.763 40.8501 409.715 39.9301H411.755Z" fill="black"/>
<path d="M424.736 30.5101H429.645C431.352 30.5101 432.822 30.8101 434.079 31.3901C435.336 31.9701 436.308 32.7901 436.972 33.8301C437.636 34.8901 437.992 36.1101 437.992 37.5101C437.992 38.9101 437.636 40.1301 436.972 41.1901C436.308 42.2501 435.336 43.0701 434.079 43.6501C432.822 44.2301 431.352 44.5101 429.645 44.5101H424.736V30.5101ZM429.645 42.9101C431.613 42.9101 433.154 42.4301 434.245 41.4501C435.336 40.4901 435.881 39.1701 435.881 37.5101C435.881 35.8501 435.336 34.5301 434.245 33.5701C433.154 32.6101 431.636 32.1101 429.645 32.1101H426.799V42.9101H429.645Z" fill="black"/>
<path d="M446.361 38.3701C447.286 37.6901 447.997 37.0901 448.472 36.5301C448.946 35.9701 449.183 35.3501 449.183 34.6501C449.183 33.7901 448.851 33.1101 448.187 32.6101C447.523 32.1301 446.646 31.8701 445.555 31.8701C444.464 31.8701 443.61 32.1501 442.97 32.7101C442.306 33.2701 441.998 34.0301 441.998 34.9901V35.2501H440.006V34.8901C440.006 34.0101 440.219 33.2301 440.694 32.5501C441.144 31.8701 441.784 31.3501 442.638 30.9501C443.492 30.5701 444.464 30.3701 445.555 30.3701C447.31 30.3701 448.709 30.7501 449.705 31.5101C450.701 32.2701 451.223 33.2901 451.223 34.5701C451.223 35.2501 451.056 35.8501 450.748 36.3901C450.44 36.9501 450.037 37.4501 449.563 37.8901C449.065 38.3301 448.424 38.8501 447.642 39.4101L442.662 42.9701H451.341V44.5101H439.911V43.0901L446.361 38.3701Z" fill="black"/>
<path d="M471.24 43.0101V44.5101H470.173C469.391 44.5101 468.845 44.3901 468.513 44.1101C468.181 43.8501 467.991 43.4501 467.991 42.9301C467.043 44.0701 465.691 44.6301 463.936 44.6301C462.585 44.6301 461.494 44.3701 460.688 43.8301C459.881 43.3101 459.478 42.5701 459.478 41.6501C459.478 40.6301 459.881 39.8501 460.711 39.2901C461.541 38.7501 462.751 38.4701 464.34 38.4701H467.897V37.7701C467.897 37.1101 467.612 36.5901 467.09 36.2101C466.569 35.8501 465.834 35.6501 464.885 35.6501C464.031 35.6501 463.344 35.8101 462.798 36.1301C462.253 36.4501 461.921 36.8501 461.802 37.3701H459.858C460 36.3701 460.522 35.5901 461.423 35.0301C462.324 34.4701 463.51 34.1901 464.98 34.1901C466.521 34.1901 467.707 34.5101 468.561 35.1501C469.414 35.7901 469.841 36.6901 469.841 37.8701V42.2701C469.841 42.7701 470.102 43.0101 470.647 43.0101H471.24ZM467.897 39.8501H464.15C462.348 39.8501 461.447 40.4301 461.447 41.5501C461.447 42.0701 461.684 42.4701 462.158 42.7701C462.632 43.0901 463.272 43.2301 464.079 43.2301C465.264 43.2301 466.189 42.9701 466.877 42.4501C467.541 41.9301 467.897 41.2301 467.897 40.3501V39.8501Z" fill="black"/>
<path d="M482.197 35.3101C483.098 36.0701 483.548 37.2301 483.548 38.8301V44.5101H481.604V38.9301C481.604 37.8901 481.319 37.0901 480.75 36.5301C480.181 35.9701 479.375 35.6901 478.331 35.6901C477.193 35.6901 476.292 36.0301 475.652 36.6901C474.988 37.3701 474.68 38.2701 474.68 39.4101V44.5101H472.735V34.3101H474.419L474.68 35.6901C475.581 34.6901 476.909 34.1901 478.663 34.1901C480.134 34.1901 481.296 34.5701 482.197 35.3101Z" fill="black"/>
<path d="M497.505 30.5101V44.5101H495.821L495.56 42.8701C494.541 44.0501 493.165 44.6301 491.411 44.6301C490.272 44.6301 489.276 44.4301 488.399 44.0101C487.522 43.6101 486.834 43.0101 486.336 42.2101C485.838 41.4301 485.601 40.4901 485.601 39.4101C485.601 38.3901 485.838 37.4901 486.336 36.6901C486.834 35.9101 487.522 35.2901 488.423 34.8501C489.3 34.4101 490.296 34.1901 491.411 34.1901C492.383 34.1901 493.213 34.3501 493.924 34.6501C494.612 34.9501 495.157 35.3501 495.56 35.8701V30.5101H497.505ZM493.663 42.7101C494.28 42.3901 494.754 41.9501 495.086 41.3901C495.418 40.8301 495.584 40.1701 495.584 39.4501C495.584 38.7301 495.418 38.0701 495.086 37.4901C494.754 36.9101 494.28 36.4501 493.663 36.1301C493.047 35.8101 492.359 35.6501 491.6 35.6501C490.391 35.6501 489.419 36.0101 488.684 36.7101C487.948 37.4101 487.593 38.3101 487.593 39.4101C487.593 40.5301 487.948 41.4301 488.684 42.1301C489.419 42.8301 490.391 43.1701 491.6 43.1701C492.359 43.1701 493.047 43.0301 493.663 42.7101Z" fill="black"/>
<path d="M512.526 30.5101C514.28 30.5101 515.632 30.8301 516.581 31.4701C517.529 32.1101 518.027 33.0101 518.027 34.1301C518.027 34.9701 517.766 35.6501 517.268 36.1901C516.747 36.7301 516.011 37.1101 515.063 37.3101C517.482 37.7101 518.715 38.8101 518.715 40.6501C518.715 41.8501 518.193 42.8101 517.15 43.4901C516.106 44.1701 514.636 44.5101 512.692 44.5101H506.645V30.5101H512.526ZM508.708 36.5901H512.62C513.664 36.5901 514.494 36.3901 515.087 35.9901C515.656 35.5901 515.964 35.0501 515.964 34.3301C515.964 33.6301 515.656 33.0901 515.087 32.6901C514.518 32.2901 513.688 32.0901 512.62 32.0901H508.708V36.5901ZM508.708 42.9301H512.692C513.948 42.9301 514.921 42.7301 515.585 42.3101C516.249 41.9101 516.604 41.3301 516.604 40.5901C516.604 39.8101 516.249 39.2101 515.585 38.7901C514.897 38.3701 513.925 38.1501 512.692 38.1501H508.708V42.9301Z" fill="black"/>
<path d="M521.419 44.5101V30.5101H523.316L532.233 41.3101V30.5101H534.248V44.5101H532.351L523.435 33.7101V44.5101H521.419Z" fill="black"/>
<path d="M543.846 30.5101C544.937 30.5101 545.886 30.6901 546.74 31.0501C547.57 31.4101 548.21 31.9101 548.66 32.5501C549.111 33.1901 549.348 33.9501 549.348 34.8101C549.348 35.6901 549.111 36.4501 548.66 37.0901C548.186 37.7501 547.546 38.2501 546.716 38.6101C545.886 38.9701 544.937 39.1301 543.846 39.1301H539.531V44.5101H537.468V30.5101H543.846ZM539.531 37.5301H543.657C544.748 37.5301 545.601 37.2901 546.265 36.7901C546.906 36.3101 547.238 35.6501 547.238 34.8101C547.238 33.9901 546.906 33.3301 546.265 32.8501C545.625 32.3701 544.771 32.1101 543.68 32.1101H539.531V37.5301Z" fill="black"/>
<path d="M551.547 44.5101V30.5101H553.611V42.9101H561.175V44.5101H551.547Z" fill="black"/>
<path d="M571.01 39.9301C571.081 40.8901 571.532 41.6501 572.362 42.2101C573.168 42.7701 574.211 43.0501 575.492 43.0501C576.63 43.0501 577.531 42.8501 578.243 42.4301C578.954 42.0101 579.31 41.4301 579.31 40.6701C579.31 40.1301 579.096 39.6901 578.717 39.3701C578.338 39.0501 577.84 38.8301 577.223 38.6701C576.607 38.5101 575.8 38.3701 574.757 38.2101C573.097 37.9701 571.769 37.5901 570.797 37.0301C569.801 36.4901 569.327 35.6101 569.327 34.3701C569.327 33.5901 569.564 32.8901 570.038 32.2901C570.512 31.6901 571.176 31.2101 572.03 30.8701C572.883 30.5501 573.879 30.3701 574.994 30.3701C576.156 30.3701 577.199 30.5501 578.1 30.9101C579.002 31.2701 579.713 31.7901 580.235 32.4301C580.756 33.0701 581.041 33.8101 581.112 34.6501H579.073C578.93 33.8501 578.504 33.1901 577.769 32.6901C577.01 32.2101 576.085 31.9501 574.994 31.9501C573.879 31.9501 573.002 32.1701 572.362 32.5701C571.698 32.9701 571.39 33.5501 571.39 34.2701C571.39 34.8101 571.579 35.2301 571.959 35.5301C572.338 35.8301 572.812 36.0501 573.429 36.2101C574.022 36.3701 574.852 36.5101 575.895 36.6501C577.555 36.8901 578.883 37.2901 579.879 37.8501C580.875 38.4101 581.373 39.2901 581.373 40.5101C581.373 41.3101 581.112 42.0301 580.614 42.6501C580.116 43.2901 579.428 43.7701 578.527 44.1101C577.626 44.4701 576.607 44.6301 575.468 44.6301C574.164 44.6301 573.026 44.4501 572.077 44.0501C571.105 43.6501 570.346 43.1101 569.824 42.3901C569.303 41.6701 569.018 40.8501 568.971 39.9301H571.01Z" fill="black"/>
<path d="M583.991 36.6701C584.466 35.8901 585.153 35.2901 586.031 34.8501C586.885 34.4101 587.88 34.1901 589.019 34.1901C590.109 34.1901 591.106 34.3901 591.959 34.7701C592.813 35.1701 593.477 35.7301 593.975 36.4501C594.449 37.1901 594.71 38.0501 594.757 39.0301C594.757 39.1901 594.734 39.4101 594.71 39.7301H585.319V39.8701C585.343 40.8701 585.699 41.6701 586.41 42.2701C587.098 42.8701 587.999 43.1701 589.137 43.1701C589.991 43.1701 590.726 42.9901 591.343 42.6301C591.959 42.2701 592.362 41.7501 592.576 41.0901H594.544C594.307 42.1301 593.714 42.9901 592.765 43.6501C591.817 44.3101 590.655 44.6301 589.28 44.6301C588.07 44.6301 587.027 44.4301 586.126 43.9901C585.225 43.5501 584.513 42.9501 584.015 42.1501C583.517 41.3501 583.28 40.4501 583.28 39.4101C583.28 38.3701 583.517 37.4701 583.991 36.6701ZM592.742 38.3701C592.647 37.5101 592.244 36.8301 591.58 36.3501C590.916 35.8701 590.062 35.6301 589.042 35.6301C588.118 35.6301 587.311 35.8901 586.624 36.3901C585.912 36.9101 585.533 37.5701 585.438 38.3701H592.742Z" fill="black"/>
<path d="M603.118 34.3101V35.9101H602.146C600.984 35.9101 600.154 36.2501 599.656 36.8901C599.158 37.5501 598.921 38.3501 598.921 39.3101V44.5101H596.976V34.3101H598.66L598.921 35.8501C599.253 35.3901 599.703 35.0101 600.272 34.7301C600.818 34.4501 601.577 34.3101 602.573 34.3101H603.118Z" fill="black"/>
<path d="M603.803 34.3101H605.889L609.541 42.6501L613.169 34.3101H615.209L610.68 44.5101H608.332L603.803 34.3101Z" fill="black"/>
<path d="M618.534 30.6701C618.771 30.8701 618.889 31.1301 618.889 31.4301C618.889 31.7501 618.771 31.9901 618.534 32.1901C618.297 32.3901 617.988 32.4901 617.633 32.4901C617.253 32.4901 616.969 32.3901 616.731 32.1901C616.494 31.9901 616.376 31.7501 616.376 31.4301C616.376 31.1301 616.494 30.8701 616.731 30.6701C616.969 30.4701 617.253 30.3701 617.633 30.3701C617.988 30.3701 618.297 30.4701 618.534 30.6701ZM616.66 34.3101H618.605V44.5101H616.66V34.3101Z" fill="black"/>
<path d="M630.28 43.6701C629.331 44.3101 628.146 44.6301 626.723 44.6301C625.537 44.6301 624.517 44.4101 623.64 43.9701C622.739 43.5301 622.051 42.9301 621.577 42.1301C621.079 41.3301 620.842 40.4301 620.842 39.3901C620.842 38.3701 621.079 37.4701 621.577 36.6701C622.075 35.8901 622.786 35.2901 623.687 34.8501C624.589 34.4101 625.608 34.1901 626.794 34.1901C628.217 34.1901 629.379 34.5101 630.304 35.1501C631.228 35.7901 631.821 36.6701 632.058 37.7901H630.09C629.9 37.1501 629.497 36.6301 628.904 36.2301C628.288 35.8501 627.576 35.6501 626.723 35.6501C625.561 35.6501 624.612 36.0101 623.901 36.6901C623.19 37.3901 622.834 38.2901 622.834 39.3901C622.834 40.5101 623.19 41.4301 623.901 42.1301C624.612 42.8301 625.561 43.1701 626.723 43.1701C627.6 43.1701 628.335 42.9901 628.952 42.5901C629.545 42.2101 629.924 41.6701 630.114 40.9901H632.058C631.797 42.1301 631.205 43.0301 630.28 43.6701Z" fill="black"/>
<path d="M634.336 36.6701C634.811 35.8901 635.498 35.2901 636.376 34.8501C637.229 34.4101 638.225 34.1901 639.364 34.1901C640.454 34.1901 641.45 34.3901 642.304 34.7701C643.158 35.1701 643.822 35.7301 644.32 36.4501C644.794 37.1901 645.055 38.0501 645.102 39.0301C645.102 39.1901 645.079 39.4101 645.055 39.7301H635.664V39.8701C635.688 40.8701 636.044 41.6701 636.755 42.2701C637.443 42.8701 638.344 43.1701 639.482 43.1701C640.336 43.1701 641.071 42.9901 641.688 42.6301C642.304 42.2701 642.707 41.7501 642.921 41.0901H644.889C644.652 42.1301 644.059 42.9901 643.11 43.6501C642.162 44.3101 641 44.6301 639.624 44.6301C638.415 44.6301 637.372 44.4301 636.471 43.9901C635.569 43.5501 634.858 42.9501 634.36 42.1501C633.862 41.3501 633.625 40.4501 633.625 39.4101C633.625 38.3701 633.862 37.4701 634.336 36.6701ZM643.087 38.3701C642.992 37.5101 642.589 36.8301 641.925 36.3501C641.261 35.8701 640.407 35.6301 639.387 35.6301C638.462 35.6301 637.656 35.8901 636.969 36.3901C636.257 36.9101 635.878 37.5701 635.783 38.3701H643.087Z" fill="black"/>
<path d="M646.676 42.7101C646.913 42.5101 647.245 42.3901 647.648 42.3901C648.028 42.3901 648.36 42.5101 648.621 42.7101C648.858 42.9101 649 43.1901 649 43.5101C649 43.8501 648.858 44.1301 648.621 44.3301C648.36 44.5301 648.028 44.6301 647.648 44.6301C647.245 44.6301 646.913 44.5301 646.676 44.3301C646.415 44.1301 646.297 43.8501 646.297 43.5101C646.297 43.1901 646.415 42.9101 646.676 42.7101Z" fill="black"/>
</svg>
