<svg width="221" height="34" viewBox="0 0 221 34" fill="none" xmlns="http://www.w3.org/2000/svg">
<path d="M7.0886 6.2281C7.48448 6.6341 7.69656 7.1521 7.69656 7.7821C7.69656 8.3421 7.54104 8.8321 7.24413 9.2521C6.94721 9.6721 6.52306 10.0081 5.98579 10.2321C5.43438 10.4701 4.79814 10.5821 4.09121 10.5821C2.9884 10.5821 2.12594 10.3161 1.47557 9.7561C0.825188 9.1961 0.5 8.4401 0.5 7.4741H1.71592C1.71592 8.1181 1.94214 8.6221 2.39458 8.9861C2.84701 9.3501 3.4267 9.5321 4.1619 9.5321C4.82642 9.5321 5.37783 9.3641 5.81612 9.0281C6.25442 8.6921 6.48064 8.2581 6.48064 7.6981C6.48064 7.1801 6.26856 6.7741 5.8444 6.4661C5.42024 6.1721 4.81228 6.0181 4.0488 6.0181H3.20048V4.9961H3.9781C4.69917 4.9961 5.25058 4.8421 5.64646 4.5201C6.0282 4.2121 6.22614 3.7921 6.22614 3.2741C6.22614 2.7841 6.0282 2.3921 5.63232 2.0981C5.23644 1.8181 4.74159 1.6641 4.13363 1.6641C3.48325 1.6641 2.96012 1.8321 2.56424 2.1541C2.16836 2.4761 1.95628 2.9101 1.95628 3.4561H0.768634C0.768634 2.5741 1.07968 1.8741 1.68764 1.3701C2.28147 0.866097 3.08737 0.614098 4.09121 0.614098C4.76987 0.614098 5.36369 0.726098 5.87268 0.936098C6.38167 1.1601 6.76341 1.4541 7.03205 1.8461C7.30068 2.2381 7.44207 2.7001 7.44207 3.2041C7.44207 3.8061 7.2724 4.2961 6.94721 4.6881C6.60789 5.0801 6.16959 5.3321 5.60404 5.4441C6.18373 5.5561 6.67858 5.8221 7.0886 6.2281Z" fill="#667085"/>
<path d="M13.9646 0.810097C14.106 0.950097 14.1767 1.1321 14.1767 1.3421C14.1767 1.5661 14.106 1.7341 13.9646 1.8741C13.8232 2.0141 13.6394 2.0841 13.4273 2.0841C13.2011 2.0841 13.0315 2.0141 12.8901 1.8741C12.7487 1.7341 12.678 1.5661 12.678 1.3421C12.678 1.1321 12.7487 0.950097 12.8901 0.810097C13.0315 0.670097 13.2011 0.600098 13.4273 0.600098C13.6394 0.600098 13.8232 0.670097 13.9646 0.810097ZM12.8477 3.3581H14.007V10.4981H12.8477V3.3581Z" fill="#667085"/>
<path d="M21.2366 4.0581C21.7739 4.5901 22.0425 5.4021 22.0425 6.5221V10.4981H20.8832V6.5921C20.8832 5.8641 20.7135 5.3041 20.3742 4.9121C20.0348 4.5201 19.5541 4.3241 18.932 4.3241C18.2534 4.3241 17.7161 4.5621 17.3344 5.0241C16.9385 5.5001 16.7547 6.1301 16.7547 6.9281V10.4981H15.5953V3.3581H16.5991L16.7547 4.3241C17.2919 3.6241 18.0837 3.2741 19.13 3.2741C20.0066 3.2741 20.6993 3.5401 21.2366 4.0581Z" fill="#667085"/>
<path d="M24.0014 4.4081H22.7006V3.3581H24.0014V1.3561H25.1607V3.3581H26.9846V4.4081H25.1607V8.6221C25.1607 8.9301 25.2173 9.1401 25.3304 9.2661C25.4435 9.3921 25.6556 9.4481 25.9525 9.4481H27.2108V10.4981H25.8818C25.2032 10.4981 24.7083 10.3581 24.4255 10.0501C24.1428 9.7561 24.0014 9.2801 24.0014 8.6361V4.4081Z" fill="#667085"/>
<path d="M28.0258 5.0101C28.3086 4.4641 28.7186 4.0441 29.2417 3.7361C29.7507 3.4281 30.3445 3.2741 31.0232 3.2741C31.6736 3.2741 32.2674 3.4141 32.7764 3.6801C33.2854 3.9601 33.6813 4.3521 33.9782 4.8561C34.2609 5.3741 34.4165 5.9761 34.4447 6.6621C34.4447 6.7741 34.4306 6.9281 34.4165 7.1521H28.8176V7.2501C28.8317 7.9501 29.0438 8.5101 29.4679 8.9301C29.878 9.3501 30.4152 9.5601 31.0939 9.5601C31.6029 9.5601 32.0412 9.4341 32.4088 9.1821C32.7764 8.9301 33.0167 8.5661 33.144 8.1041H34.3175C34.1761 8.8321 33.8226 9.4341 33.2571 9.8961C32.6916 10.3581 31.9988 10.5821 31.1787 10.5821C30.4577 10.5821 29.8356 10.4421 29.2983 10.1341C28.761 9.8261 28.3369 9.4061 28.0399 8.8461C27.743 8.2861 27.6016 7.6561 27.6016 6.9281C27.6016 6.2001 27.743 5.5701 28.0258 5.0101ZM33.243 6.2001C33.1864 5.5981 32.946 5.1221 32.5502 4.7861C32.1543 4.4501 31.6453 4.2821 31.0373 4.2821C30.4859 4.2821 30.0052 4.4641 29.5952 4.8141C29.171 5.1781 28.9448 5.6401 28.8883 6.2001H33.243Z" fill="#667085"/>
<path d="M39.4296 3.3581V4.4781H38.8499C38.1571 4.4781 37.6623 4.7161 37.3654 5.1641C37.0685 5.6261 36.9271 6.1861 36.9271 6.8581V10.4981H35.7677V3.3581H36.7715L36.9271 4.4361C37.125 4.1141 37.3936 3.8481 37.733 3.6521C38.0582 3.4561 38.5106 3.3581 39.1044 3.3581H39.4296Z" fill="#667085"/>
<path d="M40.2452 5.0101C40.528 4.4641 40.938 4.0441 41.4611 3.7361C41.9701 3.4281 42.564 3.2741 43.2426 3.2741C43.893 3.2741 44.4868 3.4141 44.9958 3.6801C45.5048 3.9601 45.9007 4.3521 46.1976 4.8561C46.4804 5.3741 46.6359 5.9761 46.6642 6.6621C46.6642 6.7741 46.65 6.9281 46.6359 7.1521H41.037V7.2501C41.0511 7.9501 41.2632 8.5101 41.6874 8.9301C42.0974 9.3501 42.6347 9.5601 43.3133 9.5601C43.8223 9.5601 44.2606 9.4341 44.6282 9.1821C44.9958 8.9301 45.2362 8.5661 45.3634 8.1041H46.5369C46.3955 8.8321 46.0421 9.4341 45.4765 9.8961C44.911 10.3581 44.2182 10.5821 43.3981 10.5821C42.6771 10.5821 42.055 10.4421 41.5177 10.1341C40.9804 9.8261 40.5563 9.4061 40.2594 8.8461C39.9625 8.2861 39.8211 7.6561 39.8211 6.9281C39.8211 6.2001 39.9625 5.5701 40.2452 5.0101ZM45.4624 6.2001C45.4058 5.5981 45.1655 5.1221 44.7696 4.7861C44.3737 4.4501 43.8647 4.2821 43.2568 4.2821C42.7053 4.2821 42.2246 4.4641 41.8146 4.8141C41.3905 5.1781 41.1642 5.6401 41.1077 6.2001H45.4624Z" fill="#667085"/>
<path d="M48.8644 8.1461C48.8785 8.5801 49.0623 8.9301 49.4299 9.1961C49.7975 9.4761 50.2641 9.6021 50.8438 9.6021C51.3528 9.6021 51.7628 9.5041 52.0738 9.3081C52.3849 9.1121 52.5546 8.8461 52.5546 8.5101C52.5546 8.2301 52.4697 8.0201 52.3283 7.8661C52.1728 7.7261 51.9749 7.6141 51.7345 7.5581C51.4942 7.5021 51.1548 7.4461 50.7165 7.3901C50.0944 7.3201 49.5854 7.2221 49.1896 7.0961C48.7937 6.9841 48.4685 6.7881 48.2281 6.5221C47.9736 6.2561 47.8605 5.8921 47.8605 5.4161C47.8605 4.9961 47.9736 4.6321 48.214 4.2961C48.4544 3.9741 48.7795 3.7221 49.2037 3.5401C49.6137 3.3581 50.0803 3.2601 50.6034 3.2601C51.4517 3.2601 52.1304 3.4561 52.6677 3.8481C53.2049 4.2401 53.5018 4.8001 53.5584 5.5281H52.399C52.3425 5.1641 52.1587 4.8561 51.8476 4.6041C51.5224 4.3661 51.1266 4.2401 50.6458 4.2401C50.151 4.2401 49.7551 4.3521 49.4582 4.5481C49.1471 4.7441 49.0058 5.0101 49.0058 5.3321C49.0058 5.5841 49.0765 5.7661 49.2178 5.8921C49.3592 6.0321 49.5289 6.1161 49.7551 6.1581C49.9813 6.2141 50.3207 6.2561 50.7731 6.3121C51.3952 6.3961 51.9183 6.4941 52.3283 6.6201C52.7384 6.7601 53.0635 6.9701 53.318 7.2501C53.5725 7.5441 53.6998 7.9361 53.6998 8.4261C53.6998 8.8601 53.5725 9.2381 53.318 9.5601C53.0635 9.8961 52.7101 10.1481 52.2859 10.3161C51.8476 10.4981 51.3669 10.5821 50.8438 10.5821C49.8965 10.5821 49.133 10.3721 48.5675 9.9381C48.0019 9.5181 47.705 8.9161 47.705 8.1461H48.8644Z" fill="#667085"/>
<path d="M55.4957 4.4081H54.195V3.3581H55.4957V1.3561H56.6551V3.3581H58.479V4.4081H56.6551V8.6221C56.6551 8.9301 56.7116 9.1401 56.8248 9.2661C56.9379 9.3921 57.1499 9.4481 57.4469 9.4481H58.7052V10.4981H57.3762C56.6975 10.4981 56.2027 10.3581 55.9199 10.0501C55.6371 9.7561 55.4957 9.2801 55.4957 8.6361V4.4081Z" fill="#667085"/>
<path d="M59.0868 6.9981V6.0461H63.795V6.9981H59.0868Z" fill="#667085"/>
<path d="M65.5612 3.3581V2.5601C65.5612 1.9301 65.7026 1.4681 65.9995 1.1601C66.2964 0.852098 66.7771 0.698097 67.4417 0.698097H68.7707V1.7481H67.5123C67.2296 1.7481 67.0175 1.8181 66.9044 1.9301C66.7771 2.0561 66.7206 2.2521 66.7206 2.5321V3.3581H68.7565V4.4081H66.7206V10.4981H65.5612V4.4081H64.2605V3.3581H65.5612Z" fill="#667085"/>
<path d="M73.2021 3.3581V4.4781H72.6225C71.9297 4.4781 71.4348 4.7161 71.1379 5.1641C70.841 5.6261 70.6996 6.1861 70.6996 6.8581V10.4981H69.5402V3.3581H70.5441L70.6996 4.4361C70.8975 4.1141 71.1662 3.8481 71.5055 3.6521C71.8307 3.4561 72.2831 3.3581 72.877 3.3581H73.2021Z" fill="#667085"/>
<path d="M74.0178 5.0101C74.3005 4.4641 74.7106 4.0441 75.2337 3.7361C75.7427 3.4281 76.3365 3.2741 77.0152 3.2741C77.6655 3.2741 78.2594 3.4141 78.7683 3.6801C79.2773 3.9601 79.6732 4.3521 79.9701 4.8561C80.2529 5.3741 80.4084 5.9761 80.4367 6.6621C80.4367 6.7741 80.4226 6.9281 80.4084 7.1521H74.8095V7.2501C74.8237 7.9501 75.0357 8.5101 75.4599 8.9301C75.8699 9.3501 76.4072 9.5601 77.0858 9.5601C77.5948 9.5601 78.0331 9.4341 78.4007 9.1821C78.7683 8.9301 79.0087 8.5661 79.1359 8.1041H80.3095C80.1681 8.8321 79.8146 9.4341 79.2491 9.8961C78.6835 10.3581 77.9907 10.5821 77.1707 10.5821C76.4496 10.5821 75.8275 10.4421 75.2902 10.1341C74.753 9.8261 74.3288 9.4061 74.0319 8.8461C73.735 8.2861 73.5936 7.6561 73.5936 6.9281C73.5936 6.2001 73.735 5.5701 74.0178 5.0101ZM79.2349 6.2001C79.1784 5.5981 78.938 5.1221 78.5421 4.7861C78.1462 4.4501 77.6373 4.2821 77.0293 4.2821C76.4779 4.2821 75.9972 4.4641 75.5872 4.8141C75.163 5.1781 74.9368 5.6401 74.8802 6.2001H79.2349Z" fill="#667085"/>
<path d="M81.9293 5.0101C82.2121 4.4641 82.6221 4.0441 83.1452 3.7361C83.6542 3.4281 84.2481 3.2741 84.9267 3.2741C85.5771 3.2741 86.1709 3.4141 86.6799 3.6801C87.1889 3.9601 87.5848 4.3521 87.8817 4.8561C88.1645 5.3741 88.32 5.9761 88.3483 6.6621C88.3483 6.7741 88.3341 6.9281 88.32 7.1521H82.7211V7.2501C82.7352 7.9501 82.9473 8.5101 83.3715 8.9301C83.7815 9.3501 84.3187 9.5601 84.9974 9.5601C85.5064 9.5601 85.9447 9.4341 86.3123 9.1821C86.6799 8.9301 86.9203 8.5661 87.0475 8.1041H88.221C88.0796 8.8321 87.7262 9.4341 87.1606 9.8961C86.5951 10.3581 85.9023 10.5821 85.0822 10.5821C84.3612 10.5821 83.7391 10.4421 83.2018 10.1341C82.6645 9.8261 82.2404 9.4061 81.9435 8.8461C81.6466 8.2861 81.5052 7.6561 81.5052 6.9281C81.5052 6.2001 81.6466 5.5701 81.9293 5.0101ZM87.1465 6.2001C87.0899 5.5981 86.8496 5.1221 86.4537 4.7861C86.0578 4.4501 85.5488 4.2821 84.9408 4.2821C84.3894 4.2821 83.9087 4.4641 83.4987 4.8141C83.0745 5.1781 82.8483 5.6401 82.7918 6.2001H87.1465Z" fill="#667085"/>
<path d="M98.7867 3.7081C99.3098 4.0021 99.7198 4.4221 100.017 4.9681C100.314 5.5281 100.469 6.1721 100.469 6.9281C100.469 7.6561 100.314 8.2861 100.017 8.8321C99.7198 9.3921 99.3098 9.8121 98.7867 10.1201C98.2494 10.4281 97.6556 10.5821 97.0052 10.5821C96.4114 10.5821 95.9165 10.4841 95.5065 10.2741C95.0823 10.0641 94.7571 9.7701 94.5309 9.4061V13.2981H93.3716V3.3581H94.3754L94.5309 4.5061C95.1247 3.6941 95.9589 3.2741 97.0052 3.2741C97.6697 3.2741 98.2635 3.4281 98.7867 3.7081ZM98.617 8.8321C99.0553 8.3421 99.2815 7.7121 99.2815 6.9281C99.2815 6.1581 99.0553 5.5281 98.617 5.0381C98.1787 4.5481 97.599 4.2961 96.8921 4.2961C96.4255 4.2961 96.0155 4.4081 95.6479 4.6321C95.2803 4.8561 95.0116 5.1641 94.8137 5.5561C94.6158 5.9481 94.5168 6.3961 94.5168 6.9001C94.5168 7.4181 94.6158 7.8801 94.8137 8.2861C95.0116 8.6921 95.2803 9.0001 95.6479 9.2241C96.0155 9.4481 96.4255 9.5601 96.8921 9.5601C97.599 9.5601 98.1787 9.3221 98.617 8.8321Z" fill="#667085"/>
<path d="M108.538 9.4481V10.4981H107.902C107.435 10.4981 107.11 10.4141 106.912 10.2181C106.714 10.0361 106.601 9.7561 106.601 9.3921C106.036 10.1901 105.23 10.5821 104.183 10.5821C103.378 10.5821 102.727 10.4001 102.246 10.0221C101.766 9.6581 101.525 9.1401 101.525 8.4961C101.525 7.7821 101.766 7.2361 102.261 6.8441C102.755 6.4661 103.476 6.2701 104.424 6.2701H106.545V5.7801C106.545 5.3181 106.375 4.9541 106.064 4.6881C105.753 4.4361 105.314 4.2961 104.749 4.2961C104.24 4.2961 103.83 4.4081 103.505 4.6321C103.18 4.8561 102.982 5.1361 102.911 5.5001H101.752C101.836 4.8001 102.147 4.2541 102.685 3.8621C103.222 3.4701 103.929 3.2741 104.806 3.2741C105.725 3.2741 106.431 3.4981 106.94 3.9461C107.449 4.3941 107.704 5.0241 107.704 5.8501V8.9301C107.704 9.2801 107.859 9.4481 108.185 9.4481H108.538ZM106.545 7.2361H104.311C103.236 7.2361 102.699 7.6421 102.699 8.4261C102.699 8.7901 102.84 9.0701 103.123 9.2801C103.406 9.5041 103.788 9.6021 104.268 9.6021C104.975 9.6021 105.527 9.4201 105.937 9.0561C106.332 8.6921 106.545 8.2021 106.545 7.5861V7.2361Z" fill="#667085"/>
<path d="M109.731 3.3581L111.951 9.1821L114.1 3.3581H115.33L112.008 11.7021C111.838 12.1361 111.682 12.4581 111.555 12.6681C111.414 12.8921 111.258 13.0461 111.06 13.1441C110.862 13.2561 110.594 13.2981 110.269 13.2981H108.883V12.2481H109.915C110.141 12.2481 110.311 12.2341 110.424 12.1781C110.537 12.1361 110.622 12.0661 110.693 11.9541C110.763 11.8421 110.848 11.6601 110.961 11.4081L111.329 10.5541L108.501 3.3581H109.731Z" fill="#667085"/>
<path d="M126.205 4.0301C126.714 4.5341 126.969 5.3181 126.969 6.3821V10.4981H125.809V6.4521C125.809 5.7661 125.654 5.2341 125.357 4.8701C125.06 4.5061 124.636 4.3241 124.098 4.3241C123.49 4.3241 123.01 4.5341 122.67 4.9541C122.331 5.3741 122.161 5.9481 122.161 6.6761V10.4981H121.002V6.4521C121.002 5.7661 120.847 5.2341 120.55 4.8701C120.239 4.5061 119.814 4.3241 119.263 4.3241C118.669 4.3241 118.203 4.5481 117.863 4.9961C117.524 5.4441 117.354 6.0181 117.354 6.7321V10.4981H116.195V3.3581H117.199L117.354 4.3381C117.863 3.6381 118.57 3.2741 119.461 3.2741C119.97 3.2741 120.437 3.4001 120.832 3.6241C121.228 3.8481 121.539 4.1841 121.737 4.6321C122.246 3.7361 123.08 3.2741 124.24 3.2741C125.046 3.2741 125.696 3.5261 126.205 4.0301Z" fill="#667085"/>
<path d="M128.625 5.0101C128.908 4.4641 129.318 4.0441 129.841 3.7361C130.35 3.4281 130.944 3.2741 131.623 3.2741C132.273 3.2741 132.867 3.4141 133.376 3.6801C133.885 3.9601 134.281 4.3521 134.578 4.8561C134.861 5.3741 135.016 5.9761 135.044 6.6621C135.044 6.7741 135.03 6.9281 135.016 7.1521H129.417V7.2501C129.431 7.9501 129.643 8.5101 130.068 8.9301C130.478 9.3501 131.015 9.5601 131.694 9.5601C132.203 9.5601 132.641 9.4341 133.008 9.1821C133.376 8.9301 133.616 8.5661 133.744 8.1041H134.917C134.776 8.8321 134.422 9.4341 133.857 9.8961C133.291 10.3581 132.598 10.5821 131.778 10.5821C131.057 10.5821 130.435 10.4421 129.898 10.1341C129.361 9.8261 128.937 9.4061 128.64 8.8461C128.343 8.2861 128.201 7.6561 128.201 6.9281C128.201 6.2001 128.343 5.5701 128.625 5.0101ZM133.843 6.2001C133.786 5.5981 133.546 5.1221 133.15 4.7861C132.754 4.4501 132.245 4.2821 131.637 4.2821C131.086 4.2821 130.605 4.4641 130.195 4.8141C129.771 5.1781 129.544 5.6401 129.488 6.2001H133.843Z" fill="#667085"/>
<path d="M142.009 4.0581C142.546 4.5901 142.815 5.4021 142.815 6.5221V10.4981H141.655V6.5921C141.655 5.8641 141.486 5.3041 141.146 4.9121C140.807 4.5201 140.326 4.3241 139.704 4.3241C139.025 4.3241 138.488 4.5621 138.106 5.0241C137.711 5.5001 137.527 6.1301 137.527 6.9281V10.4981H136.367V3.3581H137.371L137.527 4.3241C138.064 3.6241 138.856 3.2741 139.902 3.2741C140.779 3.2741 141.471 3.5401 142.009 4.0581Z" fill="#667085"/>
<path d="M144.773 4.4081H143.473V3.3581H144.773V1.3561H145.933V3.3581H147.757V4.4081H145.933V8.6221C145.933 8.9301 145.989 9.1401 146.102 9.2661C146.216 9.3921 146.428 9.4481 146.725 9.4481H147.983V10.4981H146.654C145.975 10.4981 145.48 10.3581 145.198 10.0501C144.915 9.7561 144.773 9.2801 144.773 8.6361V4.4081Z" fill="#667085"/>
<path d="M149.713 8.1461C149.727 8.5801 149.91 8.9301 150.278 9.1961C150.646 9.4761 151.112 9.6021 151.692 9.6021C152.201 9.6021 152.611 9.5041 152.922 9.3081C153.233 9.1121 153.403 8.8461 153.403 8.5101C153.403 8.2301 153.318 8.0201 153.177 7.8661C153.021 7.7261 152.823 7.6141 152.583 7.5581C152.342 7.5021 152.003 7.4461 151.565 7.3901C150.943 7.3201 150.434 7.2221 150.038 7.0961C149.642 6.9841 149.317 6.7881 149.076 6.5221C148.822 6.2561 148.709 5.8921 148.709 5.4161C148.709 4.9961 148.822 4.6321 149.062 4.2961C149.303 3.9741 149.628 3.7221 150.052 3.5401C150.462 3.3581 150.928 3.2601 151.452 3.2601C152.3 3.2601 152.979 3.4561 153.516 3.8481C154.053 4.2401 154.35 4.8001 154.407 5.5281H153.247C153.191 5.1641 153.007 4.8561 152.696 4.6041C152.371 4.3661 151.975 4.2401 151.494 4.2401C150.999 4.2401 150.603 4.3521 150.306 4.5481C149.995 4.7441 149.854 5.0101 149.854 5.3321C149.854 5.5841 149.925 5.7661 150.066 5.8921C150.207 6.0321 150.377 6.1161 150.603 6.1581C150.829 6.2141 151.169 6.2561 151.621 6.3121C152.243 6.3961 152.766 6.4941 153.177 6.6201C153.587 6.7601 153.912 6.9701 154.166 7.2501C154.421 7.5441 154.548 7.9361 154.548 8.4261C154.548 8.8601 154.421 9.2381 154.166 9.5601C153.912 9.8961 153.558 10.1481 153.134 10.3161C152.696 10.4981 152.215 10.5821 151.692 10.5821C150.745 10.5821 149.981 10.3721 149.416 9.9381C148.85 9.5181 148.553 8.9161 148.553 8.1461H149.713Z" fill="#667085"/>
<path d="M166.407 0.698097V10.4981H165.403L165.247 9.3501C164.639 10.1761 163.819 10.5821 162.773 10.5821C162.094 10.5821 161.501 10.4421 160.977 10.1481C160.454 9.8681 160.044 9.4481 159.747 8.8881C159.45 8.3421 159.309 7.6841 159.309 6.9281C159.309 6.2141 159.45 5.5841 159.747 5.0241C160.044 4.4781 160.454 4.0441 160.992 3.7361C161.515 3.4281 162.108 3.2741 162.773 3.2741C163.353 3.2741 163.848 3.3861 164.272 3.5961C164.682 3.8061 165.007 4.0861 165.247 4.4501V0.698097H166.407ZM164.116 9.2381C164.484 9.0141 164.767 8.7061 164.964 8.3141C165.162 7.9221 165.261 7.4601 165.261 6.9561C165.261 6.4521 165.162 5.9901 164.964 5.5841C164.767 5.1781 164.484 4.8561 164.116 4.6321C163.749 4.4081 163.339 4.2961 162.886 4.2961C162.165 4.2961 161.585 4.5481 161.147 5.0381C160.709 5.5281 160.497 6.1581 160.497 6.9281C160.497 7.7121 160.709 8.3421 161.147 8.8321C161.585 9.3221 162.165 9.5601 162.886 9.5601C163.339 9.5601 163.749 9.4621 164.116 9.2381Z" fill="#667085"/>
<path d="M174.193 3.3581V10.4981H173.189L173.033 9.5461C172.482 10.2461 171.719 10.5821 170.729 10.5821C169.866 10.5821 169.174 10.3301 168.665 9.7981C168.141 9.2801 167.887 8.4541 167.887 7.3341V3.3581H169.046V7.2641C169.046 8.0061 169.202 8.5661 169.527 8.9581C169.852 9.3501 170.319 9.5321 170.927 9.5321C171.577 9.5321 172.1 9.3081 172.468 8.8321C172.835 8.3701 173.033 7.7401 173.033 6.9281V3.3581H174.193Z" fill="#667085"/>
<path d="M175.943 5.0101C176.226 4.4641 176.636 4.0441 177.159 3.7361C177.668 3.4281 178.262 3.2741 178.94 3.2741C179.591 3.2741 180.184 3.4141 180.693 3.6801C181.202 3.9601 181.598 4.3521 181.895 4.8561C182.178 5.3741 182.334 5.9761 182.362 6.6621C182.362 6.7741 182.348 6.9281 182.334 7.1521H176.735V7.2501C176.749 7.9501 176.961 8.5101 177.385 8.9301C177.795 9.3501 178.332 9.5601 179.011 9.5601C179.52 9.5601 179.958 9.4341 180.326 9.1821C180.693 8.9301 180.934 8.5661 181.061 8.1041H182.235C182.093 8.8321 181.74 9.4341 181.174 9.8961C180.609 10.3581 179.916 10.5821 179.096 10.5821C178.375 10.5821 177.753 10.4421 177.215 10.1341C176.678 9.8261 176.254 9.4061 175.957 8.8461C175.66 8.2861 175.519 7.6561 175.519 6.9281C175.519 6.2001 175.66 5.5701 175.943 5.0101ZM181.16 6.2001C181.104 5.5981 180.863 5.1221 180.467 4.7861C180.071 4.4501 179.562 4.2821 178.954 4.2821C178.403 4.2821 177.922 4.4641 177.512 4.8141C177.088 5.1781 176.862 5.6401 176.805 6.2001H181.16Z" fill="#667085"/>
<path d="M187.555 5.0101C187.838 4.4641 188.248 4.0441 188.771 3.7361C189.28 3.4281 189.874 3.2741 190.552 3.2741C191.203 3.2741 191.796 3.4141 192.305 3.6801C192.814 3.9601 193.21 4.3521 193.507 4.8561C193.79 5.3741 193.945 5.9761 193.974 6.6621C193.974 6.7741 193.96 6.9281 193.945 7.1521H188.347V7.2501C188.361 7.9501 188.573 8.5101 188.997 8.9301C189.407 9.3501 189.944 9.5601 190.623 9.5601C191.132 9.5601 191.57 9.4341 191.938 9.1821C192.305 8.9301 192.546 8.5661 192.673 8.1041H193.846C193.705 8.8321 193.352 9.4341 192.786 9.8961C192.221 10.3581 191.528 10.5821 190.708 10.5821C189.987 10.5821 189.365 10.4421 188.827 10.1341C188.29 9.8261 187.866 9.4061 187.569 8.8461C187.272 8.2861 187.131 7.6561 187.131 6.9281C187.131 6.2001 187.272 5.5701 187.555 5.0101ZM192.772 6.2001C192.715 5.5981 192.475 5.1221 192.079 4.7861C191.683 4.4501 191.174 4.2821 190.566 4.2821C190.015 4.2821 189.534 4.4641 189.124 4.8141C188.7 5.1781 188.474 5.6401 188.417 6.2001H192.772Z" fill="#667085"/>
<path d="M194.299 3.3581H195.544L197.721 9.1961L199.884 3.3581H201.1L198.4 10.4981H197L194.299 3.3581Z" fill="#667085"/>
<path d="M201.859 5.0101C202.142 4.4641 202.552 4.0441 203.075 3.7361C203.584 3.4281 204.178 3.2741 204.857 3.2741C205.507 3.2741 206.101 3.4141 206.61 3.6801C207.119 3.9601 207.515 4.3521 207.811 4.8561C208.094 5.3741 208.25 5.9761 208.278 6.6621C208.278 6.7741 208.264 6.9281 208.25 7.1521H202.651V7.2501C202.665 7.9501 202.877 8.5101 203.301 8.9301C203.711 9.3501 204.249 9.5601 204.927 9.5601C205.436 9.5601 205.874 9.4341 206.242 9.1821C206.61 8.9301 206.85 8.5661 206.977 8.1041H208.151C208.009 8.8321 207.656 9.4341 207.09 9.8961C206.525 10.3581 205.832 10.5821 205.012 10.5821C204.291 10.5821 203.669 10.4421 203.132 10.1341C202.594 9.8261 202.17 9.4061 201.873 8.8461C201.576 8.2861 201.435 7.6561 201.435 6.9281C201.435 6.2001 201.576 5.5701 201.859 5.0101ZM207.076 6.2001C207.02 5.5981 206.779 5.1221 206.383 4.7861C205.988 4.4501 205.479 4.2821 204.871 4.2821C204.319 4.2821 203.839 4.4641 203.428 4.8141C203.004 5.1781 202.778 5.6401 202.722 6.2001H207.076Z" fill="#667085"/>
<path d="M213.263 3.3581V4.4781H212.683C211.99 4.4781 211.496 4.7161 211.199 5.1641C210.902 5.6261 210.76 6.1861 210.76 6.8581V10.4981H209.601V3.3581H210.605L210.76 4.4361C210.958 4.1141 211.227 3.8481 211.566 3.6521C211.891 3.4561 212.344 3.3581 212.938 3.3581H213.263Z" fill="#667085"/>
<path d="M214.901 3.3581L217.121 9.1821L219.27 3.3581H220.5L217.177 11.7021C217.008 12.1361 216.852 12.4581 216.725 12.6681C216.584 12.8921 216.428 13.0461 216.23 13.1441C216.032 13.2561 215.764 13.2981 215.438 13.2981H214.053V12.2481H215.085C215.311 12.2481 215.481 12.2341 215.594 12.1781C215.707 12.1361 215.792 12.0661 215.863 11.9541C215.933 11.8421 216.018 11.6601 216.131 11.4081L216.499 10.5541L213.671 3.3581H214.901Z" fill="#667085"/>
<path d="M10.6798 24.0301C11.1888 24.5341 11.4433 25.3181 11.4433 26.3821V30.4981H10.2839V26.4521C10.2839 25.7661 10.1284 25.2341 9.83149 24.8701C9.53458 24.5061 9.11042 24.3241 8.57316 24.3241C7.9652 24.3241 7.48448 24.5341 7.14515 24.9541C6.80583 25.3741 6.63616 25.9481 6.63616 26.6761V30.4981H5.4768V26.4521C5.4768 25.7661 5.32127 25.2341 5.02436 24.8701C4.71331 24.5061 4.28915 24.3241 3.73775 24.3241C3.14392 24.3241 2.67735 24.5481 2.33802 24.9961C1.99869 25.4441 1.82903 26.0181 1.82903 26.7321V30.4981H0.669664V23.3581H1.67351L1.82903 24.3381C2.33802 23.6381 3.04495 23.2741 3.93569 23.2741C4.44468 23.2741 4.91125 23.4001 5.30713 23.6241C5.70301 23.8481 6.01406 24.1841 6.21201 24.6321C6.721 23.7361 7.55517 23.2741 8.71454 23.2741C9.52044 23.2741 10.1708 23.5261 10.6798 24.0301Z" fill="#667085"/>
<path d="M14.3868 30.1201C13.8495 29.8121 13.4254 29.3921 13.1284 28.8321C12.8174 28.2861 12.676 27.6561 12.676 26.9281C12.676 26.2141 12.8174 25.5841 13.1284 25.0241C13.4254 24.4781 13.8495 24.0441 14.3868 23.7361C14.924 23.4281 15.5461 23.2741 16.2531 23.2741C16.9459 23.2741 17.568 23.4281 18.1052 23.7361C18.6425 24.0441 19.0667 24.4781 19.3777 25.0241C19.6746 25.5841 19.8302 26.2141 19.8302 26.9281C19.8302 27.6561 19.6746 28.2861 19.3777 28.8321C19.0667 29.3921 18.6425 29.8121 18.1052 30.1201C17.568 30.4281 16.9459 30.5821 16.2531 30.5821C15.5461 30.5821 14.924 30.4281 14.3868 30.1201ZM17.4973 29.2241C17.8649 29.0001 18.1477 28.6921 18.3456 28.2861C18.5435 27.8941 18.6425 27.4321 18.6425 26.9281C18.6425 26.4241 18.5435 25.9761 18.3456 25.5701C18.1477 25.1781 17.8649 24.8561 17.4973 24.6321C17.1297 24.4081 16.7197 24.2961 16.2531 24.2961C15.7724 24.2961 15.3623 24.4081 14.9947 24.6321C14.6271 24.8561 14.3585 25.1781 14.1606 25.5701C13.9626 25.9761 13.8637 26.4241 13.8637 26.9281C13.8637 27.4321 13.9626 27.8941 14.1606 28.2861C14.3585 28.6921 14.6271 29.0001 14.9947 29.2241C15.3623 29.4481 15.7724 29.5601 16.2531 29.5601C16.7197 29.5601 17.1297 29.4481 17.4973 29.2241Z" fill="#667085"/>
<path d="M26.8009 24.0581C27.3382 24.5901 27.6068 25.4021 27.6068 26.5221V30.4981H26.4475V26.5921C26.4475 25.8641 26.2778 25.3041 25.9385 24.9121C25.5992 24.5201 25.1184 24.3241 24.4963 24.3241C23.8177 24.3241 23.2804 24.5621 22.8987 25.0241C22.5028 25.5001 22.319 26.1301 22.319 26.9281V30.4981H21.1596V23.3581H22.1635L22.319 24.3241C22.8563 23.6241 23.648 23.2741 24.6943 23.2741C25.5709 23.2741 26.2637 23.5401 26.8009 24.0581Z" fill="#667085"/>
<path d="M29.5657 24.4081H28.2649V23.3581H29.5657V21.3561H30.7251V23.3581H32.549V24.4081H30.7251V28.6221C30.7251 28.9301 30.7816 29.1401 30.8947 29.2661C31.0078 29.3921 31.2199 29.4481 31.5168 29.4481H32.7752V30.4981H31.4461C30.7675 30.4981 30.2726 30.3581 29.9899 30.0501C29.7071 29.7561 29.5657 29.2801 29.5657 28.6361V24.4081Z" fill="#667085"/>
<path d="M39.2554 24.0581C39.7927 24.5901 40.0613 25.4021 40.0613 26.5221V30.4981H38.9019V26.5921C38.9019 25.8641 38.7323 25.3041 38.393 24.9121C38.0536 24.5201 37.5588 24.3241 36.9367 24.3241C36.258 24.3241 35.7349 24.5621 35.339 25.0241C34.9431 25.5001 34.7593 26.1301 34.7593 26.9281V30.4981H33.6V20.6981H34.7593V24.5341C34.9855 24.1701 35.2966 23.8621 35.6925 23.6241C36.0884 23.4001 36.5691 23.2741 37.1346 23.2741C38.0112 23.2741 38.7181 23.5401 39.2554 24.0581Z" fill="#667085"/>
<path d="M46.1443 28.1461C46.1585 28.5801 46.3423 28.9301 46.7099 29.1961C47.0775 29.4761 47.5441 29.6021 48.1238 29.6021C48.6327 29.6021 49.0428 29.5041 49.3538 29.3081C49.6649 29.1121 49.8345 28.8461 49.8345 28.5101C49.8345 28.2301 49.7497 28.0201 49.6083 27.8661C49.4528 27.7261 49.2548 27.6141 49.0145 27.5581C48.7741 27.5021 48.4348 27.4461 47.9965 27.3901C47.3744 27.3201 46.8654 27.2221 46.4695 27.0961C46.0737 26.9841 45.7485 26.7881 45.5081 26.5221C45.2536 26.2561 45.1405 25.8921 45.1405 25.4161C45.1405 24.9961 45.2536 24.6321 45.494 24.2961C45.7343 23.9741 46.0595 23.7221 46.4837 23.5401C46.8937 23.3581 47.3603 23.2601 47.8834 23.2601C48.7317 23.2601 49.4104 23.4561 49.9476 23.8481C50.4849 24.2401 50.7818 24.8001 50.8384 25.5281H49.679C49.6224 25.1641 49.4386 24.8561 49.1276 24.6041C48.8024 24.3661 48.4065 24.2401 47.9258 24.2401C47.431 24.2401 47.0351 24.3521 46.7382 24.5481C46.4271 24.7441 46.2857 25.0101 46.2857 25.3321C46.2857 25.5841 46.3564 25.7661 46.4978 25.8921C46.6392 26.0321 46.8089 26.1161 47.0351 26.1581C47.2613 26.2141 47.6006 26.2561 48.0531 26.3121C48.6752 26.3961 49.1983 26.4941 49.6083 26.6201C50.0183 26.7601 50.3435 26.9701 50.598 27.2501C50.8525 27.5441 50.9798 27.9361 50.9798 28.4261C50.9798 28.8601 50.8525 29.2381 50.598 29.5601C50.3435 29.8961 49.9901 30.1481 49.5659 30.3161C49.1276 30.4981 48.6469 30.5821 48.1238 30.5821C47.1765 30.5821 46.413 30.3721 45.8474 29.9381C45.2819 29.5181 44.985 28.9161 44.985 28.1461H46.1443Z" fill="#667085"/>
<path d="M52.7757 24.4081H51.4749V23.3581H52.7757V21.3561H53.9351V23.3581H55.7589V24.4081H53.9351V28.6221C53.9351 28.9301 53.9916 29.1401 54.1047 29.2661C54.2178 29.3921 54.4299 29.4481 54.7268 29.4481H55.9852V30.4981H54.6561C53.9775 30.4981 53.4826 30.3581 53.1999 30.0501C52.9171 29.7561 52.7757 29.2801 52.7757 28.6361V24.4081Z" fill="#667085"/>
<path d="M63.4436 29.4481V30.4981H62.8074C62.3408 30.4981 62.0156 30.4141 61.8177 30.2181C61.6197 30.0361 61.5066 29.7561 61.5066 29.3921C60.9411 30.1901 60.1352 30.5821 59.0889 30.5821C58.283 30.5821 57.6326 30.4001 57.1519 30.0221C56.6712 29.6581 56.4309 29.1401 56.4309 28.4961C56.4309 27.7821 56.6712 27.2361 57.1661 26.8441C57.6609 26.4661 58.382 26.2701 59.3293 26.2701H61.4501V25.7801C61.4501 25.3181 61.2804 24.9541 60.9694 24.6881C60.6583 24.4361 60.22 24.2961 59.6545 24.2961C59.1455 24.2961 58.7355 24.4081 58.4103 24.6321C58.0851 24.8561 57.8871 25.1361 57.8164 25.5001H56.6571C56.7419 24.8001 57.053 24.2541 57.5902 23.8621C58.1275 23.4701 58.8344 23.2741 59.711 23.2741C60.63 23.2741 61.337 23.4981 61.846 23.9461C62.3549 24.3941 62.6094 25.0241 62.6094 25.8501V28.9301C62.6094 29.2801 62.765 29.4481 63.0901 29.4481H63.4436ZM61.4501 27.2361H59.2162C58.1416 27.2361 57.6044 27.6421 57.6044 28.4261C57.6044 28.7901 57.7458 29.0701 58.0285 29.2801C58.3113 29.5041 58.693 29.6021 59.1738 29.6021C59.8807 29.6021 60.4321 29.4201 60.8421 29.0561C61.238 28.6921 61.4501 28.2021 61.4501 27.5861V27.2361Z" fill="#667085"/>
<path d="M67.9968 23.3581V24.4781H67.4171C66.7243 24.4781 66.2295 24.7161 65.9326 25.1641C65.6357 25.6261 65.4943 26.1861 65.4943 26.8581V30.4981H64.3349V23.3581H65.3387L65.4943 24.4361C65.6922 24.1141 65.9609 23.8481 66.3002 23.6521C66.6254 23.4561 67.0778 23.3581 67.6716 23.3581H67.9968Z" fill="#667085"/>
<path d="M69.057 21.3561H70.2164V23.3581H72.0402V24.4081H70.2164V28.6221C70.2164 28.9301 70.2729 29.1401 70.386 29.2661C70.4991 29.3921 70.7112 29.4481 71.0081 29.4481H72.2665V30.4981H70.9374C70.2588 30.4981 69.7639 30.3581 69.4811 30.0501C69.1984 29.7561 69.057 29.2801 69.057 28.6361V21.3561Z" fill="#667085"/>
<path d="M74.2057 20.8101C74.347 20.9501 74.4177 21.1321 74.4177 21.3421C74.4177 21.5661 74.347 21.7341 74.2057 21.8741C74.0643 22.0141 73.8805 22.0841 73.6684 22.0841C73.4422 22.0841 73.2725 22.0141 73.1311 21.8741C72.9897 21.7341 72.919 21.5661 72.919 21.3421C72.919 21.1321 72.9897 20.9501 73.1311 20.8101C73.2725 20.6701 73.4422 20.6001 73.6684 20.6001C73.8805 20.6001 74.0643 20.6701 74.2057 20.8101ZM73.0887 23.3581H74.2481V30.4981H73.0887V23.3581Z" fill="#667085"/>
<path d="M81.4777 24.0581C82.0149 24.5901 82.2836 25.4021 82.2836 26.5221V30.4981H81.1242V26.5921C81.1242 25.8641 80.9545 25.3041 80.6152 24.9121C80.2759 24.5201 79.7952 24.3241 79.1731 24.3241C78.4944 24.3241 77.9571 24.5621 77.5754 25.0241C77.1795 25.5001 76.9957 26.1301 76.9957 26.9281V30.4981H75.8363V23.3581H76.8402L76.9957 24.3241C77.533 23.6241 78.3247 23.2741 79.371 23.2741C80.2476 23.2741 80.9404 23.5401 81.4777 24.0581Z" fill="#667085"/>
<path d="M90.6048 23.3581V30.1481C90.6048 32.3041 89.403 33.3821 87.0277 33.3821C86.0946 33.3821 85.3311 33.1721 84.7373 32.7521C84.1435 32.3321 83.8041 31.7441 83.7193 30.9601H84.9069C84.9918 31.4081 85.2321 31.7581 85.628 31.9961C86.0098 32.2481 86.5046 32.3601 87.1126 32.3601C88.6678 32.3601 89.4454 31.6181 89.4454 30.1061V29.2661C88.9223 30.1481 88.1023 30.5821 86.9712 30.5821C86.2925 30.5821 85.6987 30.4421 85.1756 30.1481C84.6524 29.8681 84.2424 29.4481 83.9455 28.8881C83.6486 28.3421 83.5072 27.6841 83.5072 26.9281C83.5072 26.2141 83.6486 25.5841 83.9455 25.0241C84.2424 24.4781 84.6524 24.0441 85.1897 23.7361C85.7128 23.4281 86.3067 23.2741 86.9712 23.2741C87.5509 23.2741 88.0457 23.4001 88.4699 23.6241C88.8799 23.8481 89.2051 24.1701 89.4454 24.5901L89.601 23.3581H90.6048ZM88.3143 29.2381C88.682 29.0141 88.9647 28.7061 89.1627 28.3141C89.3606 27.9221 89.4596 27.4601 89.4596 26.9561C89.4596 26.4521 89.3606 25.9901 89.1627 25.5841C88.9647 25.1781 88.682 24.8561 88.3143 24.6321C87.9467 24.4081 87.5367 24.2961 87.0843 24.2961C86.3632 24.2961 85.7835 24.5481 85.3452 25.0381C84.9069 25.5281 84.6949 26.1581 84.6949 26.9281C84.6949 27.7121 84.9069 28.3421 85.3452 28.8321C85.7835 29.3221 86.3632 29.5601 87.0843 29.5601C87.5367 29.5601 87.9467 29.4621 88.3143 29.2381Z" fill="#667085"/>
<path d="M96.3652 24.4081H95.0644V23.3581H96.3652V21.3561H97.5246V23.3581H99.3484V24.4081H97.5246V28.6221C97.5246 28.9301 97.5811 29.1401 97.6942 29.2661C97.8073 29.3921 98.0194 29.4481 98.3163 29.4481H99.5747V30.4981H98.2456C97.567 30.4981 97.0721 30.3581 96.7894 30.0501C96.5066 29.7561 96.3652 29.2801 96.3652 28.6361V24.4081Z" fill="#667085"/>
<path d="M101.676 30.1201C101.139 29.8121 100.715 29.3921 100.418 28.8321C100.107 28.2861 99.9655 27.6561 99.9655 26.9281C99.9655 26.2141 100.107 25.5841 100.418 25.0241C100.715 24.4781 101.139 24.0441 101.676 23.7361C102.214 23.4281 102.836 23.2741 103.543 23.2741C104.235 23.2741 104.857 23.4281 105.395 23.7361C105.932 24.0441 106.356 24.4781 106.667 25.0241C106.964 25.5841 107.12 26.2141 107.12 26.9281C107.12 27.6561 106.964 28.2861 106.667 28.8321C106.356 29.3921 105.932 29.8121 105.395 30.1201C104.857 30.4281 104.235 30.5821 103.543 30.5821C102.836 30.5821 102.214 30.4281 101.676 30.1201ZM104.787 29.2241C105.154 29.0001 105.437 28.6921 105.635 28.2861C105.833 27.8941 105.932 27.4321 105.932 26.9281C105.932 26.4241 105.833 25.9761 105.635 25.5701C105.437 25.1781 105.154 24.8561 104.787 24.6321C104.419 24.4081 104.009 24.2961 103.543 24.2961C103.062 24.2961 102.652 24.4081 102.284 24.6321C101.917 24.8561 101.648 25.1781 101.45 25.5701C101.252 25.9761 101.153 26.4241 101.153 26.9281C101.153 27.4321 101.252 27.8941 101.45 28.2861C101.648 28.6921 101.917 29.0001 102.284 29.2241C102.652 29.4481 103.062 29.5601 103.543 29.5601C104.009 29.5601 104.419 29.4481 104.787 29.2241Z" fill="#667085"/>
<path d="M115.292 20.6981V30.4981H114.288L114.133 29.3501C113.525 30.1761 112.705 30.5821 111.659 30.5821C110.98 30.5821 110.386 30.4421 109.863 30.1481C109.34 29.8681 108.93 29.4481 108.633 28.8881C108.336 28.3421 108.195 27.6841 108.195 26.9281C108.195 26.2141 108.336 25.5841 108.633 25.0241C108.93 24.4781 109.34 24.0441 109.877 23.7361C110.4 23.4281 110.994 23.2741 111.659 23.2741C112.238 23.2741 112.733 23.3861 113.157 23.5961C113.567 23.8061 113.892 24.0861 114.133 24.4501V20.6981H115.292ZM113.002 29.2381C113.369 29.0141 113.652 28.7061 113.85 28.3141C114.048 27.9221 114.147 27.4601 114.147 26.9561C114.147 26.4521 114.048 25.9901 113.85 25.5841C113.652 25.1781 113.369 24.8561 113.002 24.6321C112.634 24.4081 112.224 24.2961 111.772 24.2961C111.051 24.2961 110.471 24.5481 110.033 25.0381C109.594 25.5281 109.382 26.1581 109.382 26.9281C109.382 27.7121 109.594 28.3421 110.033 28.8321C110.471 29.3221 111.051 29.5601 111.772 29.5601C112.224 29.5601 112.634 29.4621 113.002 29.2381Z" fill="#667085"/>
<path d="M123.616 29.4481V30.4981H122.979C122.513 30.4981 122.188 30.4141 121.99 30.2181C121.792 30.0361 121.679 29.7561 121.679 29.3921C121.113 30.1901 120.307 30.5821 119.261 30.5821C118.455 30.5821 117.805 30.4001 117.324 30.0221C116.843 29.6581 116.603 29.1401 116.603 28.4961C116.603 27.7821 116.843 27.2361 117.338 26.8441C117.833 26.4661 118.554 26.2701 119.501 26.2701H121.622V25.7801C121.622 25.3181 121.452 24.9541 121.141 24.6881C120.83 24.4361 120.392 24.2961 119.826 24.2961C119.317 24.2961 118.907 24.4081 118.582 24.6321C118.257 24.8561 118.059 25.1361 117.988 25.5001H116.829C116.914 24.8001 117.225 24.2541 117.762 23.8621C118.299 23.4701 119.006 23.2741 119.883 23.2741C120.802 23.2741 121.509 23.4981 122.018 23.9461C122.527 24.3941 122.781 25.0241 122.781 25.8501V28.9301C122.781 29.2801 122.937 29.4481 123.262 29.4481H123.616ZM121.622 27.2361H119.388C118.314 27.2361 117.776 27.6421 117.776 28.4261C117.776 28.7901 117.918 29.0701 118.201 29.2801C118.483 29.5041 118.865 29.6021 119.346 29.6021C120.053 29.6021 120.604 29.4201 121.014 29.0561C121.41 28.6921 121.622 28.2021 121.622 27.5861V27.2361Z" fill="#667085"/>
<path d="M124.809 23.3581L127.029 29.1821L129.178 23.3581H130.408L127.085 31.7021C126.915 32.1361 126.76 32.4581 126.633 32.6681C126.491 32.8921 126.336 33.0461 126.138 33.1441C125.94 33.2561 125.671 33.2981 125.346 33.2981H123.96V32.2481H124.993C125.219 32.2481 125.388 32.2341 125.502 32.1781C125.615 32.1361 125.7 32.0661 125.77 31.9541C125.841 31.8421 125.926 31.6601 126.039 31.4081L126.406 30.5541L123.579 23.3581H124.809Z" fill="#667085"/>
<path d="M130.805 29.2381C130.946 29.0981 131.144 29.0141 131.385 29.0141C131.611 29.0141 131.809 29.0981 131.964 29.2381C132.106 29.3781 132.191 29.5741 132.191 29.7981C132.191 30.0361 132.106 30.2321 131.964 30.3721C131.809 30.5121 131.611 30.5821 131.385 30.5821C131.144 30.5821 130.946 30.5121 130.805 30.3721C130.649 30.2321 130.579 30.0361 130.579 29.7981C130.579 29.5741 130.649 29.3781 130.805 29.2381Z" fill="#667085"/>
</svg>
