<svg width="58" height="13" viewBox="0 0 58 13" fill="none" xmlns="http://www.w3.org/2000/svg">
<path d="M4.364 0C5.036 0 5.62867 0.130666 6.142 0.392C6.65533 0.644 7.052 1.008 7.332 1.484C7.612 1.95067 7.752 2.49667 7.752 3.122C7.752 3.74733 7.612 4.298 7.332 4.774C7.052 5.24067 6.65533 5.60467 6.142 5.866C5.62867 6.118 5.036 6.244 4.364 6.244H2.11V9.8H0.5V0H4.364ZM2.11 4.844H4.224C4.80267 4.844 5.26 4.69 5.596 4.382C5.94133 4.06467 6.114 3.64467 6.114 3.122C6.114 2.59 5.946 2.17 5.61 1.862C5.274 1.554 4.81667 1.4 4.238 1.4H2.11V4.844Z" fill="#1A1A31"/>
<path d="M15.2724 8.484V9.8H14.4744C14.0077 9.8 13.6717 9.702 13.4664 9.506C13.2611 9.31 13.1584 9.02533 13.1584 8.652C12.6171 9.47333 11.8284 9.884 10.7924 9.884C9.98974 9.884 9.34574 9.69733 8.86041 9.324C8.37507 8.95067 8.13241 8.43733 8.13241 7.784C8.13241 7.04667 8.39374 6.482 8.91641 6.09C9.43907 5.68867 10.1997 5.488 11.1984 5.488H13.0044V5.054C13.0044 4.65267 12.8644 4.34 12.5844 4.116C12.3044 3.88267 11.9171 3.766 11.4224 3.766C10.9837 3.766 10.6197 3.864 10.3304 4.06C10.0504 4.24667 9.88241 4.49867 9.82641 4.816H8.34241C8.41707 4.09733 8.73441 3.542 9.29441 3.15C9.85441 2.74867 10.5871 2.548 11.4924 2.548C12.4537 2.548 13.1957 2.772 13.7184 3.22C14.2411 3.668 14.5024 4.312 14.5024 5.152V7.98C14.5024 8.316 14.6611 8.484 14.9784 8.484H15.2724ZM13.0044 6.608H11.1284C10.6617 6.608 10.3024 6.70133 10.0504 6.888C9.79841 7.06533 9.67241 7.33133 9.67241 7.686C9.67241 7.994 9.78907 8.24133 10.0224 8.428C10.2651 8.61467 10.5917 8.708 11.0024 8.708C11.6277 8.708 12.1131 8.54 12.4584 8.204C12.8131 7.868 12.9951 7.42 13.0044 6.86V6.608Z" fill="#1A1A31"/>
<path d="M16.7733 2.632L18.7752 8.162L20.7213 2.632H22.3312L19.0833 10.92C18.9153 11.3493 18.7612 11.676 18.6213 11.9C18.4813 12.1333 18.3086 12.306 18.1033 12.418C17.8979 12.5393 17.6226 12.6 17.2773 12.6H15.6532V11.27H16.7173C17.0066 11.27 17.2073 11.2233 17.3193 11.13C17.4312 11.046 17.5479 10.85 17.6693 10.542L17.9633 9.856L15.1632 2.632H16.7733Z" fill="#1A1A31"/>
<path d="M26.832 9.8V0H28.442V8.372H32.656V9.8H26.832Z" fill="#1A1A31"/>
<path d="M40.4833 8.484V9.8H39.6853C39.2187 9.8 38.8827 9.702 38.6773 9.506C38.472 9.31 38.3693 9.02533 38.3693 8.652C37.828 9.47333 37.0393 9.884 36.0033 9.884C35.2007 9.884 34.5567 9.69733 34.0713 9.324C33.586 8.95067 33.3433 8.43733 33.3433 7.784C33.3433 7.04667 33.6047 6.482 34.1273 6.09C34.65 5.68867 35.4107 5.488 36.4093 5.488H38.2153V5.054C38.2153 4.65267 38.0753 4.34 37.7953 4.116C37.5153 3.88267 37.128 3.766 36.6333 3.766C36.1947 3.766 35.8307 3.864 35.5413 4.06C35.2613 4.24667 35.0933 4.49867 35.0373 4.816H33.5533C33.628 4.09733 33.9453 3.542 34.5053 3.15C35.0653 2.74867 35.798 2.548 36.7033 2.548C37.6647 2.548 38.4067 2.772 38.9293 3.22C39.452 3.668 39.7133 4.312 39.7133 5.152V7.98C39.7133 8.316 39.872 8.484 40.1893 8.484H40.4833ZM38.2153 6.608H36.3393C35.8727 6.608 35.5133 6.70133 35.2613 6.888C35.0093 7.06533 34.8833 7.33133 34.8833 7.686C34.8833 7.994 35 8.24133 35.2333 8.428C35.476 8.61467 35.8027 8.708 36.2133 8.708C36.8387 8.708 37.324 8.54 37.6693 8.204C38.024 7.868 38.206 7.42 38.2153 6.86V6.608Z" fill="#1A1A31"/>
<path d="M41.7689 3.962H40.5229V2.632H41.7689V0.63H43.2949V2.632H45.0169V3.962H43.2949V7.7C43.2949 7.98 43.3509 8.18067 43.4629 8.302C43.5749 8.414 43.7663 8.47 44.0369 8.47H45.1849V9.8H43.7289C43.0476 9.8 42.5483 9.64133 42.2309 9.324C41.9229 9.00667 41.7689 8.51667 41.7689 7.854V3.962Z" fill="#1A1A31"/>
<path d="M45.58 6.23C45.58 5.49267 45.7247 4.84867 46.014 4.298C46.3127 3.738 46.7233 3.30867 47.246 3.01C47.778 2.702 48.3847 2.548 49.066 2.548C49.7567 2.548 50.3633 2.688 50.886 2.968C51.418 3.248 51.8333 3.64467 52.132 4.158C52.44 4.67133 52.5987 5.27333 52.608 5.964C52.608 6.15067 52.594 6.342 52.566 6.538H47.162V6.622C47.1993 7.24733 47.3953 7.742 47.75 8.106C48.1047 8.47 48.576 8.652 49.164 8.652C49.6307 8.652 50.0227 8.54467 50.34 8.33C50.6573 8.106 50.8673 7.79333 50.97 7.392H52.482C52.3513 8.12 51.9967 8.71733 51.418 9.184C50.8487 9.65067 50.1347 9.884 49.276 9.884C48.5293 9.884 47.876 9.73467 47.316 9.436C46.7653 9.128 46.336 8.69867 46.028 8.148C45.7293 7.59733 45.58 6.958 45.58 6.23ZM51.068 5.432C51.0027 4.90933 50.7927 4.50333 50.438 4.214C50.0927 3.91533 49.654 3.766 49.122 3.766C48.6273 3.766 48.198 3.92 47.834 4.228C47.4793 4.52667 47.274 4.928 47.218 5.432H51.068Z" fill="#1A1A31"/>
<path d="M57.7924 2.632V4.046H57.1204C56.495 4.046 56.0424 4.25133 55.7624 4.662C55.4824 5.06333 55.3424 5.57667 55.3424 6.202V9.8H53.8304V2.632H55.1744L55.3424 3.71C55.5477 3.374 55.8137 3.11267 56.1404 2.926C56.467 2.73 56.9057 2.632 57.4564 2.632H57.7924Z" fill="#1A1A31"/>
</svg>
