<svg width="1639" height="655" viewBox="0 0 1639 655" fill="none" xmlns="http://www.w3.org/2000/svg">
<path d="M325.617 655L419.776 655C466.855 655 472.086 649.76 472.086 602.6V550.2C472.086 503.04 477.317 497.8 524.397 497.8L1415.75 497.8C1462.83 497.8 1469.37 492.56 1486.37 448.02L1628.92 49.78C1645.92 5.23997 1642 0 1594.92 0L690.483 0C643.403 0 636.865 5.23997 621.171 49.78L489.087 448.02C473.394 492.56 466.855 497.8 419.776 497.8H393.62C346.541 497.8 340.002 492.56 324.309 448.02L192.225 49.78C176.532 5.23997 169.993 0 122.913 0L44.4476 0C-2.6319 0 -6.55519 5.23997 9.13797 49.78L186.994 555.44C209.226 620.94 257.613 655 325.617 655Z" fill="#EA5C29"/>
</svg>
